{
.appVersion = "1131";
DisplayStrings = (
"<",
">"
);
copyright = " The digitally encoded machine readable software for producing th";
customParameters = (
{
name = trademark;
value = "Univers is a trademark of Heidelberger Druckmaschinen AG, exclusively licensed through Linotype Library GmbH, and may be registered in certain jurisdictions.";
},
{
name = licenseURL;
value = "http://www.adobe.com/type/legal.html";
},
{
name = vendorID;
value = ADBE;
},
{
name = panose;
value = (
2,
11,
6,
5,
3,
5,
2,
2,
2,
4
);
},
{
name = unicodeRanges;
value = (
0,
1,
2,
3,
5,
7,
31,
33,
35,
38,
45,
62
);
},
{
name = codePageRanges;
value = (
1252
);
},
{
name = "Family Alignment Zones";
value = (
"{720, 21}",
"{692, 16}",
"{502, 17}",
"{420, -1}",
"{274, -9}",
"{0, -19}",
"{-190, -19}"
);
},
{
name = glyphOrder;
value = (
.notdef,
space,
exclam,
quotedbl,
numbersign,
dollar,
percent,
ampersand,
quoteright,
parenleft,
parenright,
asterisk,
plus,
comma,
hyphen,
period,
slash,
zero,
one,
two,
three,
four,
five,
six,
seven,
eight,
nine,
colon,
semicolon,
less,
equal,
greater,
question,
at,
A,
B,
C,
D,
E,
F,
G,
H,
I,
J,
K,
L,
M,
N,
O,
P,
Q,
R,
S,
T,
U,
V,
W,
X,
Y,
Z,
bracketleft,
backslash,
bracketright,
asciicircum,
underscore,
quoteleft,
a,
b,
c,
d,
e,
f,
g,
h,
i,
j,
k,
l,
m,
n,
o,
p,
q,
r,
s,
t,
u,
v,
w,
x,
y,
z,
braceleft,
bar,
braceright,
asciitilde,
exclamdown,
cent,
sterling,
fraction,
yen,
florin,
section,
currency,
quotesingle,
quotedblleft,
guillemotleft,
guilsinglleft,
guilsinglright,
fi,
fl,
endash,
dagger,
daggerdbl,
periodcentered,
paragraph,
bullet,
quotesinglbase,
quotedblbase,
quotedblright,
guillemotright,
ellipsis,
perthousand,
questiondown,
grave,
acute,
circumflex,
tilde,
macron,
breve,
dotaccent,
dieresis,
ring,
cedilla,
hungarumlaut,
ogonek,
caron,
emdash,
AE,
ordfeminine,
Lslash,
Oslash,
OE,
ordmasculine,
ae,
dotlessi,
lslash,
oslash,
oe,
germandbls,
onesuperior,
logicalnot,
mu,
trademark,
Eth,
onehalf,
plusminus,
Thorn,
onequarter,
divide,
brokenbar,
degree,

glyphs = (
{
glyphname = .notdef;
lastChange = "2023-01-03 16:47:02 +0000";
layers = (
{
hints = (
{
horizontal = 1;
place = "{0, 50}";
type = Stem;
},
{
horizontal = 1;
place = "{650, 50}";
type = Stem;
},
{
place = "{0, 50}";
type = Stem;
},
{
place = "{450, 50}";
type = Stem;
}
);
layerId = "6D1AFECB-6C65-4A9F-813E-BAE625DDDD1E";
paths = (
{
closed = 1;
nodes = (
"0 0 LINE",
"500 0 LINE",
"500 700 LINE",
"0 700 LINE"
);
},
{
closed = 1;
nodes = (
"250 395 LINE",
"80 650 LINE",
"420 650 LINE"
);
},
{
closed = 1;
nodes = (
"280 350 LINE",
"450 605 LINE",
"450 95 LINE"
);
},
{
closed = 1;
nodes = (
"80 50 LINE",
"250 305 LINE",
"420 50 LINE"
);
},
{
closed = 1;
nodes = (
"50 605 LINE",
"220 350 LINE",
"50 95 LINE"
);
}
);
width = 500;
}
);
note = .notdef;
},
{
glyphname = exclam;
lastChange = "2023-01-03 16:47:02 +0000";
layers = (
{
hints = (
{
horizontal = 1;
place = "{0, 110}";
type = Stem;
},
{
horizontal = 1;
place = "{722, -20}";
target = down;
type = TopGhost;
},
{
place = "{204, 110}";
type = Stem;
},
{
place = "{209.5, 99}";
type = Stem;
}
);
layerId = "6D1AFECB-6C65-4A9F-813E-BAE625DDDD1E";
paths = (
{
closed = 1;
nodes = (
"218 176 LINE",
"300 176 LINE",
"317 722 LINE",
"201 722 LINE"
);
},
{
closed = 1;
nodes = (
"204 0 LINE",
"314 0 LINE",
"314 110 LINE",
"204 110 LINE"
);
}
);
width = 518;
}
);
note = exclam;
unicode = 0021;
},
{
glyphname = quotedbl;
lastChange = "2023-01-03 16:47:02 +0000";
layers = (
{
hints = (
{
horizontal = 1;
place = "{508, 214}";
type = Stem;
},
{
place = "{155, 88}";
type = Stem;
},
{
place = "{350, 88}";
type = Stem;
}
);
layerId = "6D1AFECB-6C65-4A9F-813E-BAE625DDDD1E";
paths = (
{
closed = 1;
nodes = (
"350 508 LINE",
"438 508 LINE",
"438 722 LINE",
"350 722 LINE"
);
},
{
closed = 1;
nodes = (
"155 508 LINE",
"243 508 LINE",
"243 722 LINE",
"155 722 LINE"
);
}
);
width = 593;
}
);
note = quotedbl;
unicode = 0022;
},
{
glyphname = numbersign;
lastChange = "2023-01-03 16:47:02 +0000";
layers = (
{
hints = (
{
horizontal = 1;
place = "{0, 21}";
target = up;
type = BottomGhost;
},
{
horizontal = 1;
place = "{206, 74}";
type = Stem;
},
{
horizontal = 1;
place = "{412, 74}";
type = Stem;
},
{
horizontal = 1;
place = "{692, -20}";
target = down;
type = TopGhost;
},
{
place = "{122, 496}";
type = Stem;
}
);
layerId = "6D1AFECB-6C65-4A9F-813E-BAE625DDDD1E";
paths = (
{
closed = 1;
nodes = (
"324 412 LINE",
"434 412 LINE",
"416 280 LINE",
"306 280 LINE"
);
},
{
closed = 1;
nodes = (
"224 280 LINE",
"122 280 LINE",
"122 206 LINE",
"213 206 LINE",
"184 0 LINE",
"266 0 LINE",
"295 206 LINE",
"405 206 LINE",
"376 0 LINE",
"458 0 LINE",
"487 206 LINE",
"589 206 LINE",
"589 280 LINE",
"498 280 LINE",
"516 412 LINE",
"618 412 LINE",
"618 486 LINE",
"527 486 LINE",
"556 692 LINE",
"474 692 LINE",
"445 486 LINE",
"335 486 LINE",
"364 692 LINE",
"282 692 LINE",
"253 486 LINE",
"151 486 LINE",
"151 412 LINE",
"242 412 LINE"
);
}
);
width = 740;
}
);
note = numbersign;
unicode = 0023;
},
{
glyphname = dollar;
lastChange = "2023-01-03 16:47:02 +0000";
layers = (
{
hints = (
{
horizontal = 1;
place = "{-19, 82}";
type = Stem;
},
{
horizontal = 1;
place = "{659, 82}";
type = Stem;
},
{
place = "{53, 104}";
type = Stem;
},
{
place = "{353, 58}";
type = Stem;
},
{
place = "{606, 104}";
type = Stem;
}
);
layerId = "6D1AFECB-6C65-4A9F-813E-BAE625DDDD1E";
paths = (
{
closed = 1;
nodes = (
"353 420 LINE",
"270 434 LINE SMOOTH",
"181 449 OFFCURVE",
"157 489 OFFCURVE",
"157 528 CURVE SMOOTH",
"157 608 OFFCURVE",
"244 659 OFFCURVE",
"347 659 CURVE SMOOTH",
"353 659 LINE"
);
},
{
closed = 1;
nodes = (
"411 314 LINE",
"518 300 OFFCURVE",
"606 281 OFFCURVE",
"606 201 CURVE SMOOTH",
"606 129 OFFCURVE",
"537 72 OFFCURVE",
"411 63 CURVE"
);
},
{
closed = 1;
nodes = (
"353 -90 LINE",
"411 -90 LINE",
"411 -19 LINE",
"599 -8 OFFCURVE",
"710 78 OFFCURVE",
"710 212 CURVE SMOOTH",
"710 301 OFFCURVE",
"656 368 OFFCURVE",
"539 388 CURVE SMOOTH",
"411 410 LINE",
"411 656 LINE",
"499 647 OFFCURVE",
"569 612 OFFCURVE",
"577 530 CURVE",
"687 530 LINE",
"678 680 OFFCURVE",
"547 733 OFFCURVE",
"411 741 CURVE",
"411 812 LINE",
"353 812 LINE",
"353 741 LINE",
"164 737 OFFCURVE",
"53 657 OFFCURVE",
"53 522 CURVE SMOOTH",
"53 362 OFFCURVE",
"207 337 OFFCURVE",
"353 320 CURVE",
"353 63 LINE",
"227 68 OFFCURVE",
"143 124 OFFCURVE",
"140 216 CURVE",
"30 216 LINE",
"43 61 OFFCURVE",
"156 -16 OFFCURVE",
"353 -19 CURVE"
);
}
);
width = 740;
}
);
note = dollar;
unicode = 0024;
},
{
glyphname = percent;
lastChange = "2023-01-03 16:47:02 +0000";
layers = (
{
hints = (
{
horizontal = 1;
place = "{-19, 58}";
type = Stem;
},
{
horizontal = 1;
place = "{335, 58}";
type = Stem;
},
{
horizontal = 1;
place = "{653, 58}";
type = Stem;
},
{
place = "{106, 74}";
type = Stem;
},
{
place = "{386, 74}";
type = Stem;
},
{
place = "{650, 74}";
type = Stem;
},
{
place = "{930, 74}";
type = Stem;
},
{
horizontal = 1;
place = "{299, 58}";
type = Stem;
},
{
horizontal = 1;
place = "{721, -20}";
target = down;
type = TopGhost;
}
);
layerId = "6D1AFECB-6C65-4A9F-813E-BAE625DDDD1E";
paths = (
{
closed = 1;
nodes = (
"106 409 OFFCURVE",
"168 335 OFFCURVE",
"283 335 CURVE SMOOTH",
"398 335 OFFCURVE",
"460 409 OFFCURVE",
"460 523 CURVE SMOOTH",
"460 637 OFFCURVE",
"398 711 OFFCURVE",
"283 711 CURVE SMOOTH",
"168 711 OFFCURVE",
"106 637 OFFCURVE",
"106 523 CURVE SMOOTH"
);
},
{
closed = 1;
nodes = (
"180 615 OFFCURVE",
"227 653 OFFCURVE",
"283 653 CURVE SMOOTH",
"340 653 OFFCURVE",
"386 615 OFFCURVE",
"386 523 CURVE SMOOTH",
"386 431 OFFCURVE",
"340 393 OFFCURVE",
"283 393 CURVE SMOOTH",
"227 393 OFFCURVE",
"180 431 OFFCURVE",
"180 523 CURVE SMOOTH"
);
},
{
closed = 1;
nodes = (
"650 55 OFFCURVE",
"712 -19 OFFCURVE",
"827 -19 CURVE SMOOTH",
"942 -19 OFFCURVE",
"1004 55 OFFCURVE",
"1004 169 CURVE SMOOTH",
"1004 283 OFFCURVE",
"942 357 OFFCURVE",
"827 357 CURVE SMOOTH",
"712 357 OFFCURVE",
"650 283 OFFCURVE",
"650 169 CURVE SMOOTH"
);
},
{
closed = 1;
nodes = (
"724 261 OFFCURVE",
"771 299 OFFCURVE",
"827 299 CURVE SMOOTH",
"884 299 OFFCURVE",
"930 261 OFFCURVE",
"930 169 CURVE SMOOTH",
"930 77 OFFCURVE",
"884 39 OFFCURVE",
"827 39 CURVE SMOOTH",
"771 39 OFFCURVE",
"724 77 OFFCURVE",
"724 169 CURVE SMOOTH"
);
},
{
closed = 1;
nodes = (
"789 721 LINE",
"245 -29 LINE",
"327 -29 LINE",
"871 721 LINE"
);
}
);
width = 1110;
}
);
note = percent;
unicode = 0025;
},
{
glyphname = ampersand;
lastChange = "2023-01-03 16:47:02 +0000";
layers = (
{
hints = (
{
horizontal = 1;
place = "{-19, 74}";
type = Stem;
},
{
horizontal = 1;
place = "{673, 68}";
type = Stem;
},
{
place = "{75, 104}";
type = Stem;
},
{
place = "{496, 88}";
type = Stem;
},
{
horizontal = 1;
place = "{0, 21}";
target = up;
type = BottomGhost;
},
{
place = "{190, 98}";
type = Stem;
},
{
place = "{757, 98}";
type = Stem;
}
);
layerId = "6D1AFECB-6C65-4A9F-813E-BAE625DDDD1E";
paths = (
{
closed = 1;
nodes = (
"942 0 LINE",
"740 163 LINE",
"818 259 OFFCURVE",
"843 346 OFFCURVE",
"855 458 CURVE",
"757 458 LINE",
"750 375 OFFCURVE",
"723 293 OFFCURVE",
"669 221 CURVE",
"446 401 LINE",
"538 445 OFFCURVE",
"584 506 OFFCURVE",
"584 583 CURVE SMOOTH",
"584 661 OFFCURVE",
"519 741 OFFCURVE",
"390 741 CURVE SMOOTH",
"255 741 OFFCURVE",
"190 661 OFFCURVE",
"190 578 CURVE SMOOTH",
"190 520 OFFCURVE",
"221 469 OFFCURVE",
"289 421 CURVE",
"127 365 OFFCURVE",
"75 291 OFFCURVE",
"75 197 CURVE SMOOTH",
"75 67 OFFCURVE",
"198 -19 OFFCURVE",
"378 -19 CURVE SMOOTH",
"513 -19 OFFCURVE",
"606 31 OFFCURVE",
"675 94 CURVE",
"787 0 LINE"
);
},
{
closed = 1;
nodes = (
"610 150 LINE",
"560 104 OFFCURVE",
"484 55 OFFCURVE",
"378 55 CURVE SMOOTH",
"256 55 OFFCURVE",
"179 118 OFFCURVE",
"179 201 CURVE SMOOTH",
"179 266 OFFCURVE",
"237 323 OFFCURVE",
"358 363 CURVE"
);
},
{
closed = 1;
nodes = (
"496 530 OFFCURVE",
"455 483 OFFCURVE",
"382 453 CURVE",
"331 488 OFFCURVE",
"288 530 OFFCURVE",
"288 578 CURVE SMOOTH",
"288 639 OFFCURVE",
"342 673 OFFCURVE",
"392 673 CURVE SMOOTH",
"442 673 OFFCURVE",
"496 639 OFFCURVE",
"496 578 CURVE SMOOTH"
);
}
);
width = 962;
}
);
note = ampersand;
unicode = 0026;
},
{
glyphname = quoteright;
lastChange = "2023-01-03 16:47:02 +0000";
layers = (
{
hints = (
{
horizontal = 1;
place = "{508, 214}";
type = Stem;
},
{
place = "{94, 182}";
type = Stem;
}
);
layerId = "6D1AFECB-6C65-4A9F-813E-BAE625DDDD1E";
paths = (
{
closed = 1;
nodes = (
"94 508 LINE",
"176 508 LINE",
"276 722 LINE",
"160 722 LINE"
);
}
);
width = 370;
}
);
leftKerningGroup = quoteright;
note = quoteright;
rightKerningGroup = quoteright;
unicode = 2019;
},
{
glyphname = parenleft;
lastChange = "2023-01-03 16:47:02 +0000";
layers = (
{
hints = (
{
horizontal = 1;
place = "{741, -20}";
target = down;
type = TopGhost;
},
{
place = "{77, 98}";
type = Stem;
}
);
layerId = "6D1AFECB-6C65-4A9F-813E-BAE625DDDD1E";
paths = (
{
closed = 1;
nodes = (
"313 -137 LINE",
"209 33 OFFCURVE",
"175 193 OFFCURVE",
"175 302 CURVE SMOOTH",
"175 411 OFFCURVE",
"209 571 OFFCURVE",
"313 741 CURVE",
"231 741 LINE",
"124 573 OFFCURVE",
"77 417 OFFCURVE",
"77 302 CURVE SMOOTH",
"77 187 OFFCURVE",
"124 31 OFFCURVE",
"231 -137 CURVE"
);
}
);
width = 370;
}
);
note = parenleft;
unicode = 0028;
},
{
glyphname = parenright;
lastChange = "2023-01-03 16:47:02 +0000";
layers = (
{
hints = (
{
horizontal = 1;
place = "{741, -20}";
target = down;
type = TopGhost;
},
{
place = "{195, 98}";
type = Stem;
}
);
layerId = "6D1AFECB-6C65-4A9F-813E-BAE625DDDD1E";
paths = (
{
closed = 1;
nodes = (
"139 -137 LINE",
"246 31 OFFCURVE",
"293 187 OFFCURVE",
"293 302 CURVE SMOOTH",
"293 417 OFFCURVE",
"246 573 OFFCURVE",
"139 741 CURVE",
"57 741 LINE",
"161 571 OFFCURVE",
"195 411 OFFCURVE",
"195 302 CURVE SMOOTH",
"195 193 OFFCURVE",
"161 33 OFFCURVE",
"57 -137 CURVE"
);
}
);
width = 370;
}
);
note = parenright;
unicode = 0029;
},
{
glyphname = asterisk;
lastChange = "2023-01-03 16:47:02 +0000";
layers = (
{
hints = (
{
horizontal = 1;
place = "{722, -20}";
target = down;
type = TopGhost;
},
{
place = "{115, 362}";
type = Stem;
}
);
layerId = "6D1AFECB-6C65-4A9F-813E-BAE625DDDD1E";
paths = (
{
closed = 1;
nodes = (
"236 368 LINE",
"296 508 LINE",
"356 368 LINE",
"419 406 LINE",
"326 528 LINE",
"477 508 LINE",
"477 582 LINE",
"326 562 LINE",
"420 684 LINE",
"351 722 LINE",
"296 582 LINE",
"241 722 LINE",
"172 684 LINE",
"266 562 LINE",
"115 582 LINE",
"115 508 LINE",
"266 528 LINE",
"173 406 LINE"
);
}
);
width = 592;
}
);
note = asterisk;
unicode = 002A;
},
{
glyphname = plus;
lastChange = "2023-01-03 16:47:02 +0000";
layers = (
{
hints = (
{
horizontal = 1;
place = "{0, 21}";
target = up;
type = BottomGhost;
},
{
horizontal = 1;
place = "{209, 88}";
type = Stem;
},
{
horizontal = 1;
place = "{506, -20}";
target = down;
type = TopGhost;
},
{
place = "{256, 88}";
type = Stem;
}
);
layerId = "6D1AFECB-6C65-4A9F-813E-BAE625DDDD1E";
paths = (
{
closed = 1;
nodes = (
"256 297 LINE",
"47 297 LINE",
"47 209 LINE",
"256 209 LINE",
"256 0 LINE",
"344 0 LINE",
"344 209 LINE",
"553 209 LINE",
"553 297 LINE",
"344 297 LINE",
"344 506 LINE",
"256 506 LINE"
);
}
);
width = 600;
}
);
note = plus;
unicode = 002B;
},
{
glyphname = comma;
lastChange = "2023-01-03 16:47:02 +0000";
layers = (
{
hints = (
{
horizontal = 1;
place = "{-104, 214}";
type = Stem;
},
{
place = "{94, 182}";
type = Stem;
}
);
layerId = "6D1AFECB-6C65-4A9F-813E-BAE625DDDD1E";
paths = (
{
closed = 1;
nodes = (
"94 -104 LINE",
"176 -104 LINE",
"276 110 LINE",
"158 110 LINE"
);
}
);
width = 370;
}
);
leftKerningGroup = comma;
note = comma;
unicode = 002C;
},
{
glyphname = hyphen;
lastChange = "2023-01-03 16:47:02 +0000";
layers = (
{
hints = (
{
horizontal = 1;
place = "{223, 88}";
type = Stem;
},
{
place = "{54, 336}";
type = Stem;
}
);
layerId = "6D1AFECB-6C65-4A9F-813E-BAE625DDDD1E";
paths = (
{
closed = 1;
nodes = (
"54 223 LINE",
"390 223 LINE",
"390 311 LINE",
"54 311 LINE"
);
}
);
width = 444;
}
);
leftKerningGroup = hyphen;
note = hyphen;
unicode = 002D;
},
{
glyphname = period;
lastChange = "2023-01-03 16:47:02 +0000";
layers = (
{
hints = (
{
horizontal = 1;
place = "{0, 110}";
type = Stem;
},
{
place = "{130, 110}";
type = Stem;
}
);
layerId = "6D1AFECB-6C65-4A9F-813E-BAE625DDDD1E";
paths = (
{
closed = 1;
nodes = (
"130 0 LINE",
"240 0 LINE",
"240 110 LINE",
"130 110 LINE"
);
}
);
width = 370;
}
);
leftKerningGroup = period;
note = period;
unicode = 002E;
},
{
glyphname = slash;
lastChange = "2023-01-03 16:47:02 +0000";
layers = (
{
hints = (
{
horizontal = 1;
place = "{-19, 21}";
target = up;
type = BottomGhost;
},
{
horizontal = 1;
place = "{741, -20}";
target = down;
type = TopGhost;
},
{
place = "{11, 422}";
type = Stem;
}
);
layerId = "6D1AFECB-6C65-4A9F-813E-BAE625DDDD1E";
paths = (
{
closed = 1;
nodes = (
"11 -19 LINE",
"109 -19 LINE",
"433 741 LINE",
"335 741 LINE"
);
}
);
width = 444;
}
);
note = slash;
unicode = 002F;
},
{
glyphname = zero;
lastChange = "2023-01-03 16:47:02 +0000";
layers = (
{
hints = (
{
horizontal = 1;
place = "{-19, 82}";
type = Stem;
},
{
horizontal = 1;
place = "{629, 82}";
type = Stem;
},
{
place = "{52, 104}";
type = Stem;
},
{
place = "{584, 104}";
type = Stem;
}
);
layerId = "6D1AFECB-6C65-4A9F-813E-BAE625DDDD1E";
paths = (
{
closed = 1;
nodes = (
"52 99 OFFCURVE",
"169 -19 OFFCURVE",
"370 -19 CURVE SMOOTH",
"571 -19 OFFCURVE",
"688 99 OFFCURVE",
"688 346 CURVE SMOOTH",
"688 593 OFFCURVE",
"571 711 OFFCURVE",
"370 711 CURVE SMOOTH",
"169 711 OFFCURVE",
"52 593 OFFCURVE",
"52 346 CURVE SMOOTH"
);
},
{
closed = 1;
nodes = (
"156 518 OFFCURVE",
"222 629 OFFCURVE",
"370 629 CURVE SMOOTH",
"518 629 OFFCURVE",
"584 518 OFFCURVE",
"584 346 CURVE SMOOTH",
"584 174 OFFCURVE",
"518 63 OFFCURVE",
"370 63 CURVE SMOOTH",
"222 63 OFFCURVE",
"156 174 OFFCURVE",
"156 346 CURVE SMOOTH"
);
}
);
width = 740;
}
);
note = zero;
unicode = 0030;
},
{
glyphname = one;
lastChange = "2023-01-03 16:47:02 +0000";
layers = (
{
hints = (
{
horizontal = 1;
place = "{0, 21}";
target = up;
type = BottomGhost;
},
{
horizontal = 1;
place = "{692, -20}";
target = down;
type = TopGhost;
},
{
place = "{361, 104}";
type = Stem;
}
);
layerId = "6D1AFECB-6C65-4A9F-813E-BAE625DDDD1E";
paths = (
{
closed = 1;
nodes = (
"361 0 LINE",
"465 0 LINE",
"465 692 LINE",
"370 692 LINE",
"313 637 OFFCURVE",
"234 592 OFFCURVE",
"157 563 CURVE",
"157 470 LINE",
"239 498 OFFCURVE",
"303 531 OFFCURVE",
"361 586 CURVE"
);
}
);
width = 740;
}
);
note = one;
unicode = 0031;
},
{
glyphname = two;
lastChange = "2023-01-03 16:47:02 +0000";
layers = (
{
hints = (
{
horizontal = 1;
place = "{0, 82}";
type = Stem;
},
{
horizontal = 1;
place = "{629, 82}";
type = Stem;
},
{
place = "{87, 110}";
type = Stem;
},
{
place = "{541, 104}";
type = Stem;
}
);
layerId = "6D1AFECB-6C65-4A9F-813E-BAE625DDDD1E";
paths = (
{
closed = 1;
nodes = (
"72 0 LINE",
"668 0 LINE",
"668 82 LINE",
"216 82 LINE",
"216 84 LINE",
"516 248 OFFCURVE",
"645 383 OFFCURVE",
"645 505 CURVE SMOOTH",
"645 614 OFFCURVE",
"560 711 OFFCURVE",
"368 711 CURVE SMOOTH",
"210 711 OFFCURVE",
"92 629 OFFCURVE",
"87 490 CURVE",
"197 490 LINE",
"197 574 OFFCURVE",
"263 629 OFFCURVE",
"374 629 CURVE SMOOTH",
"469 629 OFFCURVE",
"541 577 OFFCURVE",
"541 491 CURVE SMOOTH",
"541 391 OFFCURVE",
"391 273 OFFCURVE",
"72 92 CURVE"
);
}
);
width = 740;
}
);
note = two;
unicode = 0032;
},
{
glyphname = three;
lastChange = "2023-01-03 16:47:02 +0000";
layers = (
{
hints = (
{
horizontal = 1;
place = "{-19, 82}";
type = Stem;
},
{
horizontal = 1;
place = "{316, 82}";
type = Stem;
},
{
horizontal = 1;
place = "{629, 82}";
type = Stem;
},
{
place = "{560, 104}";
type = Stem;
},
{
place = "{543, 98}";
type = Stem;
}
);
layerId = "6D1AFECB-6C65-4A9F-813E-BAE625DDDD1E";
paths = (
{
closed = 1;
nodes = (
"280 316 LINE",
"328 316 LINE SMOOTH",
"481 316 OFFCURVE",
"560 275 OFFCURVE",
"560 191 CURVE SMOOTH",
"560 105 OFFCURVE",
"467 63 OFFCURVE",
"348 63 CURVE SMOOTH",
"248 63 OFFCURVE",
"164 101 OFFCURVE",
"162 183 CURVE",
"58 183 LINE",
"62 57 OFFCURVE",
"157 -19 OFFCURVE",
"342 -19 CURVE SMOOTH",
"549 -19 OFFCURVE",
"664 54 OFFCURVE",
"664 187 CURVE SMOOTH",
"664 271 OFFCURVE",
"614 336 OFFCURVE",
"500 356 CURVE",
"500 358 LINE",
"598 376 OFFCURVE",
"641 447 OFFCURVE",
"641 517 CURVE SMOOTH",
"641 634 OFFCURVE",
"544 711 OFFCURVE",
"343 711 CURVE SMOOTH",
"200 711 OFFCURVE",
"78 637 OFFCURVE",
"77 521 CURVE",
"181 521 LINE",
"182 598 OFFCURVE",
"267 629 OFFCURVE",
"365 629 CURVE SMOOTH",
"469 629 OFFCURVE",
"543 582 OFFCURVE",
"543 511 CURVE SMOOTH",
"543 447 OFFCURVE",
"489 398 OFFCURVE",
"326 398 CURVE SMOOTH",
"280 398 LINE"
);
}
);
width = 740;
}
);
note = three;
unicode = 0033;
},
{
glyphname = four;
lastChange = "2023-01-03 16:47:02 +0000";
layers = (
{
hints = (
{
horizontal = 1;
place = "{0, 21}";
target = up;
type = BottomGhost;
},
{
horizontal = 1;
place = "{164, 82}";
type = Stem;
},
{
horizontal = 1;
place = "{692, -20}";
target = down;
type = TopGhost;
},
{
place = "{32, 88}";
type = Stem;
},
{
place = "{456, 98}";
type = Stem;
},
{
horizontal = 1;
place = "{604, 88}";
type = Stem;
}
);
layerId = "6D1AFECB-6C65-4A9F-813E-BAE625DDDD1E";
paths = (
{
closed = 1;
nodes = (
"456 0 LINE",
"554 0 LINE",
"554 164 LINE",
"708 164 LINE",
"708 246 LINE",
"554 246 LINE",
"554 692 LINE",
"430 692 LINE",
"32 276 LINE",
"32 164 LINE",
"456 164 LINE"
);
},
{
closed = 1;
nodes = (
"120 246 LINE",
"120 249 LINE",
"456 604 LINE",
"456 246 LINE"
);
}
);
width = 740;
}
);
note = four;
unicode = 0034;
},
{
glyphname = five;
lastChange = "2023-01-03 16:47:02 +0000";
layers = (
{
hints = (
{
horizontal = 1;
place = "{-19, 82}";
type = Stem;
},
{
horizontal = 1;
place = "{285, 21}";
target = up;
type = BottomGhost;
},
{
horizontal = 1;
place = "{387, 82}";
type = Stem;
},
{
horizontal = 1;
place = "{610, 82}";
type = Stem;
},
{
place = "{104, 98}";
type = Stem;
},
{
place = "{572, 104}";
type = Stem;
}
);
layerId = "6D1AFECB-6C65-4A9F-813E-BAE625DDDD1E";
paths = (
{
closed = 1;
nodes = (
"95 285 LINE",
"196 285 LINE",
"220 355 OFFCURVE",
"293 387 OFFCURVE",
"369 387 CURVE SMOOTH",
"466 387 OFFCURVE",
"572 339 OFFCURVE",
"572 228 CURVE SMOOTH",
"572 120 OFFCURVE",
"474 63 OFFCURVE",
"362 63 CURVE SMOOTH",
"273 63 OFFCURVE",
"194 99 OFFCURVE",
"190 186 CURVE",
"80 186 LINE",
"80 28 OFFCURVE",
"241 -19 OFFCURVE",
"372 -19 CURVE SMOOTH",
"529 -19 OFFCURVE",
"676 54 OFFCURVE",
"676 232 CURVE SMOOTH",
"676 400 OFFCURVE",
"524 469 OFFCURVE",
"403 469 CURVE SMOOTH",
"321 469 OFFCURVE",
"259 451 OFFCURVE",
"196 392 CURVE",
"208 610 LINE",
"635 610 LINE",
"635 692 LINE",
"113 692 LINE"
);
}
);
width = 740;
}
);
note = five;
unicode = 0035;
},
{
glyphname = six;
lastChange = "2023-01-03 16:47:02 +0000";
layers = (
{
hints = (
{
horizontal = 1;
place = "{-19, 82}";
type = Stem;
},
{
horizontal = 1;
place = "{380, 82}";
type = Stem;
},
{
horizontal = 1;
place = "{629, 82}";
type = Stem;
},
{
place = "{62, 104}";
type = Stem;
},
{
place = "{574, 104}";
type = Stem;
}
);
layerId = "6D1AFECB-6C65-4A9F-813E-BAE625DDDD1E";
paths = (
{
closed = 1;
nodes = (
"664 512 LINE",
"657 638 OFFCURVE",
"556 711 OFFCURVE",
"393 711 CURVE SMOOTH",
"164 711 OFFCURVE",
"62 580 OFFCURVE",
"62 332 CURVE SMOOTH",
"62 124 OFFCURVE",
"150 -19 OFFCURVE",
"379 -19 CURVE SMOOTH",
"559 -19 OFFCURVE",
"678 70 OFFCURVE",
"678 226 CURVE SMOOTH",
"678 376 OFFCURVE",
"550 462 OFFCURVE",
"393 462 CURVE SMOOTH",
"315 462 OFFCURVE",
"236 442 OFFCURVE",
"166 368 CURVE",
"169 548 OFFCURVE",
"262 629 OFFCURVE",
"383 629 CURVE SMOOTH",
"487 629 OFFCURVE",
"547 594 OFFCURVE",
"560 512 CURVE"
);
},
{
closed = 1;
nodes = (
"180 319 OFFCURVE",
"265 380 OFFCURVE",
"377 380 CURVE SMOOTH",
"489 380 OFFCURVE",
"574 319 OFFCURVE",
"574 221 CURVE SMOOTH",
"574 125 OFFCURVE",
"489 63 OFFCURVE",
"377 63 CURVE SMOOTH",
"265 63 OFFCURVE",
"180 125 OFFCURVE",
"180 221 CURVE SMOOTH"
);
}
);
width = 740;
}
);
note = six;
unicode = 0036;
},
{
glyphname = seven;
lastChange = "2023-01-03 16:47:02 +0000";
layers = (
{
hints = (
{
horizontal = 1;
place = "{0, 21}";
target = up;
type = BottomGhost;
},
{
horizontal = 1;
place = "{604, 88}";
type = Stem;
},
{
place = "{67, 577}";
type = Stem;
}
);
layerId = "6D1AFECB-6C65-4A9F-813E-BAE625DDDD1E";
paths = (
{
closed = 1;
nodes = (
"67 604 LINE",
"534 604 LINE",
"197 0 LINE",
"319 0 LINE",
"644 604 LINE",
"644 692 LINE",
"67 692 LINE"
);
}
);
width = 740;
}
);
note = seven;
unicode = 0037;
},
{
glyphname = eight;
lastChange = "2023-01-03 16:47:02 +0000";
layers = (
{
hints = (
{
horizontal = 1;
place = "{-19, 82}";
type = Stem;
},
{
horizontal = 1;
place = "{316, 82}";
type = Stem;
},
{
horizontal = 1;
place = "{629, 82}";
type = Stem;
},
{
place = "{58, 104}";
type = Stem;
},
{
place = "{553, 104}";
type = Stem;
},
{
place = "{572, 110}";
type = Stem;
},
{
place = "{79, 104}";
type = Stem;
}
);
layerId = "6D1AFECB-6C65-4A9F-813E-BAE625DDDD1E";
paths = (
{
closed = 1;
nodes = (
"542 -19 OFFCURVE",
"682 48 OFFCURVE",
"682 185 CURVE SMOOTH",
"682 270 OFFCURVE",
"613 347 OFFCURVE",
"495 359 CURVE",
"495 361 LINE",
"588 377 OFFCURVE",
"657 443 OFFCURVE",
"657 523 CURVE SMOOTH",
"657 644 OFFCURVE",
"552 711 OFFCURVE",
"370 711 CURVE SMOOTH",
"184 711 OFFCURVE",
"79 644 OFFCURVE",
"79 523 CURVE SMOOTH",
"79 451 OFFCURVE",
"138 379 OFFCURVE",
"238 361 CURVE",
"238 359 LINE",
"127 347 OFFCURVE",
"58 270 OFFCURVE",
"58 185 CURVE SMOOTH",
"58 48 OFFCURVE",
"198 -19 OFFCURVE",
"370 -19 CURVE SMOOTH"
);
},
{
closed = 1;
nodes = (
"162 259 OFFCURVE",
"239 316 OFFCURVE",
"370 316 CURVE SMOOTH",
"495 316 OFFCURVE",
"572 259 OFFCURVE",
"572 189 CURVE SMOOTH",
"572 118 OFFCURVE",
"495 63 OFFCURVE",
"370 63 CURVE SMOOTH",
"239 63 OFFCURVE",
"162 118 OFFCURVE",
"162 189 CURVE SMOOTH"
);
},
{
closed = 1;
nodes = (
"183 594 OFFCURVE",
"261 629 OFFCURVE",
"370 629 CURVE SMOOTH",
"475 629 OFFCURVE",
"553 594 OFFCURVE",
"553 514 CURVE SMOOTH",
"553 448 OFFCURVE",
"472 398 OFFCURVE",
"370 398 CURVE SMOOTH",
"265 398 OFFCURVE",
"183 448 OFFCURVE",
"183 514 CURVE SMOOTH"
);
}
);
width = 740;
}
);
note = eight;
unicode = 0038;
},
{
glyphname = nine;
lastChange = "2023-01-03 16:47:02 +0000";
layers = (
{
hints = (
{
horizontal = 1;
place = "{-19, 82}";
type = Stem;
},
{
horizontal = 1;
place = "{243, 82}";
type = Stem;
},
{
horizontal = 1;
place = "{629, 82}";
type = Stem;
},
{
place = "{63, 104}";
type = Stem;
},
{
place = "{579, 98}";
type = Stem;
}
);
layerId = "6D1AFECB-6C65-4A9F-813E-BAE625DDDD1E";
paths = (
{
closed = 1;
nodes = (
"227 325 OFFCURVE",
"167 408 OFFCURVE",
"167 477 CURVE SMOOTH",
"167 545 OFFCURVE",
"227 629 OFFCURVE",
"361 629 CURVE SMOOTH",
"497 629 OFFCURVE",
"557 545 OFFCURVE",
"557 477 CURVE SMOOTH",
"557 408 OFFCURVE",
"497 325 OFFCURVE",
"361 325 CURVE SMOOTH"
);
},
{
closed = 1;
nodes = (
"72 185 LINE",
"87 41 OFFCURVE",
"200 -19 OFFCURVE",
"349 -19 CURVE SMOOTH",
"575 -19 OFFCURVE",
"677 97 OFFCURVE",
"677 373 CURVE SMOOTH",
"677 643 OFFCURVE",
"535 711 OFFCURVE",
"357 711 CURVE SMOOTH",
"174 711 OFFCURVE",
"63 612 OFFCURVE",
"63 474 CURVE SMOOTH",
"63 320 OFFCURVE",
"205 243 OFFCURVE",
"330 243 CURVE SMOOTH",
"429 243 OFFCURVE",
"520 264 OFFCURVE",
"577 350 CURVE",
"579 350 LINE",
"566 150 OFFCURVE",
"488 63 OFFCURVE",
"360 63 CURVE SMOOTH",
"265 63 OFFCURVE",
"189 100 OFFCURVE",
"182 185 CURVE"
);
}
);
width = 740;
}
);
note = nine;
unicode = 0039;
},
{
glyphname = colon;
lastChange = "2023-01-03 16:47:02 +0000";
layers = (
{
hints = (
{
horizontal = 1;
place = "{0, 110}";
type = Stem;
},
{
horizontal = 1;
place = "{392, 21}";
target = up;
type = BottomGhost;
},
{
horizontal = 1;
place = "{502, -20}";
target = down;
type = TopGhost;
},
{
place = "{130, 110}";
type = Stem;
}
);
layerId = "6D1AFECB-6C65-4A9F-813E-BAE625DDDD1E";
paths = (
{
closed = 1;
nodes = (
"130 392 LINE",
"240 392 LINE",
"240 502 LINE",
"130 502 LINE"
);
},
{
closed = 1;
nodes = (
"130 0 LINE",
"240 0 LINE",
"240 110 LINE",
"130 110 LINE"
);
}
);
width = 370;
}
);
leftKerningGroup = colon;
note = colon;
unicode = 003A;
},
{
glyphname = semicolon;
lastChange = "2023-01-03 16:47:02 +0000";
layers = (
{
hints = (
{
horizontal = 1;
place = "{-104, 214}";
type = Stem;
},
{
horizontal = 1;
place = "{392, 21}";
target = up;
type = BottomGhost;
},
{
horizontal = 1;
place = "{502, -20}";
target = down;
type = TopGhost;
},
{
place = "{158, 110}";
type = Stem;
}
);
layerId = "6D1AFECB-6C65-4A9F-813E-BAE625DDDD1E";
paths = (
{
closed = 1;
nodes = (
"94 -104 LINE",
"176 -104 LINE",
"276 110 LINE",
"158 110 LINE"
);
},
{
closed = 1;
nodes = (
"158 392 LINE",
"268 392 LINE",
"268 502 LINE",
"158 502 LINE"
);
}
);
width = 370;
}
);
leftKerningGroup = semicolon;
note = semicolon;
unicode = 003B;
},
{
glyphname = less;
lastChange = "2023-01-03 16:52:48 +0000";
layers = (
{
hints = (
{
horizontal = 1;
place = "{-8, 21}";
target = up;
type = BottomGhost;
},
{
horizontal = 1;
place = "{514, -20}";
target = down;
type = TopGhost;
},
{
place = "{47, 506}";
type = Stem;
}
);
layerId = "6D1AFECB-6C65-4A9F-813E-BAE625DDDD1E";
paths = (
{
closed = 1;
nodes = (
"553 -8 LINE",
"553 80 LINE",
"553 253 LINE",
"553 426 LINE",
"553 514 LINE",
"47 253 LINE"
);
}
);
width = 600;
}
);
note = less;
unicode = 003C;
changeCount = 11;
},
{
glyphname = equal;
lastChange = "2023-01-03 16:47:02 +0000";
layers = (
{
hints = (
{
horizontal = 1;
place = "{104, 88}";
type = Stem;
},
{
horizontal = 1;
place = "{314, 88}";
type = Stem;
},
{
place = "{47, 506}";
type = Stem;
}
);
layerId = "6D1AFECB-6C65-4A9F-813E-BAE625DDDD1E";
paths = (
{
closed = 1;
nodes = (
"47 314 LINE",
"553 314 LINE",
"553 402 LINE",
"47 402 LINE"
);
},
{
closed = 1;
nodes = (
"47 104 LINE",
"553 104 LINE",
"553 192 LINE",
"47 192 LINE"
);
}
);
width = 600;
}
);
note = equal;
unicode = 003D;
},
{
glyphname = greater;
lastChange = "2023-01-03 16:53:07 +0000";
layers = (
{
hints = (
{
horizontal = 1;
place = "{-8, 21}";
target = up;
type = BottomGhost;
},
{
horizontal = 1;
place = "{514, -20}";
target = down;
type = TopGhost;
},
{
place = "{47, 506}";
type = Stem;
}
);
layerId = "6D1AFECB-6C65-4A9F-813E-BAE625DDDD1E";
paths = (
{
closed = 1;
nodes = (
"47 -8 LINE",
"553 253 LINE",
"47 514 LINE",
"47 426 LINE",
"47 268 LINE",
"47 80 LINE"
);
}
);
width = 600;
}
);
note = greater;
unicode = 003E;
changeCount = 4;
},
{
glyphname = question;
lastChange = "2023-01-03 16:47:02 +0000";
layers = (
{
hints = (
{
horizontal = 1;
place = "{0, 110}";
type = Stem;
},
{
horizontal = 1;
place = "{667, 74}";
type = Stem;
},
{
place = "{202, 110}";
type = Stem;
},
{
place = "{428, 104}";
type = Stem;
},
{
place = "{216, 82}";
type = Stem;
}
);
layerId = "6D1AFECB-6C65-4A9F-813E-BAE625DDDD1E";
paths = (
{
closed = 1;
nodes = (
"216 169 LINE",
"298 169 LINE",
"298 243 LINE SMOOTH",
"298 266 OFFCURVE",
"303 283 OFFCURVE",
"324 299 CURVE SMOOTH",
"413 370 LINE SMOOTH",
"505 444 OFFCURVE",
"532 494 OFFCURVE",
"532 555 CURVE SMOOTH",
"532 703 OFFCURVE",
"399 741 OFFCURVE",
"281 741 CURVE SMOOTH",
"222 741 OFFCURVE",
"153 731 OFFCURVE",
"93 722 CURVE",
"93 640 LINE",
"142 655 OFFCURVE",
"202 667 OFFCURVE",
"259 667 CURVE SMOOTH",
"367 667 OFFCURVE",
"428 628 OFFCURVE",
"428 553 CURVE SMOOTH",
"428 515 OFFCURVE",
"413 474 OFFCURVE",
"375 442 CURVE SMOOTH",
"263 347 LINE SMOOTH",
"231 319 OFFCURVE",
"216 292 OFFCURVE",
"216 258 CURVE SMOOTH"
);
},
{
closed = 1;
nodes = (
"202 0 LINE",
"312 0 LINE",
"312 110 LINE",
"202 110 LINE"
);
}
);
width = 593;
}
);
note = question;
unicode = 003F;
},
{
glyphname = at;
lastChange = "2023-01-03 16:47:02 +0000";
layers = (
{
hints = (
{
horizontal = 1;
place = "{-19, 74}";
type = Stem;
},
{
horizontal = 1;
place = "{154, 82}";
type = Stem;
},
{
horizontal = 1;
place = "{475, 82}";
type = Stem;
},
{
horizontal = 1;
place = "{667, 74}";
type = Stem;
},
{
place = "{20, 88}";
type = Stem;
},
{
place = "{198, 88}";
type = Stem;
},
{
place = "{706, 74}";
type = Stem;
}
);
layerId = "6D1AFECB-6C65-4A9F-813E-BAE625DDDD1E";
paths = (
{
closed = 1;
nodes = (
"497 326 OFFCURVE",
"441 236 OFFCURVE",
"366 236 CURVE SMOOTH",
"318 236 OFFCURVE",
"286 274 OFFCURVE",
"286 329 CURVE SMOOTH",
"286 383 OFFCURVE",
"323 475 OFFCURVE",
"419 475 CURVE SMOOTH",
"461 475 OFFCURVE",
"497 439 OFFCURVE",
"497 394 CURVE SMOOTH"
);
},
{
closed = 1;
nodes = (
"664 150 LINE",
"606 91 OFFCURVE",
"518 55 OFFCURVE",
"427 55 CURVE SMOOTH",
"230 55 OFFCURVE",
"108 180 OFFCURVE",
"108 359 CURVE SMOOTH",
"108 530 OFFCURVE",
"240 667 OFFCURVE",
"417 667 CURVE SMOOTH",
"577 667 OFFCURVE",
"706 575 OFFCURVE",
"706 412 CURVE SMOOTH",
"706 306 OFFCURVE",
"637 230 OFFCURVE",
"571 230 CURVE SMOOTH",
"547 230 OFFCURVE",
"542 243 OFFCURVE",
"542 254 CURVE SMOOTH",
"542 263 OFFCURVE",
"545 280 OFFCURVE",
"548 293 CURVE",
"616 543 LINE",
"542 543 LINE",
"526 489 LINE",
"500 537 OFFCURVE",
"458 557 OFFCURVE",
"412 557 CURVE SMOOTH",
"285 557 OFFCURVE",
"198 433 OFFCURVE",
"198 315 CURVE SMOOTH",
"198 218 OFFCURVE",
"263 154 OFFCURVE",
"333 154 CURVE SMOOTH",
"388 154 OFFCURVE",
"427 176 OFFCURVE",
"455 209 CURVE",
"457 209 LINE",
"460 172 OFFCURVE",
"485 154 OFFCURVE",
"517 154 CURVE SMOOTH",
"605 154 OFFCURVE",
"780 229 OFFCURVE",
"780 429 CURVE SMOOTH",
"780 615 OFFCURVE",
"609 741 OFFCURVE",
"424 741 CURVE SMOOTH",
"190 741 OFFCURVE",
"20 582 OFFCURVE",
"20 352 CURVE SMOOTH",
"20 132 OFFCURVE",
"181 -19 OFFCURVE",
"419 -19 CURVE SMOOTH",
"558 -19 OFFCURVE",
"673 42 OFFCURVE",
"746 150 CURVE"
);
}
);
width = 800;
}
);
note = at;
unicode = 0040;
},
{
glyphname = A;
lastChange = "2023-01-03 16:47:02 +0000";
layers = (
{
hints = (
{
horizontal = 1;
place = "{0, 21}";
target = up;
type = BottomGhost;
},
{
horizontal = 1;
place = "{188, 82}";
type = Stem;
},
{
horizontal = 1;
place = "{722, -20}";
target = down;
type = TopGhost;
},
{
place = "{12, 864}";
type = Stem;
},
{
horizontal = 1;
place = "{634, 88}";
type = Stem;
}
);
layerId = "6D1AFECB-6C65-4A9F-813E-BAE625DDDD1E";
paths = (
{
closed = 1;
nodes = (
"757 0 LINE",
"876 0 LINE",
"505 722 LINE",
"383 722 LINE",
"12 0 LINE",
"128 0 LINE",
"221 188 LINE",
"664 188 LINE"
);
},
{
closed = 1;
nodes = (
"263 270 LINE",
"444 634 LINE",
"624 270 LINE"
);
}
);
width = 888;
}
);
leftKerningGroup = A;
note = A;
rightKerningGroup = A;
unicode = 0041;
},
{
glyphname = B;
lastChange = "2023-01-03 16:47:02 +0000";
layers = (
{
hints = (
{
horizontal = 1;
place = "{0, 82}";
type = Stem;
},
{
horizontal = 1;
place = "{336, 82}";
type = Stem;
},
{
horizontal = 1;
place = "{640, 82}";
type = Stem;
},
{
place = "{96, 104}";
type = Stem;
},
{
place = "{606, 104}";
type = Stem;
},
{
place = "{627, 110}";
type = Stem;
}
);
layerId = "6D1AFECB-6C65-4A9F-813E-BAE625DDDD1E";
paths = (
{
closed = 1;
nodes = (
"96 0 LINE",
"462 0 LINE SMOOTH",
"658 0 OFFCURVE",
"737 93 OFFCURVE",
"737 201 CURVE SMOOTH",
"737 287 OFFCURVE",
"682 363 OFFCURVE",
"566 377 CURVE",
"566 380 LINE",
"659 398 OFFCURVE",
"710 448 OFFCURVE",
"710 540 CURVE SMOOTH",
"710 663 OFFCURVE",
"634 722 OFFCURVE",
"437 722 CURVE SMOOTH",
"96 722 LINE"
);
},
{
closed = 1;
nodes = (
"200 336 LINE",
"443 336 LINE SMOOTH",
"570 336 OFFCURVE",
"627 290 OFFCURVE",
"627 207 CURVE SMOOTH",
"627 137 OFFCURVE",
"590 82 OFFCURVE",
"449 82 CURVE SMOOTH",
"200 82 LINE"
);
},
{
closed = 1;
nodes = (
"200 640 LINE",
"431 640 LINE SMOOTH",
"573 640 OFFCURVE",
"606 595 OFFCURVE",
"606 528 CURVE SMOOTH",
"606 451 OFFCURVE",
"553 418 OFFCURVE",
"466 418 CURVE SMOOTH",
"200 418 LINE"
);
}
);
width = 814;
}
);
note = B;
rightKerningGroup = B;
unicode = 0042;
},
{
glyphname = C;
lastChange = "2023-01-03 16:47:02 +0000";
layers = (
{
hints = (
{
horizontal = 1;
place = "{-19, 82}";
type = Stem;
},
{
horizontal = 1;
place = "{659, 82}";
type = Stem;
},
{
place = "{94, 110}";
type = Stem;
}
);
layerId = "6D1AFECB-6C65-4A9F-813E-BAE625DDDD1E";
paths = (
{
closed = 1;
nodes = (
"705 201 LINE",
"687 107 OFFCURVE",
"591 63 OFFCURVE",
"492 63 CURVE SMOOTH",
"327 63 OFFCURVE",
"204 158 OFFCURVE",
"204 361 CURVE SMOOTH",
"204 564 OFFCURVE",
"327 659 OFFCURVE",
"492 659 CURVE SMOOTH",
"592 659 OFFCURVE",
"677 626 OFFCURVE",
"695 532 CURVE",
"811 532 LINE",
"802 655 OFFCURVE",
"671 741 OFFCURVE",
"500 741 CURVE SMOOTH",
"197 741 OFFCURVE",
"94 533 OFFCURVE",
"94 361 CURVE SMOOTH",
"94 162 OFFCURVE",
"213 -19 OFFCURVE",
"471 -19 CURVE SMOOTH",
"648 -19 OFFCURVE",
"798 42 OFFCURVE",
"821 201 CURVE"
);
}
);
width = 888;
}
);
leftKerningGroup = C;
note = C;
unicode = 0043;
},
{
glyphname = D;
lastChange = "2023-01-03 16:47:02 +0000";
layers = (
{
hints = (
{
horizontal = 1;
place = "{0, 82}";
type = Stem;
},
{
horizontal = 1;
place = "{640, 82}";
type = Stem;
},
{
place = "{102, 104}";
type = Stem;
},
{
place = "{703, 110}";
type = Stem;
}
);
layerId = "6D1AFECB-6C65-4A9F-813E-BAE625DDDD1E";
paths = (
{
closed = 1;
nodes = (
"206 640 LINE",
"377 640 LINE SMOOTH",
"619 640 OFFCURVE",
"703 548 OFFCURVE",
"703 361 CURVE SMOOTH",
"703 220 OFFCURVE",
"640 82 OFFCURVE",
"402 82 CURVE SMOOTH",
"206 82 LINE"
);
},
{
closed = 1;
nodes = (
"102 0 LINE",
"398 0 LINE SMOOTH",
"678 0 OFFCURVE",
"813 130 OFFCURVE",
"813 352 CURVE SMOOTH",
"813 588 OFFCURVE",
"704 722 OFFCURVE",
"383 722 CURVE SMOOTH",
"102 722 LINE"
);
}
);
width = 888;
}
);
note = D;
rightKerningGroup = D;
unicode = 0044;
},
{
glyphname = E;
lastChange = "2023-01-03 16:47:02 +0000";
layers = (
{
hints = (
{
horizontal = 1;
place = "{0, 82}";
type = Stem;
},
{
horizontal = 1;
place = "{330, 82}";
type = Stem;
},
{
horizontal = 1;
place = "{640, 82}";
type = Stem;
},
{
place = "{108, 104}";
type = Stem;
}
);
layerId = "6D1AFECB-6C65-4A9F-813E-BAE625DDDD1E";
paths = (
{
closed = 1;
nodes = (
"108 0 LINE",
"660 0 LINE",
"660 82 LINE",
"212 82 LINE",
"212 330 LINE",
"620 330 LINE",
"620 412 LINE",
"212 412 LINE",
"212 640 LINE",
"648 640 LINE",
"648 722 LINE",
"108 722 LINE"
);
}
);
width = 740;
}
);
note = E;
unicode = 0045;
},
{
glyphname = F;
lastChange = "2023-01-03 16:47:02 +0000";
layers = (
{
hints = (
{
horizontal = 1;
place = "{0, 21}";
target = up;
type = BottomGhost;
},
{
horizontal = 1;
place = "{322, 82}";
type = Stem;
},
{
horizontal = 1;
place = "{640, 82}";
type = Stem;
},
{
place = "{96, 104}";
type = Stem;
}
);
layerId = "6D1AFECB-6C65-4A9F-813E-BAE625DDDD1E";
paths = (
{
closed = 1;
nodes = (
"96 0 LINE",
"200 0 LINE",
"200 322 LINE",
"589 322 LINE",
"589 404 LINE",
"200 404 LINE",
"200 640 LINE",
"609 640 LINE",
"609 722 LINE",
"96 722 LINE"
);
}
);
width = 667;
}
);
note = F;
rightKerningGroup = F;
unicode = 0046;
},
{
glyphname = G;
lastChange = "2023-01-03 16:47:02 +0000";
layers = (
{
hints = (
{
horizontal = 1;
place = "{-19, 82}";
type = Stem;
},
{
horizontal = 1;
place = "{295, 82}";
type = Stem;
},
{
horizontal = 1;
place = "{659, 82}";
type = Stem;
},
{
place = "{84, 110}";
type = Stem;
},
{
place = "{754, 104}";
type = Stem;
}
);
layerId = "6D1AFECB-6C65-4A9F-813E-BAE625DDDD1E";
paths = (
{
closed = 1;
nodes = (
"523 295 LINE",
"754 295 LINE",
"754 109 LINE",
"684 81 OFFCURVE",
"593 63 OFFCURVE",
"514 63 CURVE SMOOTH",
"304 63 OFFCURVE",
"194 203 OFFCURVE",
"194 362 CURVE SMOOTH",
"194 526 OFFCURVE",
"303 659 OFFCURVE",
"506 659 CURVE SMOOTH",
"623 659 OFFCURVE",
"716 627 OFFCURVE",
"741 535 CURVE",
"851 535 LINE",
"827 682 OFFCURVE",
"699 741 OFFCURVE",
"496 741 CURVE SMOOTH",
"197 741 OFFCURVE",
"84 542 OFFCURVE",
"84 361 CURVE SMOOTH",
"84 158 OFFCURVE",
"217 -19 OFFCURVE",
"510 -19 CURVE SMOOTH",
"623 -19 OFFCURVE",
"737 1 OFFCURVE",
"858 51 CURVE",
"858 377 LINE",
"523 377 LINE"
);
}
);
width = 962;
}
);
leftKerningGroup = G;
note = G;
rightKerningGroup = G;
unicode = 0047;
},
{
glyphname = H;
lastChange = "2023-01-03 16:47:02 +0000";
layers = (
{
hints = (
{
horizontal = 1;
place = "{0, 21}";
target = up;
type = BottomGhost;
},
{
horizontal = 1;
place = "{336, 82}";
type = Stem;
},
{
horizontal = 1;
place = "{722, -20}";
target = down;
type = TopGhost;
},
{
place = "{108, 104}";
type = Stem;
},
{
place = "{676, 104}";
type = Stem;
}
);
layerId = "6D1AFECB-6C65-4A9F-813E-BAE625DDDD1E";
paths = (
{
closed = 1;
nodes = (
"676 0 LINE",
"780 0 LINE",
"780 722 LINE",
"676 722 LINE",
"676 418 LINE",
"212 418 LINE",
"212 722 LINE",
"108 722 LINE",
"108 0 LINE",
"212 0 LINE",
"212 336 LINE",
"676 336 LINE"
);
}
);
width = 888;
}
);
note = H;
unicode = 0048;
},
{
glyphname = I;
lastChange = "2023-01-03 16:47:02 +0000";
layers = (
{
hints = (
{
horizontal = 1;
place = "{0, 21}";
target = up;
type = BottomGhost;
},
{
horizontal = 1;
place = "{722, -20}";
target = down;
type = TopGhost;
},
{
place = "{96, 104}";
type = Stem;
}
);
layerId = "6D1AFECB-6C65-4A9F-813E-BAE625DDDD1E";
paths = (
{
closed = 1;
nodes = (
"96 0 LINE",
"200 0 LINE",
"200 722 LINE",
"96 722 LINE"
);
}
);
width = 296;
}
);
note = I;
unicode = 0049;
},
{
glyphname = J;
lastChange = "2023-01-03 16:47:02 +0000";
layers = (
{
hints = (
{
horizontal = 1;
place = "{-19, 82}";
type = Stem;
},
{
horizontal = 1;
place = "{722, -20}";
target = down;
type = TopGhost;
},
{
place = "{528, 104}";
type = Stem;
}
);
layerId = "6D1AFECB-6C65-4A9F-813E-BAE625DDDD1E";
paths = (
{
closed = 1;
nodes = (
"528 272 LINE SMOOTH",
"528 124 OFFCURVE",
"452 63 OFFCURVE",
"331 63 CURVE SMOOTH",
"233 63 OFFCURVE",
"157 102 OFFCURVE",
"154 205 CURVE",
"44 205 LINE",
"47 52 OFFCURVE",
"175 -19 OFFCURVE",
"322 -19 CURVE SMOOTH",
"510 -19 OFFCURVE",
"632 58 OFFCURVE",
"632 264 CURVE SMOOTH",
"632 722 LINE",
"528 722 LINE"
);
}
);
width = 740;
}
);
note = J;
rightKerningGroup = J;
unicode = 004A;
},
{
glyphname = K;
lastChange = "2023-01-03 16:47:02 +0000";
layers = (
{
hints = (
{
horizontal = 1;
place = "{0, 21}";
target = up;
type = BottomGhost;
},
{
horizontal = 1;
place = "{396, 21}";
target = up;
type = BottomGhost;
},
{
horizontal = 1;
place = "{722, -20}";
target = down;
type = TopGhost;
},
{
place = "{121, 104}";
type = Stem;
},
{
horizontal = 1;
place = "{387, 21}";
target = up;
type = BottomGhost;
}
);
layerId = "6D1AFECB-6C65-4A9F-813E-BAE625DDDD1E";
paths = (
{
closed = 1;
nodes = (
"121 0 LINE",
"225 0 LINE",
"225 387 LINE",
"647 0 LINE",
"799 0 LINE",
"355 396 LINE",
"765 722 LINE",
"613 722 LINE",
"225 399 LINE",
"225 722 LINE",
"121 722 LINE"
);
}
);
width = 814;
}
);
note = K;
rightKerningGroup = K;
unicode = 004B;
},
{
glyphname = L;
lastChange = "2023-01-03 16:47:02 +0000";
layers = (
{
hints = (
{
horizontal = 1;
place = "{0, 82}";
type = Stem;
},
{
horizontal = 1;
place = "{722, -20}";
target = down;
type = TopGhost;
},
{
place = "{121, 104}";
type = Stem;
}
);
layerId = "6D1AFECB-6C65-4A9F-813E-BAE625DDDD1E";
paths = (
{
closed = 1;
nodes = (
"121 0 LINE",
"641 0 LINE",
"641 82 LINE",
"225 82 LINE",
"225 722 LINE",
"121 722 LINE"
);
}
);
width = 667;
}
);
note = L;
rightKerningGroup = L;
unicode = 004C;
},
{
glyphname = M;
lastChange = "2023-01-03 16:47:02 +0000";
layers = (
{
hints = (
{
horizontal = 1;
place = "{0, 21}";
target = up;
type = BottomGhost;
},
{
horizontal = 1;
place = "{648, 74}";
type = Stem;
},
{
place = "{108, 104}";
type = Stem;
},
{
place = "{972, 104}";
type = Stem;
},
{
horizontal = 1;
place = "{0, 88}";
type = Stem;
}
);
layerId = "6D1AFECB-6C65-4A9F-813E-BAE625DDDD1E";
paths = (
{
closed = 1;
nodes = (
"537 0 LINE",
"647 0 LINE",
"970 648 LINE",
"972 648 LINE",
"972 0 LINE",
"1076 0 LINE",
"1076 722 LINE",
"910 722 LINE",
"592 88 LINE",
"274 722 LINE",
"108 722 LINE",
"108 0 LINE",
"212 0 LINE",
"212 648 LINE",
"214 648 LINE"
);
}
);
width = 1184;
}
);
note = M;
unicode = 004D;
},
{
glyphname = N;
lastChange = "2023-01-03 16:47:02 +0000";
layers = (
{
hints = (
{
horizontal = 1;
place = "{0, 21}";
target = up;
type = BottomGhost;
},
{
horizontal = 1;
place = "{722, -20}";
target = down;
type = TopGhost;
},
{
place = "{99, 104}";
type = Stem;
},
{
place = "{685, 104}";
type = Stem;
},
{
horizontal = 1;
place = "{0, 106}";
type = Stem;
},
{
horizontal = 1;
place = "{616, 106}";
type = Stem;
}
);
layerId = "6D1AFECB-6C65-4A9F-813E-BAE625DDDD1E";
paths = (
{
closed = 1;
nodes = (
"685 106 LINE",
"683 106 LINE",
"241 722 LINE",
"99 722 LINE",
"99 0 LINE",
"203 0 LINE",
"203 616 LINE",
"205 616 LINE",
"647 0 LINE",
"789 0 LINE",
"789 722 LINE",
"685 722 LINE"
);
}
);
width = 888;
}
);
note = N;
rightKerningGroup = N;
unicode = 004E;
},
{
glyphname = O;
lastChange = "2023-01-03 16:47:02 +0000";
layers = (
{
hints = (
{
horizontal = 1;
place = "{-19, 82}";
type = Stem;
},
{
horizontal = 1;
place = "{659, 82}";
type = Stem;
},
{
place = "{75, 110}";
type = Stem;
},
{
place = "{777, 110}";
type = Stem;
}
);
layerId = "6D1AFECB-6C65-4A9F-813E-BAE625DDDD1E";
paths = (
{
closed = 1;
nodes = (
"75 189 OFFCURVE",
"178 -19 OFFCURVE",
"481 -19 CURVE SMOOTH",
"784 -19 OFFCURVE",
"887 189 OFFCURVE",
"887 361 CURVE SMOOTH",
"887 533 OFFCURVE",
"784 741 OFFCURVE",
"481 741 CURVE SMOOTH",
"178 741 OFFCURVE",
"75 533 OFFCURVE",
"75 361 CURVE SMOOTH"
);
},
{
closed = 1;
nodes = (
"185 539 OFFCURVE",
"306 659 OFFCURVE",
"481 659 CURVE SMOOTH",
"656 659 OFFCURVE",
"777 539 OFFCURVE",
"777 361 CURVE SMOOTH",
"777 183 OFFCURVE",
"656 63 OFFCURVE",
"481 63 CURVE SMOOTH",
"306 63 OFFCURVE",
"185 183 OFFCURVE",
"185 361 CURVE SMOOTH"
);
}
);
width = 962;
}
);
leftKerningGroup = O;
note = O;
rightKerningGroup = O;
unicode = 004F;
},
{
glyphname = P;
lastChange = "2023-01-03 16:47:02 +0000";
layers = (
{
hints = (
{
horizontal = 1;
place = "{0, 21}";
target = up;
type = BottomGhost;
},
{
horizontal = 1;
place = "{317, 82}";
type = Stem;
},
{
horizontal = 1;
place = "{640, 82}";
type = Stem;
},
{
place = "{121, 104}";
type = Stem;
},
{
place = "{633, 110}";
type = Stem;
}
);
layerId = "6D1AFECB-6C65-4A9F-813E-BAE625DDDD1E";
paths = (
{
closed = 1;
nodes = (
"225 399 LINE",
"225 640 LINE",
"451 640 LINE SMOOTH",
"588 640 OFFCURVE",
"633 605 OFFCURVE",
"633 527 CURVE SMOOTH",
"633 441 OFFCURVE",
"579 399 OFFCURVE",
"459 399 CURVE SMOOTH"
);
},
{
closed = 1;
nodes = (
"121 0 LINE",
"225 0 LINE",
"225 317 LINE",
"485 317 LINE SMOOTH",
"660 317 OFFCURVE",
"743 401 OFFCURVE",
"743 527 CURVE SMOOTH",
"743 657 OFFCURVE",
"670 722 OFFCURVE",
"453 722 CURVE SMOOTH",
"121 722 LINE"
);
}
);
width = 814;
}
);
note = P;
rightKerningGroup = P;
unicode = 0050;
},
{
glyphname = Q;
lastChange = "2023-01-03 16:47:02 +0000";
layers = (
{
hints = (
{
horizontal = 1;
place = "{0, 82}";
type = Stem;
},
{
horizontal = 1;
place = "{659, 82}";
type = Stem;
},
{
place = "{75, 110}";
type = Stem;
},
{
place = "{777, 110}";
type = Stem;
},
{
horizontal = 1;
place = "{-19, 82}";
type = Stem;
}
);
layerId = "6D1AFECB-6C65-4A9F-813E-BAE625DDDD1E";
paths = (
{
closed = 1;
nodes = (
"754 82 LINE",
"754 84 LINE",
"844 156 OFFCURVE",
"887 264 OFFCURVE",
"887 361 CURVE SMOOTH",
"887 533 OFFCURVE",
"784 741 OFFCURVE",
"481 741 CURVE SMOOTH",
"178 741 OFFCURVE",
"75 533 OFFCURVE",
"75 361 CURVE SMOOTH",
"75 189 OFFCURVE",
"178 -19 OFFCURVE",
"481 -19 CURVE SMOOTH",
"508 -19 OFFCURVE",
"534 -17 OFFCURVE",
"558 -14 CURVE SMOOTH",
"582 -11 OFFCURVE",
"604 -6 OFFCURVE",
"625 0 CURVE",
"954 0 LINE",
"954 82 LINE"
);
},
{
closed = 1;
nodes = (
"185 539 OFFCURVE",
"306 659 OFFCURVE",
"481 659 CURVE SMOOTH",
"656 659 OFFCURVE",
"777 539 OFFCURVE",
"777 361 CURVE SMOOTH",
"777 183 OFFCURVE",
"656 63 OFFCURVE",
"481 63 CURVE SMOOTH",
"306 63 OFFCURVE",
"185 183 OFFCURVE",
"185 361 CURVE SMOOTH"
);
}
);
width = 962;
}
);
leftKerningGroup = Q;
note = Q;
unicode = 0051;
},
{
glyphname = R;
lastChange = "2023-01-03 16:47:02 +0000";
layers = (
{
hints = (
{
horizontal = 1;
place = "{0, 21}";
target = up;
type = BottomGhost;
},
{
horizontal = 1;
place = "{322, 82}";
type = Stem;
},
{
horizontal = 1;
place = "{640, 82}";
type = Stem;
},
{
place = "{96, 104}";
type = Stem;
},
{
place = "{614, 110}";
type = Stem;
}
);
layerId = "6D1AFECB-6C65-4A9F-813E-BAE625DDDD1E";
paths = (
{
closed = 1;
nodes = (
"200 322 LINE",
"401 322 LINE SMOOTH",
"537 322 OFFCURVE",
"571 285 OFFCURVE",
"583 233 CURVE SMOOTH",
"602 152 OFFCURVE",
"613 51 OFFCURVE",
"632 0 CURVE",
"742 0 LINE",
"722 47 OFFCURVE",
"713 111 OFFCURVE",
"701 188 CURVE SMOOTH",
"682 310 OFFCURVE",
"656 349 OFFCURVE",
"559 361 CURVE",
"559 363 LINE",
"660 377 OFFCURVE",
"724 443 OFFCURVE",
"724 531 CURVE SMOOTH",
"724 647 OFFCURVE",
"674 722 OFFCURVE",
"451 722 CURVE SMOOTH",
"96 722 LINE",
"96 0 LINE",
"200 0 LINE"
);
},
{
closed = 1;
nodes = (
"200 640 LINE",
"439 640 LINE SMOOTH",
"566 640 OFFCURVE",
"614 610 OFFCURVE",
"614 522 CURVE SMOOTH",
"614 430 OFFCURVE",
"547 404 OFFCURVE",
"437 404 CURVE SMOOTH",
"200 404 LINE"
);
}
);
width = 814;
}
);
note = R;
rightKerningGroup = R;
unicode = 0052;
},
{
glyphname = S;
lastChange = "2023-01-03 16:47:02 +0000";
layers = (
{
hints = (
{
horizontal = 1;
place = "{-19, 82}";
type = Stem;
},
{
horizontal = 1;
place = "{659, 82}";
type = Stem;
},
{
place = "{90, 104}";
type = Stem;
},
{
place = "{643, 104}";
type = Stem;
}
);
layerId = "6D1AFECB-6C65-4A9F-813E-BAE625DDDD1E";
paths = (
{
closed = 1;
nodes = (
"724 530 LINE",
"714 696 OFFCURVE",
"555 741 OFFCURVE",
"405 741 CURVE SMOOTH",
"208 741 OFFCURVE",
"90 661 OFFCURVE",
"90 522 CURVE SMOOTH",
"90 220 OFFCURVE",
"643 401 OFFCURVE",
"643 201 CURVE SMOOTH",
"643 122 OFFCURVE",
"560 63 OFFCURVE",
"410 63 CURVE SMOOTH",
"273 63 OFFCURVE",
"180 119 OFFCURVE",
"177 216 CURVE",
"67 216 LINE",
"80 57 OFFCURVE",
"199 -19 OFFCURVE",
"404 -19 CURVE SMOOTH",
"618 -19 OFFCURVE",
"747 68 OFFCURVE",
"747 212 CURVE SMOOTH",
"747 301 OFFCURVE",
"693 368 OFFCURVE",
"576 388 CURVE SMOOTH",
"307 434 LINE SMOOTH",
"218 449 OFFCURVE",
"194 489 OFFCURVE",
"194 528 CURVE SMOOTH",
"194 608 OFFCURVE",
"281 659 OFFCURVE",
"384 659 CURVE SMOOTH",
"501 659 OFFCURVE",
"604 631 OFFCURVE",
"614 530 CURVE"
);
}
);
width = 814;
}
);
note = S;
rightKerningGroup = S;
unicode = 0053;
},
{
glyphname = T;
lastChange = "2023-01-03 16:47:02 +0000";
layers = (
{
hints = (
{
horizontal = 1;
place = "{0, 21}";
target = up;
type = BottomGhost;
},
{
horizontal = 1;
place = "{634, 88}";
type = Stem;
},
{
place = "{318, 104}";
type = Stem;
}
);
layerId = "6D1AFECB-6C65-4A9F-813E-BAE625DDDD1E";
paths = (
{
closed = 1;
nodes = (
"318 0 LINE",
"422 0 LINE",
"422 634 LINE",
"728 634 LINE",
"728 722 LINE",
"12 722 LINE",
"12 634 LINE",
"318 634 LINE"
);
}
);
width = 740;
}
);
leftKerningGroup = T;
note = T;
rightKerningGroup = T;
unicode = 0054;
},
{
glyphname = U;
lastChange = "2023-01-03 16:47:02 +0000";
layers = (
{
hints = (
{
horizontal = 1;
place = "{-19, 82}";
type = Stem;
},
{
horizontal = 1;
place = "{722, -20}";
target = down;
type = TopGhost;
},
{
place = "{108, 104}";
type = Stem;
},
{
place = "{676, 104}";
type = Stem;
}
);
layerId = "6D1AFECB-6C65-4A9F-813E-BAE625DDDD1E";
paths = (
{
closed = 1;
nodes = (
"676 286 LINE SMOOTH",
"676 148 OFFCURVE",
"593 63 OFFCURVE",
"444 63 CURVE SMOOTH",
"295 63 OFFCURVE",
"212 148 OFFCURVE",
"212 286 CURVE SMOOTH",
"212 722 LINE",
"108 722 LINE",
"108 291 LINE SMOOTH",
"108 85 OFFCURVE",
"248 -19 OFFCURVE",
"444 -19 CURVE SMOOTH",
"640 -19 OFFCURVE",
"780 85 OFFCURVE",
"780 291 CURVE SMOOTH",
"780 722 LINE",
"676 722 LINE"
);
}
);
width = 888;
}
);
leftKerningGroup = U;
note = U;
rightKerningGroup = U;
unicode = 0055;
},
{
glyphname = V;
lastChange = "2023-01-03 16:47:02 +0000";
layers = (
{
hints = (
{
horizontal = 1;
place = "{0, 21}";
target = up;
type = BottomGhost;
},
{
horizontal = 1;
place = "{722, -20}";
target = down;
type = TopGhost;
},
{
place = "{12, 790}";
type = Stem;
},
{
horizontal = 1;
place = "{0, 88}";
type = Stem;
}
);
layerId = "6D1AFECB-6C65-4A9F-813E-BAE625DDDD1E";
paths = (
{
closed = 1;
nodes = (
"343 0 LINE",
"470 0 LINE",
"802 722 LINE",
"692 722 LINE",
"410 88 LINE",
"127 722 LINE",
"12 722 LINE"
);
}
);
width = 814;
}
);
leftKerningGroup = V;
note = V;
rightKerningGroup = V;
unicode = 0056;
},
{
glyphname = W;
lastChange = "2023-01-03 16:47:02 +0000";
layers = (
{
hints = (
{
horizontal = 1;
place = "{0, 88}";
type = Stem;
},
{
horizontal = 1;
place = "{722, -20}";
target = down;
type = TopGhost;
},
{
place = "{12, 1234}";
type = Stem;
},
{
horizontal = 1;
place = "{634, 88}";
type = Stem;
}
);
layerId = "6D1AFECB-6C65-4A9F-813E-BAE625DDDD1E";
paths = (
{
closed = 1;
nodes = (
"923 88 LINE",
"921 88 LINE",
"699 722 LINE",
"559 722 LINE",
"337 88 LINE",
"335 88 LINE",
"122 722 LINE",
"12 722 LINE",
"263 0 LINE",
"407 0 LINE",
"628 634 LINE",
"630 634 LINE",
"851 0 LINE",
"995 0 LINE",
"1246 722 LINE",
"1136 722 LINE"
);
}
);
width = 1258;
}
);
leftKerningGroup = W;
note = W;
rightKerningGroup = W;
unicode = 0057;
},
{
glyphname = X;
lastChange = "2023-01-03 16:47:02 +0000";
layers = (
{
hints = (
{
horizontal = 1;
place = "{0, 21}";
target = up;
type = BottomGhost;
},
{
horizontal = 1;
place = "{722, -20}";
target = down;
type = TopGhost;
},
{
place = "{12, 790}";
type = Stem;
}
);
layerId = "6D1AFECB-6C65-4A9F-813E-BAE625DDDD1E";
paths = (
{
closed = 1;
nodes = (
"662 0 LINE",
"802 0 LINE",
"478 375 LINE",
"783 722 LINE",
"655 722 LINE",
"414 436 LINE",
"184 722 LINE",
"44 722 LINE",
"341 375 LINE",
"12 0 LINE",
"152 0 LINE",
"408 311 LINE"
);
}
);
width = 814;
}
);
leftKerningGroup = X;
note = X;
unicode = 0058;
},
{
glyphname = Y;
lastChange = "2023-01-03 16:47:02 +0000";
layers = (
{
hints = (
{
horizontal = 1;
place = "{0, 21}";
target = up;
type = BottomGhost;
},
{
horizontal = 1;
place = "{722, -20}";
target = down;
type = TopGhost;
},
{
place = "{355, 104}";
type = Stem;
}
);
layerId = "6D1AFECB-6C65-4A9F-813E-BAE625DDDD1E";
paths = (
{
closed = 1;
nodes = (
"459 0 LINE",
"459 301 LINE",
"802 722 LINE",
"668 722 LINE",
"407 387 LINE",
"146 722 LINE",
"12 722 LINE",
"355 301 LINE",
"355 0 LINE"
);
}
);
width = 814;
}
);
leftKerningGroup = Y;
note = Y;
rightKerningGroup = Y;
unicode = 0059;
},
{
glyphname = Z;
lastChange = "2023-01-03 16:47:02 +0000";
layers = (
{
hints = (
{
horizontal = 1;
place = "{0, 82}";
type = Stem;
},
{
horizontal = 1;
place = "{640, 82}";
type = Stem;
},
{
place = "{36, 668}";
type = Stem;
}
);
layerId = "6D1AFECB-6C65-4A9F-813E-BAE625DDDD1E";
paths = (
{
closed = 1;
nodes = (
"36 0 LINE",
"704 0 LINE",
"704 82 LINE",
"164 82 LINE",
"688 612 LINE",
"688 722 LINE",
"58 722 LINE",
"58 640 LINE",
"578 640 LINE",
"36 94 LINE"
);
}
);
width = 740;
}
);
note = Z;
unicode = 005A;
},
{
glyphname = bracketleft;
lastChange = "2023-01-03 16:47:02 +0000";
layers = (
{
hints = (
{
horizontal = 1;
place = "{-137, 58}";
type = Stem;
},
{
horizontal = 1;
place = "{683, 58}";
type = Stem;
},
{
place = "{116, 88}";
type = Stem;
}
);
layerId = "6D1AFECB-6C65-4A9F-813E-BAE625DDDD1E";
paths = (
{
closed = 1;
nodes = (
"116 -137 LINE",
"324 -137 LINE",
"324 -79 LINE",
"204 -79 LINE",
"204 683 LINE",
"324 683 LINE",
"324 741 LINE",
"116 741 LINE"
);
}
);
width = 370;
}
);
note = bracketleft;
unicode = 005B;
},
{
glyphname = backslash;
lastChange = "2023-01-03 16:47:02 +0000";
layers = (
{
hints = (
{
horizontal = 1;
place = "{-19, 21}";
target = up;
type = BottomGhost;
},
{
horizontal = 1;
place = "{741, -20}";
target = down;
type = TopGhost;
},
{
place = "{11, 422}";
type = Stem;
}
);
layerId = "6D1AFECB-6C65-4A9F-813E-BAE625DDDD1E";
paths = (
{
closed = 1;
nodes = (
"335 -19 LINE",
"433 -19 LINE",
"109 741 LINE",
"11 741 LINE"
);
}
);
width = 444;
}
);
note = backslash;
unicode = 005C;
},
{
glyphname = bracketright;
lastChange = "2023-01-03 16:47:02 +0000";
layers = (
{
hints = (
{
horizontal = 1;
place = "{-137, 58}";
type = Stem;
},
{
horizontal = 1;
place = "{683, 58}";
type = Stem;
},
{
place = "{166, 88}";
type = Stem;
}
);
layerId = "6D1AFECB-6C65-4A9F-813E-BAE625DDDD1E";
paths = (
{
closed = 1;
nodes = (
"46 -137 LINE",
"254 -137 LINE",
"254 741 LINE",
"46 741 LINE",
"46 683 LINE",
"166 683 LINE",
"166 -79 LINE",
"46 -79 LINE"
);
}
);
width = 370;
}
);
note = bracketright;
unicode = 005D;
},
{
glyphname = asciicircum;
lastChange = "2023-01-03 16:47:02 +0000";
layers = (
{
hints = (
{
horizontal = 1;
place = "{692, -20}";
target = down;
type = TopGhost;
},
{
place = "{60, 480}";
type = Stem;
},
{
horizontal = 1;
place = "{604, 88}";
type = Stem;
}
);
layerId = "6D1AFECB-6C65-4A9F-813E-BAE625DDDD1E";
paths = (
{
closed = 1;
nodes = (
"148 288 LINE",
"300 604 LINE",
"452 288 LINE",
"540 288 LINE",
"341 692 LINE",
"259 692 LINE",
"60 288 LINE"
);
}
);
width = 600;
}
);
note = asciicircum;
unicode = 005E;
},
{
glyphname = underscore;
lastChange = "2023-01-03 16:47:02 +0000";
layers = (
{
hints = (
{
horizontal = 1;
place = "{-125, 50}";
type = Stem;
},
{
place = "{0, 500}";
type = Stem;
}
);
layerId = "6D1AFECB-6C65-4A9F-813E-BAE625DDDD1E";
paths = (
{
closed = 1;
nodes = (
"0 -125 LINE",
"500 -125 LINE",
"500 -75 LINE",
"0 -75 LINE"
);
}
);
width = 500;
}
);
note = underscore;
unicode = 005F;
},
{
glyphname = quoteleft;
lastChange = "2023-01-03 16:47:02 +0000";
layers = (
{
hints = (
{
horizontal = 1;
place = "{508, 214}";
type = Stem;
},
{
place = "{94, 182}";
type = Stem;
}
);
layerId = "6D1AFECB-6C65-4A9F-813E-BAE625DDDD1E";
paths = (
{
closed = 1;
nodes = (
"94 508 LINE",
"210 508 LINE",
"276 722 LINE",
"194 722 LINE"
);
}
);
width = 370;
}
);
note = quoteleft;
rightKerningGroup = quoteleft;
unicode = 2018;
},
{
glyphname = a;
lastChange = "2023-01-03 16:47:02 +0000";
layers = (
{
hints = (
{
horizontal = 1;
place = "{-19, 68}";
type = Stem;
},
{
horizontal = 1;
place = "{245, 68}";
type = Stem;
},
{
horizontal = 1;
place = "{453, 68}";
type = Stem;
},
{
place = "{56, 104}";
type = Stem;
},
{
place = "{485, 98}";
type = Stem;
},
{
horizontal = 1;
place = "{0, 21}";
target = up;
type = BottomGhost;
}
);
layerId = "6D1AFECB-6C65-4A9F-813E-BAE625DDDD1E";
paths = (
{
closed = 1;
nodes = (
"196 371 LINE",
"201 426 OFFCURVE",
"259 453 OFFCURVE",
"328 453 CURVE SMOOTH",
"425 453 OFFCURVE",
"485 423 OFFCURVE",
"485 327 CURVE SMOOTH",
"485 313 LINE",
"439 313 OFFCURVE",
"388 313 OFFCURVE",
"314 311 CURVE SMOOTH",
"136 306 OFFCURVE",
"56 251 OFFCURVE",
"56 145 CURVE SMOOTH",
"56 51 OFFCURVE",
"143 -19 OFFCURVE",
"270 -19 CURVE SMOOTH",
"368 -19 OFFCURVE",
"432 -5 OFFCURVE",
"489 70 CURVE",
"491 70 LINE",
"491 47 OFFCURVE",
"492 23 OFFCURVE",
"495 0 CURVE",
"587 0 LINE",
"584 27 OFFCURVE",
"583 58 OFFCURVE",
"583 96 CURVE SMOOTH",
"583 343 LINE SMOOTH",
"583 468 OFFCURVE",
"481 521 OFFCURVE",
"342 521 CURVE SMOOTH",
"233 521 OFFCURVE",
"104 490 OFFCURVE",
"92 371 CURVE"
);
},
{
closed = 1;
nodes = (
"485 222 LINE SMOOTH",
"485 101 OFFCURVE",
"417 49 OFFCURVE",
"296 49 CURVE SMOOTH",
"201 49 OFFCURVE",
"160 98 OFFCURVE",
"160 148 CURVE SMOOTH",
"160 221 OFFCURVE",
"227 238 OFFCURVE",
"329 242 CURVE SMOOTH",
"404 245 OFFCURVE",
"452 245 OFFCURVE",
"485 245 CURVE"
);
}
);
width = 666;
}
);
leftKerningGroup = a;
note = a;
rightKerningGroup = a;
unicode = 0061;
},
{
glyphname = b;
lastChange = "2023-01-03 16:47:02 +0000";
layers = (
{
hints = (
{
horizontal = 1;
place = "{-19, 68}";
type = Stem;
},
{
horizontal = 1;
place = "{453, 68}";
type = Stem;
},
{
horizontal = 1;
place = "{722, -20}";
target = down;
type = TopGhost;
},
{
place = "{86, 98}";
type = Stem;
},
{
place = "{580, 104}";
type = Stem;
},
{
horizontal = 1;
place = "{0, 21}";
target = up;
type = BottomGhost;
}
);
layerId = "6D1AFECB-6C65-4A9F-813E-BAE625DDDD1E";
paths = (
{
closed = 1;
nodes = (
"86 118 LINE SMOOTH",
"86 84 OFFCURVE",
"84 41 OFFCURVE",
"82 0 CURVE",
"180 0 LINE",
"182 21 OFFCURVE",
"184 47 OFFCURVE",
"184 71 CURVE",
"235 13 OFFCURVE",
"315 -19 OFFCURVE",
"404 -19 CURVE SMOOTH",
"554 -19 OFFCURVE",
"684 88 OFFCURVE",
"684 251 CURVE SMOOTH",
"684 414 OFFCURVE",
"554 521 OFFCURVE",
"404 521 CURVE SMOOTH",
"324 521 OFFCURVE",
"246 502 OFFCURVE",
"184 436 CURVE",
"184 722 LINE",
"86 722 LINE"
);
},
{
closed = 1;
nodes = (
"184 378 OFFCURVE",
"266 453 OFFCURVE",
"382 453 CURVE SMOOTH",
"499 453 OFFCURVE",
"580 378 OFFCURVE",
"580 251 CURVE SMOOTH",
"580 124 OFFCURVE",
"499 49 OFFCURVE",
"382 49 CURVE SMOOTH",
"266 49 OFFCURVE",
"184 124 OFFCURVE",
"184 251 CURVE SMOOTH"
);
}
);
width = 740;
}
);
leftKerningGroup = b;
note = b;
rightKerningGroup = b;
unicode = 0062;
},
{
glyphname = c;
lastChange = "2023-01-03 16:47:02 +0000";
layers = (
{
hints = (
{
horizontal = 1;
place = "{-19, 68}";
type = Stem;
},
{
horizontal = 1;
place = "{453, 68}";
type = Stem;
},
{
place = "{56, 104}";
type = Stem;
}
);
layerId = "6D1AFECB-6C65-4A9F-813E-BAE625DDDD1E";
paths = (
{
closed = 1;
nodes = (
"506 162 LINE",
"501 92 OFFCURVE",
"439 49 OFFCURVE",
"347 49 CURVE SMOOTH",
"223 49 OFFCURVE",
"160 143 OFFCURVE",
"160 250 CURVE SMOOTH",
"160 384 OFFCURVE",
"246 453 OFFCURVE",
"352 453 CURVE SMOOTH",
"434 453 OFFCURVE",
"493 415 OFFCURVE",
"502 342 CURVE",
"606 342 LINE",
"589 473 OFFCURVE",
"472 521 OFFCURVE",
"351 521 CURVE SMOOTH",
"170 521 OFFCURVE",
"56 419 OFFCURVE",
"56 250 CURVE SMOOTH",
"56 88 OFFCURVE",
"155 -19 OFFCURVE",
"342 -19 CURVE SMOOTH",
"470 -19 OFFCURVE",
"600 35 OFFCURVE",
"610 162 CURVE"
);
}
);
width = 666;
}
);
leftKerningGroup = c;
note = c;
rightKerningGroup = c;
unicode = 0063;
},
{
glyphname = d;
lastChange = "2023-01-03 16:47:02 +0000";
layers = (
{
hints = (
{
horizontal = 1;
place = "{-19, 68}";
type = Stem;
},
{
horizontal = 1;
place = "{453, 68}";
type = Stem;
},
{
horizontal = 1;
place = "{722, -20}";
target = down;
type = TopGhost;
},
{
place = "{56, 104}";
type = Stem;
},
{
place = "{556, 98}";
type = Stem;
},
{
horizontal = 1;
place = "{0, 21}";
target = up;
type = BottomGhost;
}
);
layerId = "6D1AFECB-6C65-4A9F-813E-BAE625DDDD1E";
paths = (
{
closed = 1;
nodes = (
"556 436 LINE",
"494 502 OFFCURVE",
"416 521 OFFCURVE",
"336 521 CURVE SMOOTH",
"186 521 OFFCURVE",
"56 414 OFFCURVE",
"56 251 CURVE SMOOTH",
"56 88 OFFCURVE",
"186 -19 OFFCURVE",
"336 -19 CURVE SMOOTH",
"425 -19 OFFCURVE",
"505 13 OFFCURVE",
"556 71 CURVE",
"556 44 OFFCURVE",
"558 21 OFFCURVE",
"560 0 CURVE",
"658 0 LINE",
"656 41 OFFCURVE",
"654 84 OFFCURVE",
"654 118 CURVE SMOOTH",
"654 722 LINE",
"556 722 LINE"
);
},
{
closed = 1;
nodes = (
"160 378 OFFCURVE",
"241 453 OFFCURVE",
"358 453 CURVE SMOOTH",
"474 453 OFFCURVE",
"556 378 OFFCURVE",
"556 251 CURVE SMOOTH",
"556 124 OFFCURVE",
"474 49 OFFCURVE",
"358 49 CURVE SMOOTH",
"241 49 OFFCURVE",
"160 124 OFFCURVE",
"160 251 CURVE SMOOTH"
);
}
);
width = 740;
}
);
leftKerningGroup = d;
note = d;
rightKerningGroup = d;
unicode = 0064;
},
{
glyphname = e;
lastChange = "2023-01-03 16:47:02 +0000";
layers = (
{
hints = (
{
horizontal = 1;
place = "{-19, 68}";
type = Stem;
},
{
horizontal = 1;
place = "{225, 68}";
type = Stem;
},
{
horizontal = 1;
place = "{453, 68}";
type = Stem;
},
{
place = "{49, 98}";
type = Stem;
},
{
place = "{513, 104}";
type = Stem;
}
);
layerId = "6D1AFECB-6C65-4A9F-813E-BAE625DDDD1E";
paths = (
{
closed = 1;
nodes = (
"151 293 LINE",
"166 404 OFFCURVE",
"238 453 OFFCURVE",
"339 453 CURVE SMOOTH",
"425 453 OFFCURVE",
"511 409 OFFCURVE",
"513 293 CURVE"
);
},
{
closed = 1;
nodes = (
"617 255 LINE SMOOTH",
"617 425 OFFCURVE",
"519 521 OFFCURVE",
"341 521 CURVE SMOOTH",
"159 521 OFFCURVE",
"49 424 OFFCURVE",
"49 241 CURVE SMOOTH",
"49 82 OFFCURVE",
"154 -19 OFFCURVE",
"338 -19 CURVE SMOOTH",
"449 -19 OFFCURVE",
"585 17 OFFCURVE",
"605 151 CURVE",
"501 151 LINE",
"479 79 OFFCURVE",
"404 49 OFFCURVE",
"333 49 CURVE SMOOTH",
"223 49 OFFCURVE",
"157 122 OFFCURVE",
"147 225 CURVE",
"617 225 LINE"
);
}
);
width = 666;
}
);
leftKerningGroup = e;
note = e;
rightKerningGroup = e;
unicode = 0065;
},
{
glyphname = f;
lastChange = "2023-01-03 16:47:02 +0000";
layers = (
{
hints = (
{
horizontal = 1;
place = "{0, 21}";
target = up;
type = BottomGhost;
},
{
horizontal = 1;
place = "{434, 68}";
type = Stem;
},
{
horizontal = 1;
place = "{660, 68}";
type = Stem;
},
{
place = "{160, 98}";
type = Stem;
},
{
horizontal = 1;
place = "{722, -20}";
target = down;
type = TopGhost;
}
);
layerId = "6D1AFECB-6C65-4A9F-813E-BAE625DDDD1E";
paths = (
{
closed = 1;
nodes = (
"258 0 LINE",
"258 434 LINE",
"419 434 LINE",
"419 502 LINE",
"258 502 LINE",
"258 547 LINE SMOOTH",
"258 631 OFFCURVE",
"293 660 OFFCURVE",
"367 660 CURVE SMOOTH",
"391 660 OFFCURVE",
"415 657 OFFCURVE",
"432 654 CURVE",
"432 722 LINE",
"403 726 OFFCURVE",
"369 728 OFFCURVE",
"341 728 CURVE SMOOTH",
"200 728 OFFCURVE",
"160 652 OFFCURVE",
"160 532 CURVE SMOOTH",
"160 502 LINE",
"29 502 LINE",
"29 434 LINE",
"160 434 LINE",
"160 0 LINE"
);
}
);
width = 444;
}
);
note = f;
rightKerningGroup = f;
unicode = 0066;
},
{
glyphname = g;
lastChange = "2023-01-03 16:47:02 +0000";
layers = (
{
hints = (
{
horizontal = 1;
place = "{-206, 68}";
type = Stem;
},
{
horizontal = 1;
place = "{9, 68}";
type = Stem;
},
{
horizontal = 1;
place = "{453, 68}";
type = Stem;
},
{
place = "{56, 104}";
type = Stem;
},
{
place = "{553, 98}";
type = Stem;
},
{
horizontal = 1;
place = "{502, -20}";
target = down;
type = TopGhost;
}
);
layerId = "6D1AFECB-6C65-4A9F-813E-BAE625DDDD1E";
paths = (
{
closed = 1;
nodes = (
"74 -35 LINE",
"80 -149 OFFCURVE",
"153 -206 OFFCURVE",
"344 -206 CURVE SMOOTH",
"551 -206 OFFCURVE",
"651 -133 OFFCURVE",
"651 70 CURVE SMOOTH",
"651 405 LINE SMOOTH",
"651 444 OFFCURVE",
"653 473 OFFCURVE",
"655 502 CURVE",
"563 502 LINE",
"560 479 OFFCURVE",
"559 457 OFFCURVE",
"559 434 CURVE",
"499 495 OFFCURVE",
"432 521 OFFCURVE",
"344 521 CURVE SMOOTH",
"175 521 OFFCURVE",
"56 419 OFFCURVE",
"56 265 CURVE SMOOTH",
"56 111 OFFCURVE",
"175 9 OFFCURVE",
"344 9 CURVE SMOOTH",
"425 9 OFFCURVE",
"503 37 OFFCURVE",
"551 97 CURVE",
"553 97 LINE",
"553 62 LINE SMOOTH",
"553 -54 OFFCURVE",
"514 -138 OFFCURVE",
"337 -138 CURVE SMOOTH",
"226 -138 OFFCURVE",
"181 -90 OFFCURVE",
"178 -35 CURVE"
);
},
{
closed = 1;
nodes = (
"160 377 OFFCURVE",
"227 453 OFFCURVE",
"355 453 CURVE SMOOTH",
"487 453 OFFCURVE",
"553 377 OFFCURVE",
"553 267 CURVE SMOOTH",
"553 153 OFFCURVE",
"487 77 OFFCURVE",
"355 77 CURVE SMOOTH",
"227 77 OFFCURVE",
"160 153 OFFCURVE",
"160 267 CURVE SMOOTH"
);
}
);
width = 740;
}
);
note = g;
rightKerningGroup = g;
unicode = 0067;
},
{
glyphname = h;
lastChange = "2023-01-03 16:47:02 +0000";
layers = (
{
hints = (
{
horizontal = 1;
place = "{0, 21}";
target = up;
type = BottomGhost;
},
{
horizontal = 1;
place = "{453, 68}";
type = Stem;
},
{
horizontal = 1;
place = "{722, -20}";
target = down;
type = TopGhost;
},
{
place = "{92, 98}";
type = Stem;
},
{
place = "{550, 98}";
type = Stem;
}
);
layerId = "6D1AFECB-6C65-4A9F-813E-BAE625DDDD1E";
paths = (
{
closed = 1;
nodes = (
"92 0 LINE",
"190 0 LINE",
"190 237 LINE SMOOTH",
"190 396 OFFCURVE",
"296 453 OFFCURVE",
"389 453 CURVE SMOOTH",
"483 453 OFFCURVE",
"550 392 OFFCURVE",
"550 280 CURVE SMOOTH",
"550 0 LINE",
"648 0 LINE",
"648 285 LINE SMOOTH",
"648 442 OFFCURVE",
"546 521 OFFCURVE",
"405 521 CURVE SMOOTH",
"316 521 OFFCURVE",
"238 489 OFFCURVE",
"192 414 CURVE",
"190 414 LINE",
"190 722 LINE",
"92 722 LINE"
);
}
);
width = 740;
}
);
note = h;
rightKerningGroup = h;
unicode = 0068;
},
{
glyphname = i;
lastChange = "2023-01-03 16:47:02 +0000";
layers = (
{
hints = (
{
horizontal = 1;
place = "{0, 21}";
target = up;
type = BottomGhost;
},
{
horizontal = 1;
place = "{502, -20}";
target = down;
type = TopGhost;
},
{
horizontal = 1;
place = "{622, 100}";
type = Stem;
},
{
place = "{99, 98}";
type = Stem;
}
);
layerId = "6D1AFECB-6C65-4A9F-813E-BAE625DDDD1E";
paths = (
{
closed = 1;
nodes = (
"99 0 LINE",
"197 0 LINE",
"197 502 LINE",
"99 502 LINE"
);
},
{
closed = 1;
nodes = (
"99 622 LINE",
"197 622 LINE",
"197 722 LINE",
"99 722 LINE"
);
}
);
width = 296;
}
);
leftKerningGroup = i;
note = i;
unicode = 0069;
},
{
glyphname = j;
lastChange = "2023-01-03 16:47:02 +0000";
layers = (
{
hints = (
{
horizontal = 1;
place = "{-198, 74}";
type = Stem;
},
{
horizontal = 1;
place = "{502, -20}";
target = down;
type = TopGhost;
},
{
horizontal = 1;
place = "{622, 100}";
type = Stem;
},
{
place = "{99, 98}";
type = Stem;
},
{
horizontal = 1;
place = "{-194, 21}";
target = up;
type = BottomGhost;
}
);
layerId = "6D1AFECB-6C65-4A9F-813E-BAE625DDDD1E";
paths = (
{
closed = 1;
nodes = (
"99 -11 LINE SMOOTH",
"99 -106 OFFCURVE",
"77 -124 OFFCURVE",
"15 -124 CURVE SMOOTH",
"0 -124 OFFCURVE",
"-17 -124 OFFCURVE",
"-34 -122 CURVE",
"-34 -194 LINE",
"-20 -197 OFFCURVE",
"-2 -198 OFFCURVE",
"35 -198 CURVE SMOOTH",
"153 -198 OFFCURVE",
"197 -151 OFFCURVE",
"197 -47 CURVE SMOOTH",
"197 502 LINE",
"99 502 LINE"
);
},
{
closed = 1;
nodes = (
"99 622 LINE",
"197 622 LINE",
"197 722 LINE",
"99 722 LINE"
);
}
);
width = 296;
}
);
note = j;
unicode = 006A;
},
{
glyphname = k;
lastChange = "2023-01-03 16:47:02 +0000";
layers = (
{
hints = (
{
horizontal = 1;
place = "{0, 21}";
target = up;
type = BottomGhost;
},
{
horizontal = 1;
place = "{285, 21}";
target = up;
type = BottomGhost;
},
{
horizontal = 1;
place = "{502, -20}";
target = down;
type = TopGhost;
},
{
horizontal = 1;
place = "{722, -20}";
target = down;
type = TopGhost;
},
{
place = "{99, 98}";
type = Stem;
},
{
horizontal = 1;
place = "{278, 21}";
target = up;
type = BottomGhost;
}
);
layerId = "6D1AFECB-6C65-4A9F-813E-BAE625DDDD1E";
paths = (
{
closed = 1;
nodes = (
"99 0 LINE",
"197 0 LINE",
"197 278 LINE",
"507 0 LINE",
"653 0 LINE",
"326 285 LINE",
"605 502 LINE",
"465 502 LINE",
"197 296 LINE",
"197 722 LINE",
"99 722 LINE"
);
}
);
width = 666;
}
);
leftKerningGroup = k;
note = k;
rightKerningGroup = k;
unicode = 006B;
},
{
glyphname = l;
lastChange = "2023-01-03 16:47:02 +0000";
layers = (
{
hints = (
{
horizontal = 1;
place = "{0, 21}";
target = up;
type = BottomGhost;
},
{
horizontal = 1;
place = "{722, -20}";
target = down;
type = TopGhost;
},
{
place = "{99, 98}";
type = Stem;
}
);
layerId = "6D1AFECB-6C65-4A9F-813E-BAE625DDDD1E";
paths = (
{
closed = 1;
nodes = (
"99 0 LINE",
"197 0 LINE",
"197 722 LINE",
"99 722 LINE"
);
}
);
width = 296;
}
);
note = l;
unicode = 006C;
},
{
glyphname = m;
lastChange = "2023-01-03 16:47:02 +0000";
layers = (
{
hints = (
{
horizontal = 1;
place = "{0, 21}";
target = up;
type = BottomGhost;
},
{
horizontal = 1;
place = "{453, 68}";
type = Stem;
},
{
horizontal = 1;
place = "{502, -20}";
target = down;
type = TopGhost;
}
);
layerId = "6D1AFECB-6C65-4A9F-813E-BAE625DDDD1E";
paths = (
{
closed = 1;
nodes = (
"92 0 LINE",
"190 0 LINE",
"190 243 LINE SMOOTH",
"190 391 OFFCURVE",
"284 453 OFFCURVE",
"370 453 CURVE SMOOTH",
"460 453 OFFCURVE",
"506 392 OFFCURVE",
"506 257 CURVE SMOOTH",
"506 0 LINE",
"604 0 LINE",
"604 229 LINE SMOOTH",
"604 394 OFFCURVE",
"692 453 OFFCURVE",
"778 453 CURVE SMOOTH",
"885 453 OFFCURVE",
"920 373 OFFCURVE",
"920 251 CURVE SMOOTH",
"920 0 LINE",
"1018 0 LINE",
"1018 288 LINE SMOOTH",
"1018 451 OFFCURVE",
"930 521 OFFCURVE",
"787 521 CURVE SMOOTH",
"694 521 OFFCURVE",
"616 464 OFFCURVE",
"580 395 CURVE",
"551 480 OFFCURVE",
"481 521 OFFCURVE",
"397 521 CURVE SMOOTH",
"315 521 OFFCURVE",
"243 490 OFFCURVE",
"186 413 CURVE",
"184 413 LINE",
"184 448 OFFCURVE",
"182 477 OFFCURVE",
"180 502 CURVE",
"88 502 LINE",
"90 462 OFFCURVE",
"92 426 OFFCURVE",
"92 388 CURVE SMOOTH"
);
}
);
width = 1110;
}
);
note = m;
unicode = 006D;
},
{
glyphname = n;
lastChange = "2023-01-03 16:47:02 +0000";
layers = (
{
hints = (
{
horizontal = 1;
place = "{0, 21}";
target = up;
type = BottomGhost;
},
{
horizontal = 1;
place = "{453, 68}";
type = Stem;
},
{
place = "{92, 98}";
type = Stem;
},
{
place = "{550, 98}";
type = Stem;
},
{
horizontal = 1;
place = "{502, -20}";
target = down;
type = TopGhost;
}
);
layerId = "6D1AFECB-6C65-4A9F-813E-BAE625DDDD1E";
paths = (
{
closed = 1;
nodes = (
"92 0 LINE",
"190 0 LINE",
"190 237 LINE SMOOTH",
"190 396 OFFCURVE",
"296 453 OFFCURVE",
"389 453 CURVE SMOOTH",
"483 453 OFFCURVE",
"550 392 OFFCURVE",
"550 280 CURVE SMOOTH",
"550 0 LINE",
"648 0 LINE",
"648 285 LINE SMOOTH",
"648 442 OFFCURVE",
"546 521 OFFCURVE",
"405 521 CURVE SMOOTH",
"315 521 OFFCURVE",
"243 490 OFFCURVE",
"186 413 CURVE",
"184 413 LINE",
"184 448 OFFCURVE",
"182 477 OFFCURVE",
"180 502 CURVE",
"88 502 LINE",
"90 462 OFFCURVE",
"92 426 OFFCURVE",
"92 388 CURVE SMOOTH"
);
}
);
width = 740;
}
);
note = n;
unicode = 006E;
},
{
glyphname = o;
lastChange = "2023-01-03 16:47:02 +0000";
layers = (
{
hints = (
{
horizontal = 1;
place = "{-19, 68}";
type = Stem;
},
{
horizontal = 1;
place = "{453, 68}";
type = Stem;
},
{
place = "{56, 104}";
type = Stem;
},
{
place = "{580, 104}";
type = Stem;
}
);
layerId = "6D1AFECB-6C65-4A9F-813E-BAE625DDDD1E";
paths = (
{
closed = 1;
nodes = (
"684 423 OFFCURVE",
"574 521 OFFCURVE",
"370 521 CURVE SMOOTH",
"160 521 OFFCURVE",
"56 414 OFFCURVE",
"56 251 CURVE SMOOTH",
"56 79 OFFCURVE",
"166 -19 OFFCURVE",
"370 -19 CURVE SMOOTH",
"574 -19 OFFCURVE",
"684 79 OFFCURVE",
"684 251 CURVE SMOOTH"
);
},
{
closed = 1;
nodes = (
"507 453 OFFCURVE",
"580 365 OFFCURVE",
"580 251 CURVE SMOOTH",
"580 137 OFFCURVE",
"507 49 OFFCURVE",
"370 49 CURVE SMOOTH",
"233 49 OFFCURVE",
"160 137 OFFCURVE",
"160 251 CURVE SMOOTH",
"160 365 OFFCURVE",
"233 453 OFFCURVE",
"370 453 CURVE SMOOTH"
);
}
);
width = 740;
}
);
leftKerningGroup = o;
note = o;
rightKerningGroup = o;
unicode = 006F;
},
{
glyphname = p;
lastChange = "2023-01-03 16:47:02 +0000";
layers = (
{
hints = (
{
horizontal = 1;
place = "{-192, 21}";
target = up;
type = BottomGhost;
},
{
horizontal = 1;
place = "{-19, 68}";
type = Stem;
},
{
horizontal = 1;
place = "{453, 68}";
type = Stem;
},
{
place = "{86, 98}";
type = Stem;
},
{
place = "{580, 104}";
type = Stem;
},
{
horizontal = 1;
place = "{502, -20}";
target = down;
type = TopGhost;
}
);
layerId = "6D1AFECB-6C65-4A9F-813E-BAE625DDDD1E";
paths = (
{
closed = 1;
nodes = (
"86 -192 LINE",
"184 -192 LINE",
"184 66 LINE",
"246 0 OFFCURVE",
"324 -19 OFFCURVE",
"404 -19 CURVE SMOOTH",
"554 -19 OFFCURVE",
"684 88 OFFCURVE",
"684 251 CURVE SMOOTH",
"684 414 OFFCURVE",
"554 521 OFFCURVE",
"404 521 CURVE SMOOTH",
"315 521 OFFCURVE",
"235 489 OFFCURVE",
"184 431 CURVE",
"184 460 OFFCURVE",
"182 483 OFFCURVE",
"180 502 CURVE",
"82 502 LINE",
"84 462 OFFCURVE",
"86 426 OFFCURVE",
"86 388 CURVE SMOOTH"
);
},
{
closed = 1;
nodes = (
"184 378 OFFCURVE",
"266 453 OFFCURVE",
"382 453 CURVE SMOOTH",
"499 453 OFFCURVE",
"580 378 OFFCURVE",
"580 251 CURVE SMOOTH",
"580 124 OFFCURVE",
"499 49 OFFCURVE",
"382 49 CURVE SMOOTH",
"266 49 OFFCURVE",
"184 124 OFFCURVE",
"184 251 CURVE SMOOTH"
);
}
);
width = 740;
}
);
leftKerningGroup = p;
note = p;
rightKerningGroup = p;
unicode = 0070;
},
{
glyphname = q;
lastChange = "2023-01-03 16:47:02 +0000";
layers = (
{
hints = (
{
horizontal = 1;
place = "{-192, 21}";
target = up;
type = BottomGhost;
},
{
horizontal = 1;
place = "{-19, 68}";
type = Stem;
},
{
horizontal = 1;
place = "{453, 68}";
type = Stem;
},
{
place = "{56, 104}";
type = Stem;
},
{
place = "{556, 98}";
type = Stem;
},
{
horizontal = 1;
place = "{502, -20}";
target = down;
type = TopGhost;
}
);
layerId = "6D1AFECB-6C65-4A9F-813E-BAE625DDDD1E";
paths = (
{
closed = 1;
nodes = (
"556 -192 LINE",
"654 -192 LINE",
"654 394 LINE SMOOTH",
"654 433 OFFCURVE",
"656 466 OFFCURVE",
"658 502 CURVE",
"560 502 LINE",
"558 478 OFFCURVE",
"556 455 OFFCURVE",
"556 431 CURVE",
"505 489 OFFCURVE",
"425 521 OFFCURVE",
"336 521 CURVE SMOOTH",
"186 521 OFFCURVE",
"56 414 OFFCURVE",
"56 251 CURVE SMOOTH",
"56 88 OFFCURVE",
"186 -19 OFFCURVE",
"336 -19 CURVE SMOOTH",
"416 -19 OFFCURVE",
"494 0 OFFCURVE",
"556 66 CURVE"
);
},
{
closed = 1;
nodes = (
"160 378 OFFCURVE",
"241 453 OFFCURVE",
"358 453 CURVE SMOOTH",
"474 453 OFFCURVE",
"556 378 OFFCURVE",
"556 251 CURVE SMOOTH",
"556 124 OFFCURVE",
"474 49 OFFCURVE",
"358 49 CURVE SMOOTH",
"241 49 OFFCURVE",
"160 124 OFFCURVE",
"160 251 CURVE SMOOTH"
);
}
);
width = 740;
}
);
leftKerningGroup = q;
note = q;
unicode = 0071;
},
{
glyphname = r;
lastChange = "2023-01-03 16:47:02 +0000";
layers = (
{
hints = (
{
horizontal = 1;
place = "{0, 21}";
target = up;
type = BottomGhost;
},
{
horizontal = 1;
place = "{427, 82}";
type = Stem;
},
{
place = "{92, 98}";
type = Stem;
},
{
horizontal = 1;
place = "{502, -20}";
target = down;
type = TopGhost;
}
);
layerId = "6D1AFECB-6C65-4A9F-813E-BAE625DDDD1E";
paths = (
{
closed = 1;
nodes = (
"92 0 LINE",
"190 0 LINE",
"190 243 LINE SMOOTH",
"190 344 OFFCURVE",
"255 427 OFFCURVE",
"373 427 CURVE SMOOTH",
"391 427 OFFCURVE",
"405 426 OFFCURVE",
"420 421 CURVE",
"420 509 LINE",
"387 509 LINE SMOOTH",
"275 509 OFFCURVE",
"231 483 OFFCURVE",
"186 402 CURVE",
"184 402 LINE",
"184 436 OFFCURVE",
"182 472 OFFCURVE",
"180 502 CURVE",
"88 502 LINE",
"90 462 OFFCURVE",
"92 426 OFFCURVE",
"92 388 CURVE SMOOTH"
);
}
);
width = 444;
}
);
leftKerningGroup = r;
note = r;
rightKerningGroup = r;
unicode = 0072;
},
{
glyphname = s;
lastChange = "2023-01-03 16:47:02 +0000";
layers = (
{
hints = (
{
horizontal = 1;
place = "{-19, 68}";
type = Stem;
},
{
horizontal = 1;
place = "{453, 68}";
type = Stem;
},
{
place = "{90, 98}";
type = Stem;
},
{
place = "{496, 104}";
type = Stem;
}
);
layerId = "6D1AFECB-6C65-4A9F-813E-BAE625DDDD1E";
paths = (
{
closed = 1;
nodes = (
"66 143 LINE",
"73 26 OFFCURVE",
"187 -19 OFFCURVE",
"321 -19 CURVE SMOOTH",
"511 -19 OFFCURVE",
"600 36 OFFCURVE",
"600 143 CURVE SMOOTH",
"600 218 OFFCURVE",
"555 257 OFFCURVE",
"461 275 CURVE SMOOTH",
"295 306 LINE SMOOTH",
"220 320 OFFCURVE",
"188 342 OFFCURVE",
"188 377 CURVE SMOOTH",
"188 423 OFFCURVE",
"250 453 OFFCURVE",
"338 453 CURVE SMOOTH",
"413 453 OFFCURVE",
"469 435 OFFCURVE",
"483 372 CURVE",
"578 372 LINE",
"572 495 OFFCURVE",
"438 521 OFFCURVE",
"334 521 CURVE SMOOTH",
"195 521 OFFCURVE",
"90 475 OFFCURVE",
"90 364 CURVE SMOOTH",
"90 164 OFFCURVE",
"496 253 OFFCURVE",
"496 136 CURVE SMOOTH",
"496 83 OFFCURVE",
"442 49 OFFCURVE",
"332 49 CURVE SMOOTH",
"243 49 OFFCURVE",
"179 73 OFFCURVE",
"170 143 CURVE"
);
}
);
width = 666;
}
);
leftKerningGroup = s;
note = s;
rightKerningGroup = s;
unicode = 0073;
},
{
glyphname = t;
lastChange = "2023-01-03 16:47:02 +0000";
layers = (
{
hints = (
{
horizontal = 1;
place = "{-6, 68}";
type = Stem;
},
{
horizontal = 1;
place = "{434, 68}";
type = Stem;
},
{
place = "{160, 98}";
type = Stem;
}
);
layerId = "6D1AFECB-6C65-4A9F-813E-BAE625DDDD1E";
paths = (
{
closed = 1;
nodes = (
"160 502 LINE",
"29 502 LINE",
"29 434 LINE",
"160 434 LINE",
"160 138 LINE SMOOTH",
"160 26 OFFCURVE",
"216 -6 OFFCURVE",
"315 -6 CURVE SMOOTH",
"345 -6 OFFCURVE",
"377 -4 OFFCURVE",
"409 0 CURVE",
"409 68 LINE",
"381 64 OFFCURVE",
"352 62 OFFCURVE",
"334 62 CURVE SMOOTH",
"273 62 OFFCURVE",
"258 91 OFFCURVE",
"258 145 CURVE SMOOTH",
"258 434 LINE",
"406 434 LINE",
"406 502 LINE",
"258 502 LINE",
"258 635 LINE",
"160 594 LINE"
);
}
);
width = 444;
}
);
leftKerningGroup = t;
note = t;
unicode = 0074;
},
{
glyphname = u;
lastChange = "2023-01-03 16:47:02 +0000";
layers = (
{
hints = (
{
horizontal = 1;
place = "{-19, 68}";
type = Stem;
},
{
horizontal = 1;
place = "{502, -20}";
target = down;
type = TopGhost;
},
{
place = "{92, 98}";
type = Stem;
},
{
place = "{550, 98}";
type = Stem;
},
{
horizontal = 1;
place = "{0, 21}";
target = up;
type = BottomGhost;
}
);
layerId = "6D1AFECB-6C65-4A9F-813E-BAE625DDDD1E";
paths = (
{
closed = 1;
nodes = (
"648 502 LINE",
"550 502 LINE",
"550 265 LINE SMOOTH",
"550 106 OFFCURVE",
"444 49 OFFCURVE",
"351 49 CURVE SMOOTH",
"257 49 OFFCURVE",
"190 110 OFFCURVE",
"190 222 CURVE SMOOTH",
"190 502 LINE",
"92 502 LINE",
"92 217 LINE SMOOTH",
"92 60 OFFCURVE",
"194 -19 OFFCURVE",
"335 -19 CURVE SMOOTH",
"425 -19 OFFCURVE",
"497 12 OFFCURVE",
"554 89 CURVE",
"556 89 LINE",
"556 54 OFFCURVE",
"558 25 OFFCURVE",
"560 0 CURVE",
"652 0 LINE",
"650 40 OFFCURVE",
"648 76 OFFCURVE",
"648 114 CURVE SMOOTH"
);
}
);
width = 740;
}
);
leftKerningGroup = u;
note = u;
unicode = 0075;
},
{
glyphname = v;
lastChange = "2023-01-03 16:47:02 +0000";
layers = (
{
hints = (
{
horizontal = 1;
place = "{0, 21}";
target = up;
type = BottomGhost;
},
{
horizontal = 1;
place = "{502, -20}";
target = down;
type = TopGhost;
},
{
place = "{12, 642}";
type = Stem;
},
{
horizontal = 1;
place = "{0, 88}";
type = Stem;
}
);
layerId = "6D1AFECB-6C65-4A9F-813E-BAE625DDDD1E";
paths = (
{
closed = 1;
nodes = (
"269 0 LINE",
"395 0 LINE",
"654 502 LINE",
"544 502 LINE",
"333 88 LINE",
"122 502 LINE",
"12 502 LINE"
);
}
);
width = 666;
}
);
leftKerningGroup = v;
note = v;
rightKerningGroup = v;
unicode = 0076;
},
{
glyphname = w;
lastChange = "2023-01-03 16:47:02 +0000";
layers = (
{
hints = (
{
horizontal = 1;
place = "{0, 21}";
target = up;
type = BottomGhost;
},
{
horizontal = 1;
place = "{502, -20}";
target = down;
type = TopGhost;
},
{
place = "{11, 1088}";
type = Stem;
},
{
horizontal = 1;
place = "{420, 82}";
type = Stem;
},
{
horizontal = 1;
place = "{0, 82}";
type = Stem;
}
);
layerId = "6D1AFECB-6C65-4A9F-813E-BAE625DDDD1E";
paths = (
{
closed = 1;
nodes = (
"238 0 LINE",
"358 0 LINE",
"551 420 LINE",
"748 0 LINE",
"875 0 LINE",
"1099 502 LINE",
"998 502 LINE",
"815 82 LINE",
"619 502 LINE",
"495 502 LINE",
"304 88 LINE",
"124 502 LINE",
"11 502 LINE"
);
}
);
width = 1110;
}
);
leftKerningGroup = w;
note = w;
rightKerningGroup = w;
unicode = 0077;
},
{
glyphname = x;
lastChange = "2023-01-03 16:47:02 +0000";
layers = (
{
hints = (
{
horizontal = 1;
place = "{0, 21}";
target = up;
type = BottomGhost;
},
{
horizontal = 1;
place = "{502, -20}";
target = down;
type = TopGhost;
},
{
place = "{10, 646}";
type = Stem;
}
);
layerId = "6D1AFECB-6C65-4A9F-813E-BAE625DDDD1E";
paths = (
{
closed = 1;
nodes = (
"335 317 LINE",
"160 502 LINE",
"26 502 LINE",
"260 262 LINE",
"10 0 LINE",
"138 0 LINE",
"326 205 LINE",
"516 0 LINE",
"656 0 LINE",
"397 262 LINE",
"636 502 LINE",
"511 502 LINE"
);
}
);
width = 666;
}
);
note = x;
unicode = 0078;
},
{
glyphname = y;
lastChange = "2023-01-03 16:47:02 +0000";
layers = (
{
hints = (
{
horizontal = 1;
place = "{-192, 21}";
target = up;
type = BottomGhost;
},
{
horizontal = 1;
place = "{502, -20}";
target = down;
type = TopGhost;
},
{
place = "{10, 646}";
type = Stem;
}
);
layerId = "6D1AFECB-6C65-4A9F-813E-BAE625DDDD1E";
paths = (
{
closed = 1;
nodes = (
"552 502 LINE",
"340 94 LINE",
"126 502 LINE",
"10 502 LINE",
"287 0 LINE",
"183 -192 LINE",
"293 -192 LINE",
"656 502 LINE"
);
}
);
width = 666;
}
);
leftKerningGroup = y;
note = y;
rightKerningGroup = y;
unicode = 0079;
},
{
glyphname = z;
lastChange = "2023-01-03 16:47:02 +0000";
layers = (
{
hints = (
{
horizontal = 1;
place = "{0, 74}";
type = Stem;
},
{
horizontal = 1;
place = "{428, 74}";
type = Stem;
},
{
place = "{48, 497}";
type = Stem;
}
);
layerId = "6D1AFECB-6C65-4A9F-813E-BAE625DDDD1E";
paths = (
{
closed = 1;
nodes = (
"63 428 LINE",
"406 428 LINE",
"48 82 LINE",
"48 0 LINE",
"545 0 LINE",
"545 74 LINE",
"176 74 LINE",
"535 420 LINE",
"535 502 LINE",
"63 502 LINE"
);
}
);
width = 593;
}
);
note = z;
unicode = 007A;
},
{
glyphname = braceleft;
lastChange = "2023-01-03 16:47:02 +0000";
layers = (
{
hints = (
{
horizontal = 1;
place = "{-137, 58}";
type = Stem;
},
{
horizontal = 1;
place = "{683, 58}";
type = Stem;
},
{
place = "{123, 88}";
type = Stem;
},
{
place = "{38, 82}";
type = Stem;
}
);
layerId = "6D1AFECB-6C65-4A9F-813E-BAE625DDDD1E";
paths = (
{
closed = 1;
nodes = (
"123 -13 LINE SMOOTH",
"123 -95 OFFCURVE",
"188 -137 OFFCURVE",
"236 -137 CURVE SMOOTH",
"314 -137 LINE",
"314 -79 LINE",
"261 -79 LINE SMOOTH",
"220 -79 OFFCURVE",
"211 -41 OFFCURVE",
"211 -5 CURVE SMOOTH",
"211 183 LINE SMOOTH",
"211 269 OFFCURVE",
"145 297 OFFCURVE",
"120 301 CURVE",
"120 303 LINE",
"145 307 OFFCURVE",
"211 335 OFFCURVE",
"211 421 CURVE SMOOTH",
"211 609 LINE SMOOTH",
"211 645 OFFCURVE",
"220 683 OFFCURVE",
"261 683 CURVE SMOOTH",
"314 683 LINE",
"314 741 LINE",
"236 741 LINE SMOOTH",
"188 741 OFFCURVE",
"123 699 OFFCURVE",
"123 617 CURVE SMOOTH",
"123 434 LINE SMOOTH",
"123 373 OFFCURVE",
"77 337 OFFCURVE",
"38 336 CURVE",
"38 268 LINE",
"77 267 OFFCURVE",
"123 231 OFFCURVE",
"123 170 CURVE SMOOTH"
);
}
);
width = 370;
}
);
note = braceleft;
unicode = 007B;
},
{
glyphname = bar;
lastChange = "2023-01-03 16:47:02 +0000";
layers = (
{
hints = (
{
horizontal = 1;
place = "{-19, 21}";
target = up;
type = BottomGhost;
},
{
horizontal = 1;
place = "{741, -20}";
target = down;
type = TopGhost;
},
{
place = "{67, 88}";
type = Stem;
}
);
layerId = "6D1AFECB-6C65-4A9F-813E-BAE625DDDD1E";
paths = (
{
closed = 1;
nodes = (
"67 -19 LINE",
"155 -19 LINE",
"155 741 LINE",
"67 741 LINE"
);
}
);
width = 222;
}
);
note = bar;
unicode = 007C;
},
{
glyphname = braceright;
lastChange = "2023-01-03 16:47:02 +0000";
layers = (
{
hints = (
{
horizontal = 1;
place = "{-137, 58}";
type = Stem;
},
{
horizontal = 1;
place = "{683, 58}";
type = Stem;
},
{
place = "{159, 88}";
type = Stem;
},
{
place = "{250, 82}";
type = Stem;
}
);
layerId = "6D1AFECB-6C65-4A9F-813E-BAE625DDDD1E";
paths = (
{
closed = 1;
nodes = (
"56 683 LINE",
"109 683 LINE SMOOTH",
"150 683 OFFCURVE",
"159 645 OFFCURVE",
"159 609 CURVE SMOOTH",
"159 421 LINE SMOOTH",
"159 335 OFFCURVE",
"225 307 OFFCURVE",
"250 303 CURVE",
"250 301 LINE",
"225 297 OFFCURVE",
"159 269 OFFCURVE",
"159 183 CURVE SMOOTH",
"159 -5 LINE SMOOTH",
"159 -41 OFFCURVE",
"150 -79 OFFCURVE",
"109 -79 CURVE SMOOTH",
"56 -79 LINE",
"56 -137 LINE",
"134 -137 LINE SMOOTH",
"182 -137 OFFCURVE",
"247 -95 OFFCURVE",
"247 -13 CURVE SMOOTH",
"247 170 LINE SMOOTH",
"247 231 OFFCURVE",
"293 267 OFFCURVE",
"332 268 CURVE",
"332 336 LINE",
"293 337 OFFCURVE",
"247 373 OFFCURVE",
"247 434 CURVE SMOOTH",
"247 617 LINE SMOOTH",
"247 699 OFFCURVE",
"182 741 OFFCURVE",
"134 741 CURVE SMOOTH",
"56 741 LINE"
);
}
);
width = 370;
}
);
note = braceright;
unicode = 007D;
},
{
glyphname = asciitilde;
lastChange = "2023-01-03 16:47:02 +0000";
layers = (
{
hints = (
{
horizontal = 1;
place = "{244, 88}";
type = Stem;
},
{
place = "{69, 462}";
type = Stem;
},
{
horizontal = 1;
place = "{174, 88}";
type = Stem;
}
);
layerId = "6D1AFECB-6C65-4A9F-813E-BAE625DDDD1E";
paths = (
{
closed = 1;
nodes = (
"105 174 LINE",
"126 220 OFFCURVE",
"155 244 OFFCURVE",
"189 244 CURVE SMOOTH",
"234 244 OFFCURVE",
"268 227 OFFCURVE",
"301 209 CURVE SMOOTH",
"334 191 OFFCURVE",
"366 174 OFFCURVE",
"406 174 CURVE SMOOTH",
"453 174 OFFCURVE",
"491 201 OFFCURVE",
"531 263 CURVE",
"495 332 LINE",
"462 284 OFFCURVE",
"436 262 OFFCURVE",
"407 262 CURVE SMOOTH",
"365 262 OFFCURVE",
"263 332 OFFCURVE",
"194 332 CURVE SMOOTH",
"141 332 OFFCURVE",
"98 304 OFFCURVE",
"69 243 CURVE"
);
}
);
width = 600;
}
);
note = asciitilde;
unicode = 007E;
},
{
glyphname = exclamdown;
lastChange = "2023-01-03 16:47:02 +0000";
layers = (
{
hints = (
{
horizontal = 1;
place = "{425, 110}";
type = Stem;
},
{
place = "{204, 110}";
type = Stem;
},
{
place = "{209.5, 99}";
type = Stem;
}
);
layerId = "6D1AFECB-6C65-4A9F-813E-BAE625DDDD1E";
paths = (
{
closed = 1;
nodes = (
"201 -187 LINE",
"317 -187 LINE",
"300 359 LINE",
"218 359 LINE"
);
},
{
closed = 1;
nodes = (
"204 425 LINE",
"314 425 LINE",
"314 535 LINE",
"204 535 LINE"
);
}
);
width = 518;
}
);
note = exclamdown;
unicode = 00A1;
},
{
glyphname = cent;
lastChange = "2023-01-03 16:47:02 +0000";
layers = (
{
hints = (
{
horizontal = 1;
place = "{-19, 68}";
type = Stem;
},
{
horizontal = 1;
place = "{453, 68}";
type = Stem;
},
{
place = "{93, 104}";
type = Stem;
},
{
horizontal = 1;
place = "{-13, 21}";
target = up;
type = BottomGhost;
},
{
horizontal = 1;
place = "{518, -20}";
target = down;
type = TopGhost;
},
{
horizontal = 1;
place = "{1, 21}";
target = up;
type = BottomGhost;
}
);
layerId = "6D1AFECB-6C65-4A9F-813E-BAE625DDDD1E";
paths = (
{
closed = 1;
nodes = (
"220 -95 LINE",
"272 -115 LINE",
"307 -13 LINE",
"330 -17 OFFCURVE",
"353 -19 OFFCURVE",
"379 -19 CURVE SMOOTH",
"507 -19 OFFCURVE",
"637 35 OFFCURVE",
"647 162 CURVE",
"543 162 LINE",
"538 92 OFFCURVE",
"476 49 OFFCURVE",
"384 49 CURVE SMOOTH",
"365 49 OFFCURVE",
"347 51 OFFCURVE",
"331 56 CURVE",
"464 439 LINE",
"506 422 OFFCURVE",
"533 389 OFFCURVE",
"539 342 CURVE",
"643 342 LINE",
"631 435 OFFCURVE",
"568 487 OFFCURVE",
"488 508 CURVE",
"519 597 LINE",
"467 617 LINE",
"433 518 LINE",
"419 520 OFFCURVE",
"403 521 OFFCURVE",
"388 521 CURVE SMOOTH",
"207 521 OFFCURVE",
"93 419 OFFCURVE",
"93 250 CURVE SMOOTH",
"93 129 OFFCURVE",
"148 39 OFFCURVE",
"253 1 CURVE"
);
},
{
closed = 1;
nodes = (
"280 79 LINE",
"225 114 OFFCURVE",
"197 179 OFFCURVE",
"197 250 CURVE SMOOTH",
"197 384 OFFCURVE",
"283 453 OFFCURVE",
"389 453 CURVE SMOOTH",
"397 453 OFFCURVE",
"404 453 OFFCURVE",
"410 452 CURVE"
);
}
);
width = 740;
}
);
note = cent;
unicode = 00A2;
},
{
glyphname = sterling;
lastChange = "2023-01-03 16:47:02 +0000";
layers = (
{
hints = (
{
horizontal = 1;
place = "{0, 82}";
type = Stem;
},
{
horizontal = 1;
place = "{344, 74}";
type = Stem;
},
{
horizontal = 1;
place = "{659, 82}";
type = Stem;
},
{
place = "{167, 104}";
type = Stem;
}
);
layerId = "6D1AFECB-6C65-4A9F-813E-BAE625DDDD1E";
paths = (
{
closed = 1;
nodes = (
"64 344 LINE",
"167 344 LINE",
"167 82 LINE",
"64 82 LINE",
"64 0 LINE",
"667 0 LINE",
"667 82 LINE",
"271 82 LINE",
"271 344 LINE",
"483 344 LINE",
"483 418 LINE",
"271 418 LINE",
"271 496 LINE SMOOTH",
"271 610 OFFCURVE",
"355 659 OFFCURVE",
"436 659 CURVE SMOOTH",
"524 659 OFFCURVE",
"583 615 OFFCURVE",
"588 528 CURVE",
"692 528 LINE",
"692 677 OFFCURVE",
"583 741 OFFCURVE",
"435 741 CURVE SMOOTH",
"290 741 OFFCURVE",
"167 658 OFFCURVE",
"167 502 CURVE SMOOTH",
"167 418 LINE",
"64 418 LINE"
);
}
);
width = 740;
}
);
note = sterling;
unicode = 00A3;
},
{
glyphname = fraction;
lastChange = "2023-01-03 16:47:02 +0000";
layers = (
{
hints = (
{
horizontal = 1;
place = "{-61, 814}";
type = Stem;
},
{
place = "{-240, 702}";
type = Stem;
}
);
layerId = "6D1AFECB-6C65-4A9F-813E-BAE625DDDD1E";
paths = (
{
closed = 1;
nodes = (
"-240 -61 LINE",
"-166 -61 LINE",
"462 753 LINE",
"388 753 LINE"
);
}
);
width = 222;
}
);
note = fraction;
unicode = 2044;
},
{
glyphname = yen;
lastChange = "2023-01-03 16:47:02 +0000";
layers = (
{
hints = (
{
horizontal = 1;
place = "{159, 68}";
type = Stem;
},
{
horizontal = 1;
place = "{329, 68}";
type = Stem;
},
{
horizontal = 1;
place = "{722, -20}";
target = down;
type = TopGhost;
},
{
place = "{318, 104}";
type = Stem;
},
{
horizontal = 1;
place = "{0, 227}";
type = Stem;
}
);
layerId = "6D1AFECB-6C65-4A9F-813E-BAE625DDDD1E";
paths = (
{
closed = 1;
nodes = (
"318 0 LINE",
"422 0 LINE",
"422 159 LINE",
"611 159 LINE",
"611 227 LINE",
"422 227 LINE",
"422 329 LINE",
"611 329 LINE",
"611 397 LINE",
"469 397 LINE",
"689 722 LINE",
"567 722 LINE",
"370 397 LINE",
"173 722 LINE",
"51 722 LINE",
"271 397 LINE",
"129 397 LINE",
"129 329 LINE",
"318 329 LINE",
"318 227 LINE",
"129 227 LINE",
"129 159 LINE",
"318 159 LINE"
);
}
);
width = 740;
}
);
note = yen;
unicode = 00A5;
},
{
glyphname = florin;
lastChange = "2023-01-03 16:47:02 +0000";
layers = (
{
hints = (
{
horizontal = 1;
place = "{-192, 74}";
type = Stem;
},
{
horizontal = 1;
place = "{445, 68}";
type = Stem;
},
{
horizontal = 1;
place = "{667, 74}";
type = Stem;
},
{
place = "{52, 593}";
type = Stem;
},
{
horizontal = 1;
place = "{730, -20}";
target = down;
type = TopGhost;
}
);
layerId = "6D1AFECB-6C65-4A9F-813E-BAE625DDDD1E";
paths = (
{
closed = 1;
nodes = (
"52 -184 LINE",
"76 -189 OFFCURVE",
"100 -192 OFFCURVE",
"123 -192 CURVE SMOOTH",
"286 -192 OFFCURVE",
"336 -132 OFFCURVE",
"364 64 CURVE SMOOTH",
"418 445 LINE",
"603 445 LINE",
"615 513 LINE",
"428 513 LINE",
"445 629 OFFCURVE",
"479 667 OFFCURVE",
"563 667 CURVE SMOOTH",
"586 667 OFFCURVE",
"613 662 OFFCURVE",
"635 655 CURVE",
"645 730 LINE",
"616 738 OFFCURVE",
"575 741 OFFCURVE",
"535 741 CURVE SMOOTH",
"412 741 OFFCURVE",
"349 696 OFFCURVE",
"324 513 CURVE",
"157 513 LINE",
"145 445 LINE",
"317 445 LINE",
"262 61 LINE SMOOTH",
"240 -96 OFFCURVE",
"191 -118 OFFCURVE",
"99 -118 CURVE SMOOTH",
"90 -118 OFFCURVE",
"75 -116 OFFCURVE",
"61 -114 CURVE"
);
}
);
width = 740;
}
);
note = florin;
unicode = 0192;
},
{
glyphname = section;
lastChange = "2023-01-03 16:47:02 +0000";
layers = (
{
hints = (
{
horizontal = 1;
place = "{-1, 21}";
target = up;
type = BottomGhost;
},
{
horizontal = 1;
place = "{667, 74}";
type = Stem;
},
{
place = "{97, 104}";
type = Stem;
},
{
place = "{409, 104}";
type = Stem;
},
{
horizontal = 1;
place = "{-38, 74}";
type = Stem;
},
{
place = "{418, 98}";
type = Stem;
},
{
horizontal = 1;
place = "{711, -20}";
target = down;
type = TopGhost;
},
{
place = "{76, 98}";
type = Stem;
}
);
layerId = "6D1AFECB-6C65-4A9F-813E-BAE625DDDD1E";
paths = (
{
closed = 1;
nodes = (
"91 -1 LINE",
"148 -19 OFFCURVE",
"242 -38 OFFCURVE",
"291 -38 CURVE SMOOTH",
"416 -38 OFFCURVE",
"513 14 OFFCURVE",
"513 112 CURVE SMOOTH",
"513 166 OFFCURVE",
"473 215 OFFCURVE",
"388 242 CURVE",
"388 244 LINE",
"480 275 OFFCURVE",
"516 324 OFFCURVE",
"516 370 CURVE SMOOTH",
"516 512 OFFCURVE",
"201 498 OFFCURVE",
"201 601 CURVE SMOOTH",
"201 638 OFFCURVE",
"232 667 OFFCURVE",
"302 667 CURVE SMOOTH",
"351 667 OFFCURVE",
"420 653 OFFCURVE",
"485 623 CURVE",
"485 711 LINE",
"418 728 OFFCURVE",
"353 741 OFFCURVE",
"299 741 CURVE SMOOTH",
"169 741 OFFCURVE",
"97 680 OFFCURVE",
"97 599 CURVE SMOOTH",
"97 551 OFFCURVE",
"118 515 OFFCURVE",
"206 478 CURVE",
"95 428 OFFCURVE",
"76 387 OFFCURVE",
"76 345 CURVE SMOOTH",
"76 286 OFFCURVE",
"112 252 OFFCURVE",
"275 198 CURVE SMOOTH",
"384 162 OFFCURVE",
"409 149 OFFCURVE",
"409 104 CURVE SMOOTH",
"409 64 OFFCURVE",
"364 36 OFFCURVE",
"286 36 CURVE SMOOTH",
"223 36 OFFCURVE",
"145 60 OFFCURVE",
"91 87 CURVE"
);
},
{
closed = 1;
nodes = (
"340 427 LINE SMOOTH",
"399 405 OFFCURVE",
"418 386 OFFCURVE",
"418 356 CURVE SMOOTH",
"418 332 OFFCURVE",
"397 301 OFFCURVE",
"316 269 CURVE",
"241 294 LINE SMOOTH",
"195 309 OFFCURVE",
"174 334 OFFCURVE",
"174 358 CURVE SMOOTH",
"174 386 OFFCURVE",
"199 423 OFFCURVE",
"275 451 CURVE"
);
}
);
width = 592;
}
);
note = section;
unicode = 00A7;
},
{
glyphname = currency;
lastChange = "2023-01-03 16:47:02 +0000";
layers = (
{
hints = (
{
horizontal = 1;
place = "{98, 82}";
type = Stem;
},
{
horizontal = 1;
place = "{512, 82}";
type = Stem;
},
{
place = "{122, 88}";
type = Stem;
},
{
place = "{530, 88}";
type = Stem;
}
);
layerId = "6D1AFECB-6C65-4A9F-813E-BAE625DDDD1E";
paths = (
{
closed = 1;
nodes = (
"167 91 LINE",
"223 147 LINE",
"264 116 OFFCURVE",
"315 98 OFFCURVE",
"370 98 CURVE SMOOTH",
"425 98 OFFCURVE",
"476 116 OFFCURVE",
"517 148 CURVE",
"574 91 LINE",
"624 142 LINE",
"568 198 LINE",
"599 238 OFFCURVE",
"618 290 OFFCURVE",
"618 346 CURVE SMOOTH",
"618 401 OFFCURVE",
"600 452 OFFCURVE",
"569 493 CURVE",
"624 549 LINE",
"574 601 LINE",
"518 544 LINE",
"477 576 OFFCURVE",
"426 594 OFFCURVE",
"370 594 CURVE SMOOTH",
"314 594 OFFCURVE",
"263 575 OFFCURVE",
"223 545 CURVE",
"167 601 LINE",
"116 549 LINE",
"171 494 LINE",
"140 452 OFFCURVE",
"122 401 OFFCURVE",
"122 346 CURVE SMOOTH",
"122 290 OFFCURVE",
"140 239 OFFCURVE",
"172 198 CURVE",
"116 142 LINE"
);
},
{
closed = 1;
nodes = (
"458 512 OFFCURVE",
"530 440 OFFCURVE",
"530 346 CURVE SMOOTH",
"530 252 OFFCURVE",
"458 180 OFFCURVE",
"370 180 CURVE SMOOTH",
"282 180 OFFCURVE",
"210 252 OFFCURVE",
"210 346 CURVE SMOOTH",
"210 440 OFFCURVE",
"282 512 OFFCURVE",
"370 512 CURVE SMOOTH"
);
}
);
width = 740;
}
);
note = currency;
unicode = 00A4;
},
{
glyphname = quotesingle;
lastChange = "2023-01-03 16:47:02 +0000";
layers = (
{
hints = (
{
horizontal = 1;
place = "{508, 214}";
type = Stem;
},
{
place = "{141, 88}";
type = Stem;
}
);
layerId = "6D1AFECB-6C65-4A9F-813E-BAE625DDDD1E";
paths = (
{
closed = 1;
nodes = (
"141 508 LINE",
"229 508 LINE",
"229 722 LINE",
"141 722 LINE"
);
}
);
width = 370;
}
);
note = quotesingle;
unicode = 0027;
},
{
glyphname = quotedblleft;
lastChange = "2023-01-03 16:47:02 +0000";
layers = (
{
hints = (
{
horizontal = 1;
place = "{508, 214}";
type = Stem;
},
{
place = "{94, 405}";
type = Stem;
}
);
layerId = "6D1AFECB-6C65-4A9F-813E-BAE625DDDD1E";
paths = (
{
closed = 1;
nodes = (
"317 508 LINE",
"433 508 LINE",
"499 722 LINE",
"417 722 LINE"
);
},
{
closed = 1;
nodes = (
"94 508 LINE",
"210 508 LINE",
"276 722 LINE",
"194 722 LINE"
);
}
);
width = 593;
}
);
note = quotedblleft;
rightKerningGroup = quotedblleft;
unicode = 201C;
},
{
glyphname = guillemotleft;
lastChange = "2023-01-03 16:47:02 +0000";
layers = (
{
hints = (
{
horizontal = 1;
place = "{73, 388}";
type = Stem;
},
{
place = "{76, 420}";
type = Stem;
}
);
layerId = "6D1AFECB-6C65-4A9F-813E-BAE625DDDD1E";
paths = (
{
closed = 1;
nodes = (
"76 267 LINE",
"204 73 LINE",
"292 73 LINE",
"174 267 LINE",
"292 461 LINE",
"210 461 LINE"
);
},
{
closed = 1;
nodes = (
"280 267 LINE",
"408 73 LINE",
"496 73 LINE",
"378 267 LINE",
"496 461 LINE",
"414 461 LINE"
);
}
);
width = 593;
}
);
note = guillemotleft;
unicode = 00AB;
},
{
glyphname = guilsinglleft;
lastChange = "2023-01-03 16:47:02 +0000";
layers = (
{
hints = (
{
horizontal = 1;
place = "{73, 388}";
type = Stem;
},
{
place = "{51, 216}";
type = Stem;
}
);
layerId = "6D1AFECB-6C65-4A9F-813E-BAE625DDDD1E";
paths = (
{
closed = 1;
nodes = (
"179 73 LINE",
"267 73 LINE",
"149 267 LINE",
"267 461 LINE",
"185 461 LINE",
"51 267 LINE"
);
}
);
width = 370;
}
);
note = guilsinglleft;
unicode = 2039;
},
{
glyphname = guilsinglright;
lastChange = "2023-01-03 16:47:02 +0000";
layers = (
{
hints = (
{
horizontal = 1;
place = "{73, 388}";
type = Stem;
},
{
place = "{103, 216}";
type = Stem;
}
);
layerId = "6D1AFECB-6C65-4A9F-813E-BAE625DDDD1E";
paths = (
{
closed = 1;
nodes = (
"103 73 LINE",
"185 73 LINE",
"319 267 LINE",
"191 461 LINE",
"103 461 LINE",
"221 267 LINE"
);
}
);
width = 370;
}
);
note = guilsinglright;
unicode = 203A;
},
{
glyphname = fi;
lastChange = "2023-01-03 16:47:02 +0000";
layers = (
{
hints = (
{
horizontal = 1;
place = "{0, 21}";
target = up;
type = BottomGhost;
},
{
horizontal = 1;
place = "{434, 68}";
type = Stem;
},
{
horizontal = 1;
place = "{622, 100}";
type = Stem;
},
{
place = "{160, 98}";
type = Stem;
},
{
place = "{543, 98}";
type = Stem;
},
{
horizontal = 1;
place = "{660, 68}";
type = Stem;
}
);
layerId = "6D1AFECB-6C65-4A9F-813E-BAE625DDDD1E";
paths = (
{
closed = 1;
nodes = (
"160 0 LINE",
"258 0 LINE",
"258 434 LINE",
"419 434 LINE",
"419 502 LINE",
"258 502 LINE",
"258 547 LINE SMOOTH",
"258 631 OFFCURVE",
"293 660 OFFCURVE",
"367 660 CURVE SMOOTH",
"391 660 OFFCURVE",
"415 657 OFFCURVE",
"432 654 CURVE",
"432 722 LINE",
"403 726 OFFCURVE",
"369 728 OFFCURVE",
"341 728 CURVE SMOOTH",
"200 728 OFFCURVE",
"160 652 OFFCURVE",
"160 532 CURVE SMOOTH",
"160 502 LINE",
"29 502 LINE",
"29 434 LINE",
"160 434 LINE"
);
},
{
closed = 1;
nodes = (
"543 0 LINE",
"641 0 LINE",
"641 502 LINE",
"543 502 LINE"
);
},
{
closed = 1;
nodes = (
"543 622 LINE",
"641 622 LINE",
"641 722 LINE",
"543 722 LINE"
);
}
);
width = 740;
}
);
note = fi;
rightKerningGroup = f;
unicode = FB01;
},
{
glyphname = fl;
lastChange = "2023-01-03 16:47:02 +0000";
layers = (
{
hints = (
{
horizontal = 1;
place = "{0, 21}";
target = up;
type = BottomGhost;
},
{
horizontal = 1;
place = "{434, 68}";
type = Stem;
},
{
horizontal = 1;
place = "{660, 68}";
type = Stem;
},
{
place = "{160, 98}";
type = Stem;
},
{
place = "{543, 98}";
type = Stem;
},
{
horizontal = 1;
place = "{722, -20}";
target = down;
type = TopGhost;
}
);
layerId = "6D1AFECB-6C65-4A9F-813E-BAE625DDDD1E";
paths = (
{
closed = 1;
nodes = (
"258 0 LINE",
"258 434 LINE",
"419 434 LINE",
"419 502 LINE",
"258 502 LINE",
"258 547 LINE SMOOTH",
"258 631 OFFCURVE",
"293 660 OFFCURVE",
"367 660 CURVE SMOOTH",
"391 660 OFFCURVE",
"415 657 OFFCURVE",
"432 654 CURVE",
"432 722 LINE",
"403 726 OFFCURVE",
"369 728 OFFCURVE",
"341 728 CURVE SMOOTH",
"200 728 OFFCURVE",
"160 652 OFFCURVE",
"160 532 CURVE SMOOTH",
"160 502 LINE",
"29 502 LINE",
"29 434 LINE",
"160 434 LINE",
"160 0 LINE"
);
},
{
closed = 1;
nodes = (
"543 0 LINE",
"641 0 LINE",
"641 722 LINE",
"543 722 LINE"
);
}
);
width = 740;
}
);
note = fl;
rightKerningGroup = f;
unicode = FB02;
},
{
glyphname = endash;
lastChange = "2023-01-03 16:47:02 +0000";
layers = (
{
hints = (
{
horizontal = 1;
place = "{226, 82}";
type = Stem;
},
{
place = "{0, 500}";
type = Stem;
}
);
layerId = "6D1AFECB-6C65-4A9F-813E-BAE625DDDD1E";
paths = (
{
closed = 1;
nodes = (
"0 226 LINE",
"500 226 LINE",
"500 308 LINE",
"0 308 LINE"
);
}
);
width = 500;
}
);
note = endash;
unicode = 2013;
},
{
glyphname = dagger;
lastChange = "2023-01-03 16:47:02 +0000";
layers = (
{
hints = (
{
horizontal = 1;
place = "{0, 21}";
target = up;
type = BottomGhost;
},
{
horizontal = 1;
place = "{456, 82}";
type = Stem;
},
{
horizontal = 1;
place = "{722, -20}";
target = down;
type = TopGhost;
},
{
place = "{247, 98}";
type = Stem;
}
);
layerId = "6D1AFECB-6C65-4A9F-813E-BAE625DDDD1E";
paths = (
{
closed = 1;
nodes = (
"247 0 LINE",
"345 0 LINE",
"345 456 LINE",
"547 456 LINE",
"547 538 LINE",
"345 538 LINE",
"345 722 LINE",
"247 722 LINE",
"247 538 LINE",
"45 538 LINE",
"45 456 LINE",
"247 456 LINE"
);
}
);
width = 592;
}
);
note = dagger;
unicode = 2020;
},
{
glyphname = daggerdbl;
lastChange = "2023-01-03 16:47:02 +0000";
layers = (
{
hints = (
{
horizontal = 1;
place = "{0, 21}";
target = up;
type = BottomGhost;
},
{
horizontal = 1;
place = "{158, 82}";
type = Stem;
},
{
horizontal = 1;
place = "{482, 82}";
type = Stem;
},
{
horizontal = 1;
place = "{722, -20}";
target = down;
type = TopGhost;
},
{
place = "{247, 98}";
type = Stem;
}
);
layerId = "6D1AFECB-6C65-4A9F-813E-BAE625DDDD1E";
paths = (
{
closed = 1;
nodes = (
"247 0 LINE",
"345 0 LINE",
"345 158 LINE",
"547 158 LINE",
"547 240 LINE",
"345 240 LINE",
"345 482 LINE",
"547 482 LINE",
"547 564 LINE",
"345 564 LINE",
"345 722 LINE",
"247 722 LINE",
"247 564 LINE",
"45 564 LINE",
"45 482 LINE",
"247 482 LINE",
"247 240 LINE",
"45 240 LINE",
"45 158 LINE",
"247 158 LINE"
);
}
);
width = 592;
}
);
note = daggerdbl;
unicode = 2021;
},
{
glyphname = periodcentered;
lastChange = "2023-01-03 16:47:02 +0000";
layers = (
{
hints = (
{
horizontal = 1;
place = "{243, 134}";
type = Stem;
},
{
place = "{118, 134}";
type = Stem;
}
);
layerId = "6D1AFECB-6C65-4A9F-813E-BAE625DDDD1E";
paths = (
{
closed = 1;
nodes = (
"118 273 OFFCURVE",
"148 243 OFFCURVE",
"185 243 CURVE SMOOTH",
"222 243 OFFCURVE",
"252 273 OFFCURVE",
"252 310 CURVE SMOOTH",
"252 347 OFFCURVE",
"222 377 OFFCURVE",
"185 377 CURVE SMOOTH",
"148 377 OFFCURVE",
"118 347 OFFCURVE",
"118 310 CURVE SMOOTH"
);
}
);
width = 370;
}
);
note = periodcentered;
unicode = 00B7;
},
{
glyphname = paragraph;
lastChange = "2023-01-03 16:47:02 +0000";
layers = (
{
hints = (
{
horizontal = 1;
place = "{-19, 21}";
target = up;
type = BottomGhost;
},
{
horizontal = 1;
place = "{648, 74}";
type = Stem;
},
{
place = "{236, 88}";
type = Stem;
},
{
place = "{439, 88}";
type = Stem;
}
);
layerId = "6D1AFECB-6C65-4A9F-813E-BAE625DDDD1E";
paths = (
{
closed = 1;
nodes = (
"236 -19 LINE",
"324 -19 LINE",
"324 648 LINE",
"439 648 LINE",
"439 -19 LINE",
"527 -19 LINE",
"527 722 LINE",
"256 722 LINE SMOOTH",
"92 722 OFFCURVE",
"20 678 OFFCURVE",
"20 571 CURVE SMOOTH",
"20 481 OFFCURVE",
"103 425 OFFCURVE",
"236 425 CURVE"
);
}
);
width = 600;
}
);
note = paragraph;
unicode = 00B6;
},
{
glyphname = bullet;
lastChange = "2023-01-03 16:47:02 +0000";
layers = (
{
hints = (
{
horizontal = 1;
place = "{180, 362}";
type = Stem;
},
{
place = "{69, 362}";
type = Stem;
}
);
layerId = "6D1AFECB-6C65-4A9F-813E-BAE625DDDD1E";
paths = (
{
closed = 1;
nodes = (
"69 261 OFFCURVE",
"150 180 OFFCURVE",
"250 180 CURVE SMOOTH",
"350 180 OFFCURVE",
"431 261 OFFCURVE",
"431 361 CURVE SMOOTH",
"431 461 OFFCURVE",
"350 542 OFFCURVE",
"250 542 CURVE SMOOTH",
"150 542 OFFCURVE",
"69 461 OFFCURVE",
"69 361 CURVE SMOOTH"
);
}
);
width = 500;
}
);
note = bullet;
unicode = 2022;
},
{
glyphname = quotesinglbase;
lastChange = "2023-01-03 16:47:02 +0000";
layers = (
{
hints = (
{
horizontal = 1;
place = "{-162, 214}";
type = Stem;
},
{
place = "{94, 182}";
type = Stem;
}
);
layerId = "6D1AFECB-6C65-4A9F-813E-BAE625DDDD1E";
paths = (
{
closed = 1;
nodes = (
"94 -162 LINE",
"176 -162 LINE",
"276 52 LINE",
"160 52 LINE"
);
}
);
width = 370;
}
);
note = quotesinglbase;
unicode = 201A;
},
{
glyphname = quotedblbase;
lastChange = "2023-01-03 16:47:02 +0000";
layers = (
{
hints = (
{
horizontal = 1;
place = "{-162, 214}";
type = Stem;
},
{
place = "{94, 405}";
type = Stem;
}
);
layerId = "6D1AFECB-6C65-4A9F-813E-BAE625DDDD1E";
paths = (
{
closed = 1;
nodes = (
"94 -162 LINE",
"176 -162 LINE",
"276 52 LINE",
"160 52 LINE"
);
},
{
closed = 1;
nodes = (
"317 -162 LINE",
"399 -162 LINE",
"499 52 LINE",
"383 52 LINE"
);
}
);
width = 593;
}
);
note = quotedblbase;
unicode = 201E;
},
{
glyphname = quotedblright;
lastChange = "2023-01-03 16:47:02 +0000";
layers = (
{
hints = (
{
horizontal = 1;
place = "{508, 214}";
type = Stem;
},
{
place = "{94, 405}";
type = Stem;
}
);
layerId = "6D1AFECB-6C65-4A9F-813E-BAE625DDDD1E";
paths = (
{
closed = 1;
nodes = (
"94 508 LINE",
"176 508 LINE",
"276 722 LINE",
"160 722 LINE"
);
},
{
closed = 1;
nodes = (
"317 508 LINE",
"399 508 LINE",
"499 722 LINE",
"383 722 LINE"
);
}
);
width = 593;
}
);
leftKerningGroup = quotedblright;
note = quotedblright;
unicode = 201D;
},
{
glyphname = guillemotright;
lastChange = "2023-01-03 16:47:02 +0000";
layers = (
{
hints = (
{
horizontal = 1;
place = "{73, 388}";
type = Stem;
},
{
place = "{97, 420}";
type = Stem;
}
);
layerId = "6D1AFECB-6C65-4A9F-813E-BAE625DDDD1E";
paths = (
{
closed = 1;
nodes = (
"301 73 LINE",
"383 73 LINE",
"517 267 LINE",
"389 461 LINE",
"301 461 LINE",
"419 267 LINE"
);
},
{
closed = 1;
nodes = (
"97 73 LINE",
"179 73 LINE",
"313 267 LINE",
"185 461 LINE",
"97 461 LINE",
"215 267 LINE"
);
}
);
width = 593;
}
);
note = guillemotright;
unicode = 00BB;
},
{
glyphname = ellipsis;
lastChange = "2023-01-03 16:47:02 +0000";
layers = (
{
hints = (
{
horizontal = 1;
place = "{0, 110}";
type = Stem;
}
);
layerId = "6D1AFECB-6C65-4A9F-813E-BAE625DDDD1E";
paths = (
{
closed = 1;
nodes = (
"112 0 LINE",
"222 0 LINE",
"222 110 LINE",
"112 110 LINE"
);
},
{
closed = 1;
nodes = (
"445 0 LINE",
"555 0 LINE",
"555 110 LINE",
"445 110 LINE"
);
},
{
closed = 1;
nodes = (
"778 0 LINE",
"888 0 LINE",
"888 110 LINE",
"778 110 LINE"
);
}
);
width = 1000;
}
);
note = ellipsis;
unicode = 2026;
},
{
glyphname = perthousand;
lastChange = "2023-01-03 16:47:02 +0000";
layers = (
{
hints = (
{
horizontal = 1;
place = "{-19, 58}";
type = Stem;
},
{
horizontal = 1;
place = "{299, 58}";
type = Stem;
},
{
horizontal = 1;
place = "{653, 58}";
type = Stem;
},
{
place = "{69, 74}";
type = Stem;
},
{
place = "{349, 74}";
type = Stem;
},
{
place = "{491, 74}";
type = Stem;
},
{
place = "{771, 74}";
type = Stem;
},
{
place = "{898, 74}";
type = Stem;
},
{
place = "{1178, 74}";
type = Stem;
},
{
horizontal = 1;
place = "{335, 58}";
type = Stem;
},
{
horizontal = 1;
place = "{721, -20}";
target = down;
type = TopGhost;
}
);
layerId = "6D1AFECB-6C65-4A9F-813E-BAE625DDDD1E";
paths = (
{
closed = 1;
nodes = (
"491 55 OFFCURVE",
"553 -19 OFFCURVE",
"668 -19 CURVE SMOOTH",
"783 -19 OFFCURVE",
"845 55 OFFCURVE",
"845 169 CURVE SMOOTH",
"845 283 OFFCURVE",
"783 357 OFFCURVE",
"668 357 CURVE SMOOTH",
"553 357 OFFCURVE",
"491 283 OFFCURVE",
"491 169 CURVE SMOOTH"
);
},
{
closed = 1;
nodes = (
"565 261 OFFCURVE",
"612 299 OFFCURVE",
"668 299 CURVE SMOOTH",
"725 299 OFFCURVE",
"771 261 OFFCURVE",
"771 169 CURVE SMOOTH",
"771 77 OFFCURVE",
"725 39 OFFCURVE",
"668 39 CURVE SMOOTH",
"612 39 OFFCURVE",
"565 77 OFFCURVE",
"565 169 CURVE SMOOTH"
);
},
{
closed = 1;
nodes = (
"898 55 OFFCURVE",
"960 -19 OFFCURVE",
"1075 -19 CURVE SMOOTH",
"1190 -19 OFFCURVE",
"1252 55 OFFCURVE",
"1252 169 CURVE SMOOTH",
"1252 283 OFFCURVE",
"1190 357 OFFCURVE",
"1075 357 CURVE SMOOTH",
"960 357 OFFCURVE",
"898 283 OFFCURVE",
"898 169 CURVE SMOOTH"
);
},
{
closed = 1;
nodes = (
"972 261 OFFCURVE",
"1019 299 OFFCURVE",
"1075 299 CURVE SMOOTH",
"1132 299 OFFCURVE",
"1178 261 OFFCURVE",
"1178 169 CURVE SMOOTH",
"1178 77 OFFCURVE",
"1132 39 OFFCURVE",
"1075 39 CURVE SMOOTH",
"1019 39 OFFCURVE",
"972 77 OFFCURVE",
"972 169 CURVE SMOOTH"
);
},
{
closed = 1;
nodes = (
"69 409 OFFCURVE",
"131 335 OFFCURVE",
"246 335 CURVE SMOOTH",
"361 335 OFFCURVE",
"423 409 OFFCURVE",
"423 523 CURVE SMOOTH",
"423 637 OFFCURVE",
"361 711 OFFCURVE",
"246 711 CURVE SMOOTH",
"131 711 OFFCURVE",
"69 637 OFFCURVE",
"69 523 CURVE SMOOTH"
);
},
{
closed = 1;
nodes = (
"143 615 OFFCURVE",
"190 653 OFFCURVE",
"246 653 CURVE SMOOTH",
"303 653 OFFCURVE",
"349 615 OFFCURVE",
"349 523 CURVE SMOOTH",
"349 431 OFFCURVE",
"303 393 OFFCURVE",
"246 393 CURVE SMOOTH",
"190 393 OFFCURVE",
"143 431 OFFCURVE",
"143 523 CURVE SMOOTH"
);
},
{
closed = 1;
nodes = (
"163 -29 LINE",
"245 -29 LINE",
"752 721 LINE",
"670 721 LINE"
);
}
);
width = 1333;
}
);
note = perthousand;
unicode = 2030;
},
{
glyphname = questiondown;
lastChange = "2023-01-03 16:47:02 +0000";
layers = (
{
hints = (
{
horizontal = 1;
place = "{-206, 74}";
type = Stem;
},
{
horizontal = 1;
place = "{425, 110}";
type = Stem;
},
{
place = "{61, 104}";
type = Stem;
},
{
place = "{281, 110}";
type = Stem;
},
{
place = "{295, 82}";
type = Stem;
}
);
layerId = "6D1AFECB-6C65-4A9F-813E-BAE625DDDD1E";
paths = (
{
closed = 1;
nodes = (
"295 292 LINE SMOOTH",
"295 269 OFFCURVE",
"290 252 OFFCURVE",
"269 236 CURVE SMOOTH",
"180 165 LINE SMOOTH",
"88 91 OFFCURVE",
"61 41 OFFCURVE",
"61 -20 CURVE SMOOTH",
"61 -168 OFFCURVE",
"194 -206 OFFCURVE",
"312 -206 CURVE SMOOTH",
"371 -206 OFFCURVE",
"440 -196 OFFCURVE",
"500 -187 CURVE",
"500 -105 LINE",
"451 -120 OFFCURVE",
"391 -132 OFFCURVE",
"334 -132 CURVE SMOOTH",
"226 -132 OFFCURVE",
"165 -93 OFFCURVE",
"165 -18 CURVE SMOOTH",
"165 20 OFFCURVE",
"180 61 OFFCURVE",
"218 93 CURVE SMOOTH",
"330 188 LINE SMOOTH",
"362 216 OFFCURVE",
"377 243 OFFCURVE",
"377 277 CURVE SMOOTH",
"377 366 LINE",
"295 366 LINE"
);
},
{
closed = 1;
nodes = (
"281 425 LINE",
"391 425 LINE",
"391 535 LINE",
"281 535 LINE"
);
}
);
width = 593;
}
);
note = questiondown;
unicode = 00BF;
},
{
glyphname = grave;
lastChange = "2023-01-03 16:47:02 +0000";
layers = (
{
hints = (
{
horizontal = 1;
place = "{582, 140}";
type = Stem;
},
{
place = "{2, 236}";
type = Stem;
}
);
layerId = "6D1AFECB-6C65-4A9F-813E-BAE625DDDD1E";
paths = (
{
closed = 1;
nodes = (
"156 582 LINE",
"238 582 LINE",
"124 722 LINE",
"2 722 LINE"
);
}
);
width = 296;
}
);
note = grave;
unicode = 0060;
},
{
glyphname = acute;
lastChange = "2023-01-03 16:47:02 +0000";
layers = (
{
hints = (
{
horizontal = 1;
place = "{582, 140}";
type = Stem;
},
{
place = "{58, 236}";
type = Stem;
}
);
layerId = "6D1AFECB-6C65-4A9F-813E-BAE625DDDD1E";
paths = (
{
closed = 1;
nodes = (
"58 582 LINE",
"140 582 LINE",
"294 722 LINE",
"172 722 LINE"
);
}
);
width = 296;
}
);
note = acute;
unicode = 00B4;
},
{
glyphname = circumflex;
lastChange = "2023-01-03 16:47:02 +0000";
layers = (
{
hints = (
{
horizontal = 1;
place = "{582, 140}";
type = Stem;
},
{
place = "{-29, 354}";
type = Stem;
},
{
horizontal = 1;
place = "{684, 38}";
type = Stem;
}
);
layerId = "6D1AFECB-6C65-4A9F-813E-BAE625DDDD1E";
paths = (
{
closed = 1;
nodes = (
"243 582 LINE",
"325 582 LINE",
"206 722 LINE",
"90 722 LINE",
"-29 582 LINE",
"53 582 LINE",
"148 684 LINE"
);
}
);
width = 296;
}
);
note = circumflex;
unicode = 02C6;
},
{
glyphname = tilde;
lastChange = "2023-01-03 16:47:02 +0000";
layers = (
{
hints = (
{
horizontal = 1;
place = "{612, 68}";
type = Stem;
},
{
place = "{-29, 58}";
type = Stem;
},
{
horizontal = 1;
place = "{648, 74}";
type = Stem;
},
{
horizontal = 1;
place = "{606, 116}";
type = Stem;
}
);
layerId = "6D1AFECB-6C65-4A9F-813E-BAE625DDDD1E";
paths = (
{
closed = 1;
nodes = (
"267 722 LINE",
"264 694 OFFCURVE",
"244 680 OFFCURVE",
"221 680 CURVE SMOOTH",
"196 680 OFFCURVE",
"106 722 OFFCURVE",
"58 722 CURVE SMOOTH",
"31 722 OFFCURVE",
"10 712 OFFCURVE",
"-5 693 CURVE SMOOTH",
"-20 674 OFFCURVE",
"-28 646 OFFCURVE",
"-29 606 CURVE",
"29 606 LINE",
"30 629 OFFCURVE",
"45 648 OFFCURVE",
"66 648 CURVE SMOOTH",
"96 648 OFFCURVE",
"179 612 OFFCURVE",
"232 612 CURVE SMOOTH",
"293 612 OFFCURVE",
"323 648 OFFCURVE",
"325 722 CURVE"
);
}
);
width = 296;
}
);
note = tilde;
unicode = 02DC;
},
{
glyphname = macron;
lastChange = "2023-01-03 16:47:02 +0000";
layers = (
{
hints = (
{
horizontal = 1;
place = "{637, 68}";
type = Stem;
},
{
place = "{-25, 346}";
type = Stem;
}
);
layerId = "6D1AFECB-6C65-4A9F-813E-BAE625DDDD1E";
paths = (
{
closed = 1;
nodes = (
"-25 637 LINE",
"321 637 LINE",
"321 705 LINE",
"-25 705 LINE"
);
}
);
width = 296;
}
);
note = macron;
unicode = 00AF;
},
{
glyphname = breve;
lastChange = "2023-01-03 16:47:02 +0000";
layers = (
{
hints = (
{
horizontal = 1;
place = "{582, 68}";
type = Stem;
},
{
horizontal = 1;
place = "{722, -20}";
target = down;
type = TopGhost;
},
{
place = "{-29, 354}";
type = Stem;
}
);
layerId = "6D1AFECB-6C65-4A9F-813E-BAE625DDDD1E";
paths = (
{
closed = 1;
nodes = (
"-29 722 LINE",
"-11 620 OFFCURVE",
"61 582 OFFCURVE",
"148 582 CURVE SMOOTH",
"235 582 OFFCURVE",
"307 620 OFFCURVE",
"325 722 CURVE",
"273 722 LINE",
"249 676 OFFCURVE",
"202 650 OFFCURVE",
"148 650 CURVE SMOOTH",
"94 650 OFFCURVE",
"47 676 OFFCURVE",
"23 722 CURVE"
);
}
);
width = 296;
}
);
note = breve;
unicode = 02D8;
},
{
glyphname = dotaccent;
lastChange = "2023-01-03 16:47:02 +0000";
layers = (
{
hints = (
{
horizontal = 1;
place = "{622, 100}";
type = Stem;
},
{
place = "{99, 98}";
type = Stem;
}
);
layerId = "6D1AFECB-6C65-4A9F-813E-BAE625DDDD1E";
paths = (
{
closed = 1;
nodes = (
"99 622 LINE",
"197 622 LINE",
"197 722 LINE",
"99 722 LINE"
);
}
);
width = 296;
}
);
note = dotaccent;
unicode = 02D9;
},
{
glyphname = dieresis;
lastChange = "2023-01-03 16:47:02 +0000";
layers = (
{
hints = (
{
horizontal = 1;
place = "{622, 100}";
type = Stem;
},
{
place = "{-4, 98}";
type = Stem;
},
{
place = "{202, 98}";
type = Stem;
}
);
layerId = "6D1AFECB-6C65-4A9F-813E-BAE625DDDD1E";
paths = (
{
closed = 1;
nodes = (
"-4 622 LINE",
"94 622 LINE",
"94 722 LINE",
"-4 722 LINE"
);
},
{
closed = 1;
nodes = (
"202 622 LINE",
"300 622 LINE",
"300 722 LINE",
"202 722 LINE"
);
}
);
width = 296;
}
);
note = dieresis;
unicode = 00A8;
},
{
glyphname = ring;
lastChange = "2023-01-03 16:47:02 +0000";
layers = (
{
hints = (
{
horizontal = 1;
place = "{565, 46}";
type = Stem;
},
{
horizontal = 1;
place = "{723, 46}";
type = Stem;
},
{
place = "{46, 46}";
type = Stem;
},
{
place = "{204, 46}";
type = Stem;
}
);
layerId = "6D1AFECB-6C65-4A9F-813E-BAE625DDDD1E";
paths = (
{
closed = 1;
nodes = (
"46 611 OFFCURVE",
"92 565 OFFCURVE",
"148 565 CURVE SMOOTH",
"204 565 OFFCURVE",
"250 611 OFFCURVE",
"250 667 CURVE SMOOTH",
"250 723 OFFCURVE",
"204 769 OFFCURVE",
"148 769 CURVE SMOOTH",
"92 769 OFFCURVE",
"46 723 OFFCURVE",
"46 667 CURVE SMOOTH"
);
},
{
closed = 1;
nodes = (
"92 698 OFFCURVE",
"117 723 OFFCURVE",
"148 723 CURVE SMOOTH",
"179 723 OFFCURVE",
"204 698 OFFCURVE",
"204 667 CURVE SMOOTH",
"204 636 OFFCURVE",
"179 611 OFFCURVE",
"148 611 CURVE SMOOTH",
"117 611 OFFCURVE",
"92 636 OFFCURVE",
"92 667 CURVE SMOOTH"
);
}
);
width = 296;
}
);
note = ring;
unicode = 02DA;
},
{
glyphname = cedilla;
lastChange = "2023-01-03 16:47:02 +0000";
layers = (
{
hints = (
{
horizontal = 1;
place = "{-206, 46}";
type = Stem;
},
{
horizontal = 1;
place = "{-96, 38}";
type = Stem;
},
{
place = "{177, 88}";
type = Stem;
},
{
horizontal = 1;
place = "{-206, 21}";
target = up;
type = BottomGhost;
}
);
layerId = "6D1AFECB-6C65-4A9F-813E-BAE625DDDD1E";
paths = (
{
closed = 1;
nodes = (
"65 -81 LINE",
"84 -104 LINE",
"106 -98 OFFCURVE",
"117 -96 OFFCURVE",
"126 -96 CURVE SMOOTH",
"160 -96 OFFCURVE",
"177 -109 OFFCURVE",
"177 -127 CURVE SMOOTH",
"177 -149 OFFCURVE",
"148 -160 OFFCURVE",
"113 -160 CURVE SMOOTH",
"86 -160 OFFCURVE",
"54 -152 OFFCURVE",
"32 -144 CURVE",
"17 -185 LINE",
"49 -197 OFFCURVE",
"95 -206 OFFCURVE",
"135 -206 CURVE SMOOTH",
"201 -206 OFFCURVE",
"265 -183 OFFCURVE",
"265 -127 CURVE SMOOTH",
"265 -86 OFFCURVE",
"225 -58 OFFCURVE",
"168 -58 CURVE SMOOTH",
"157 -58 OFFCURVE",
"141 -60 OFFCURVE",
"127 -65 CURVE",
"125 -63 LINE",
"181 9 LINE",
"129 9 LINE"
);
}
);
width = 296;
}
);
note = cedilla;
unicode = 00B8;
},
{
glyphname = hungarumlaut;
lastChange = "2023-01-03 16:47:02 +0000";
layers = (
{
hints = (
{
horizontal = 1;
place = "{582, 140}";
type = Stem;
},
{
place = "{-42, 436}";
type = Stem;
}
);
layerId = "6D1AFECB-6C65-4A9F-813E-BAE625DDDD1E";
paths = (
{
closed = 1;
nodes = (
"-42 582 LINE",
"40 582 LINE",
"194 722 LINE",
"72 722 LINE"
);
},
{
closed = 1;
nodes = (
"158 582 LINE",
"240 582 LINE",
"394 722 LINE",
"272 722 LINE"
);
}
);
width = 296;
}
);
note = hungarumlaut;
unicode = 02DD;
},
{
glyphname = ogonek;
lastChange = "2023-01-03 16:47:02 +0000";
layers = (
{
hints = (
{
horizontal = 1;
place = "{-206, 46}";
type = Stem;
},
{
place = "{2, 88}";
type = Stem;
}
);
layerId = "6D1AFECB-6C65-4A9F-813E-BAE625DDDD1E";
paths = (
{
closed = 1;
nodes = (
"142 0 LINE",
"68 -27 OFFCURVE",
"2 -88 OFFCURVE",
"2 -138 CURVE SMOOTH",
"2 -179 OFFCURVE",
"46 -206 OFFCURVE",
"129 -206 CURVE SMOOTH",
"167 -206 OFFCURVE",
"217 -200 OFFCURVE",
"244 -192 CURVE",
"227 -150 LINE",
"207 -157 OFFCURVE",
"184 -160 OFFCURVE",
"164 -160 CURVE SMOOTH",
"121 -160 OFFCURVE",
"90 -146 OFFCURVE",
"90 -120 CURVE SMOOTH",
"90 -88 OFFCURVE",
"113 -58 OFFCURVE",
"200 0 CURVE"
);
}
);
width = 296;
}
);
note = ogonek;
unicode = 02DB;
},
{
glyphname = caron;
lastChange = "2023-01-03 16:47:02 +0000";
layers = (
{
hints = (
{
horizontal = 1;
place = "{582, 140}";
type = Stem;
},
{
place = "{-29, 354}";
type = Stem;
}
);
layerId = "6D1AFECB-6C65-4A9F-813E-BAE625DDDD1E";
paths = (
{
closed = 1;
nodes = (
"90 582 LINE",
"206 582 LINE",
"325 722 LINE",
"243 722 LINE",
"148 620 LINE",
"53 722 LINE",
"-29 722 LINE"
);
}
);
width = 296;
}
);
note = caron;
unicode = 02C7;
},
{
glyphname = emdash;
lastChange = "2023-01-03 16:47:02 +0000";
layers = (
{
hints = (
{
horizontal = 1;
place = "{226, 82}";
type = Stem;
},
{
place = "{0, 1000}";
type = Stem;
}
);
layerId = "6D1AFECB-6C65-4A9F-813E-BAE625DDDD1E";
paths = (
{
closed = 1;
nodes = (
"0 226 LINE",
"1000 226 LINE",
"1000 308 LINE",
"0 308 LINE"
);
}
);
width = 1000;
}
);
note = emdash;
unicode = 2014;
},
{
glyphname = AE;
lastChange = "2023-01-03 16:47:02 +0000";
layers = (
{
hints = (
{
horizontal = 1;
place = "{0, 82}";
type = Stem;
},
{
horizontal = 1;
place = "{198, 82}";
type = Stem;
},
{
horizontal = 1;
place = "{330, 82}";
type = Stem;
},
{
horizontal = 1;
place = "{634, 88}";
type = Stem;
},
{
place = "{12, 1231}";
type = Stem;
},
{
horizontal = 1;
place = "{640, 82}";
type = Stem;
}
);
layerId = "6D1AFECB-6C65-4A9F-813E-BAE625DDDD1E";
paths = (
{
closed = 1;
nodes = (
"752 0 LINE",
"1243 0 LINE",
"1243 82 LINE",
"843 82 LINE",
"801 330 LINE",
"1204 330 LINE",
"1204 412 LINE",
"782 412 LINE",
"745 634 LINE",
"1231 634 LINE",
"1231 722 LINE",
"563 722 LINE",
"12 0 LINE",
"137 0 LINE",
"287 198 LINE",
"719 198 LINE"
);
},
{
closed = 1;
nodes = (
"701 280 LINE",
"350 280 LINE",
"625 640 LINE",
"640 640 LINE"
);
}
);
width = 1333;
}
);
leftKerningGroup = A;
note = AE;
unicode = 00C6;
},
{
glyphname = ordfeminine;
lastChange = "2023-01-03 16:47:02 +0000";
layers = (
{
hints = (
{
horizontal = 1;
place = "{387, 52}";
type = Stem;
},
{
horizontal = 1;
place = "{538, 52}";
type = Stem;
},
{
horizontal = 1;
place = "{659, 52}";
type = Stem;
},
{
place = "{318, 74}";
type = Stem;
},
{
horizontal = 1;
place = "{397, 21}";
target = up;
type = BottomGhost;
},
{
place = "{38, 82}";
type = Stem;
}
);
layerId = "6D1AFECB-6C65-4A9F-813E-BAE625DDDD1E";
paths = (
{
closed = 1;
nodes = (
"322 397 LINE",
"396 397 LINE",
"394 414 OFFCURVE",
"392 438 OFFCURVE",
"392 456 CURVE SMOOTH",
"392 604 LINE SMOOTH",
"392 679 OFFCURVE",
"326 711 OFFCURVE",
"230 711 CURVE SMOOTH",
"151 711 OFFCURVE",
"68 692 OFFCURVE",
"60 616 CURVE",
"142 616 LINE",
"146 643 OFFCURVE",
"183 659 OFFCURVE",
"223 659 CURVE SMOOTH",
"279 659 OFFCURVE",
"318 641 OFFCURVE",
"318 594 CURVE SMOOTH",
"318 590 LINE",
"227 590 LINE SMOOTH",
"88 590 OFFCURVE",
"38 554 OFFCURVE",
"38 487 CURVE SMOOTH",
"38 429 OFFCURVE",
"95 387 OFFCURVE",
"184 387 CURVE SMOOTH",
"245 387 OFFCURVE",
"287 395 OFFCURVE",
"320 440 CURVE",
"322 440 LINE"
);
},
{
closed = 1;
nodes = (
"318 528 LINE SMOOTH",
"318 471 OFFCURVE",
"277 439 OFFCURVE",
"201 439 CURVE SMOOTH",
"147 439 OFFCURVE",
"120 469 OFFCURVE",
"120 490 CURVE SMOOTH",
"120 528 OFFCURVE",
"171 538 OFFCURVE",
"267 538 CURVE SMOOTH",
"318 538 LINE"
);
}
);
width = 434;
}
);
note = ordfeminine;
unicode = 00AA;
},
{
glyphname = Lslash;
lastChange = "2023-01-03 16:47:02 +0000";
layers = (
{
hints = (
{
horizontal = 1;
place = "{0, 82}";
type = Stem;
},
{
horizontal = 1;
place = "{722, -20}";
target = down;
type = TopGhost;
},
{
place = "{121, 104}";
type = Stem;
}
);
layerId = "6D1AFECB-6C65-4A9F-813E-BAE625DDDD1E";
paths = (
{
closed = 1;
nodes = (
"121 0 LINE",
"641 0 LINE",
"641 82 LINE",
"225 82 LINE",
"225 317 LINE",
"462 444 LINE",
"462 526 LINE",
"225 399 LINE",
"225 722 LINE",
"121 722 LINE",
"121 343 LINE",
"26 292 LINE",
"26 210 LINE",
"121 261 LINE"
);
}
);
width = 667;
}
);
note = Lslash;
rightKerningGroup = L;
unicode = 0141;
},
{
glyphname = Oslash;
lastChange = "2023-01-03 16:47:02 +0000";
layers = (
{
hints = (
{
horizontal = 1;
place = "{-19, 82}";
type = Stem;
},
{
horizontal = 1;
place = "{659, 82}";
type = Stem;
},
{
place = "{75, 110}";
type = Stem;
},
{
place = "{777, 110}";
type = Stem;
},
{
horizontal = 1;
place = "{736, -20}";
target = down;
type = TopGhost;
},
{
horizontal = 1;
place = "{-13, 21}";
target = up;
type = BottomGhost;
}
);
layerId = "6D1AFECB-6C65-4A9F-813E-BAE625DDDD1E";
paths = (
{
closed = 1;
nodes = (
"261 152 LINE",
"213 203 OFFCURVE",
"185 275 OFFCURVE",
"185 361 CURVE SMOOTH",
"185 539 OFFCURVE",
"306 659 OFFCURVE",
"481 659 CURVE SMOOTH",
"553 659 OFFCURVE",
"616 639 OFFCURVE",
"664 603 CURVE"
);
},
{
closed = 1;
nodes = (
"701 570 LINE",
"750 517 OFFCURVE",
"777 446 OFFCURVE",
"777 361 CURVE SMOOTH",
"777 183 OFFCURVE",
"656 63 OFFCURVE",
"481 63 CURVE SMOOTH",
"410 63 OFFCURVE",
"348 83 OFFCURVE",
"298 120 CURVE"
);
},
{
closed = 1;
nodes = (
"149 -46 LINE",
"233 47 LINE",
"294 6 OFFCURVE",
"375 -19 OFFCURVE",
"481 -19 CURVE SMOOTH",
"784 -19 OFFCURVE",
"887 189 OFFCURVE",
"887 361 CURVE SMOOTH",
"887 459 OFFCURVE",
"853 569 OFFCURVE",
"768 645 CURVE",
"849 736 LINE",
"811 768 LINE",
"728 675 LINE",
"668 716 OFFCURVE",
"587 741 OFFCURVE",
"481 741 CURVE SMOOTH",
"178 741 OFFCURVE",
"75 533 OFFCURVE",
"75 361 CURVE SMOOTH",
"75 262 OFFCURVE",
"109 152 OFFCURVE",
"194 77 CURVE",
"113 -13 LINE"
);
}
);
width = 962;
}
);
leftKerningGroup = O;
note = Oslash;
rightKerningGroup = O;
unicode = 00D8;
},
{
glyphname = OE;
lastChange = "2023-01-03 16:47:02 +0000";
layers = (
{
hints = (
{
horizontal = 1;
place = "{0, 82}";
type = Stem;
},
{
horizontal = 1;
place = "{330, 82}";
type = Stem;
},
{
horizontal = 1;
place = "{640, 82}";
type = Stem;
},
{
place = "{75, 104}";
type = Stem;
},
{
place = "{677, 104}";
type = Stem;
},
{
horizontal = 1;
place = "{-6, 82}";
type = Stem;
},
{
horizontal = 1;
place = "{646, 82}";
type = Stem;
}
);
layerId = "6D1AFECB-6C65-4A9F-813E-BAE625DDDD1E";
paths = (
{
closed = 1;
nodes = (
"677 82 LINE",
"634 78 OFFCURVE",
"584 76 OFFCURVE",
"534 76 CURVE SMOOTH",
"296 76 OFFCURVE",
"179 187 OFFCURVE",
"179 363 CURVE SMOOTH",
"179 539 OFFCURVE",
"300 646 OFFCURVE",
"549 646 CURVE SMOOTH",
"593 646 OFFCURVE",
"635 643 OFFCURVE",
"677 640 CURVE"
);
},
{
closed = 1;
nodes = (
"1243 82 LINE",
"781 82 LINE",
"781 330 LINE",
"1196 330 LINE",
"1196 412 LINE",
"781 412 LINE",
"781 640 LINE",
"1227 640 LINE",
"1227 722 LINE",
"837 722 LINE SMOOTH",
"803 722 OFFCURVE",
"754 723 OFFCURVE",
"696 725 CURVE SMOOTH",
"665 726 OFFCURVE",
"625 728 OFFCURVE",
"600 728 CURVE SMOOTH",
"410 728 OFFCURVE",
"318 716 OFFCURVE",
"209 640 CURVE SMOOTH",
"109 570 OFFCURVE",
"75 467 OFFCURVE",
"75 357 CURVE SMOOTH",
"75 265 OFFCURVE",
"106 171 OFFCURVE",
"171 114 CURVE SMOOTH",
"269 28 OFFCURVE",
"376 -6 OFFCURVE",
"572 -6 CURVE SMOOTH",
"611 -6 OFFCURVE",
"649 -5 OFFCURVE",
"687 -3 CURVE SMOOTH",
"725 -1 OFFCURVE",
"764 0 OFFCURVE",
"802 0 CURVE SMOOTH",
"1243 0 LINE"
);
}
);
width = 1333;
}
);
leftKerningGroup = O;
note = OE;
rightKerningGroup = O;
unicode = 0152;
},
{
glyphname = ordmasculine;
lastChange = "2023-01-03 16:47:02 +0000";
layers = (
{
hints = (
{
horizontal = 1;
place = "{387, 52}";
type = Stem;
},
{
horizontal = 1;
place = "{659, 52}";
type = Stem;
},
{
place = "{29, 82}";
type = Stem;
},
{
place = "{370, 82}";
type = Stem;
}
);
layerId = "6D1AFECB-6C65-4A9F-813E-BAE625DDDD1E";
paths = (
{
closed = 1;
nodes = (
"29 445 OFFCURVE",
"101 387 OFFCURVE",
"241 387 CURVE SMOOTH",
"380 387 OFFCURVE",
"452 445 OFFCURVE",
"452 549 CURVE SMOOTH",
"452 652 OFFCURVE",
"380 711 OFFCURVE",
"241 711 CURVE SMOOTH",
"101 711 OFFCURVE",
"29 652 OFFCURVE",
"29 549 CURVE SMOOTH"
);
},
{
closed = 1;
nodes = (
"111 617 OFFCURVE",
"166 659 OFFCURVE",
"241 659 CURVE SMOOTH",
"315 659 OFFCURVE",
"370 617 OFFCURVE",
"370 541 CURVE SMOOTH",
"370 484 OFFCURVE",
"313 439 OFFCURVE",
"241 439 CURVE SMOOTH",
"168 439 OFFCURVE",
"111 484 OFFCURVE",
"111 541 CURVE SMOOTH"
);
}
);
width = 481;
}
);
note = ordmasculine;
unicode = 00BA;
},
{
glyphname = ae;
lastChange = "2023-01-03 16:47:02 +0000";
layers = (
{
hints = (
{
horizontal = 1;
place = "{-19, 68}";
type = Stem;
},
{
horizontal = 1;
place = "{225, 68}";
type = Stem;
},
{
horizontal = 1;
place = "{453, 68}";
type = Stem;
},
{
place = "{56, 98}";
type = Stem;
},
{
place = "{511, 88}";
type = Stem;
},
{
place = "{944, 110}";
type = Stem;
}
);
layerId = "6D1AFECB-6C65-4A9F-813E-BAE625DDDD1E";
paths = (
{
closed = 1;
nodes = (
"511 293 LINE",
"323 293 LINE SMOOTH",
"153 293 OFFCURVE",
"56 249 OFFCURVE",
"56 138 CURVE SMOOTH",
"56 42 OFFCURVE",
"159 -19 OFFCURVE",
"296 -19 CURVE SMOOTH",
"400 -19 OFFCURVE",
"499 4 OFFCURVE",
"551 102 CURVE",
"587 34 OFFCURVE",
"673 -19 OFFCURVE",
"786 -19 CURVE SMOOTH",
"882 -19 OFFCURVE",
"1018 17 OFFCURVE",
"1041 151 CURVE",
"937 151 LINE",
"922 80 OFFCURVE",
"855 49 OFFCURVE",
"780 49 CURVE SMOOTH",
"673 49 OFFCURVE",
"604 129 OFFCURVE",
"599 225 CURVE",
"1054 225 LINE",
"1052 393 OFFCURVE",
"968 521 OFFCURVE",
"783 521 CURVE SMOOTH",
"691 521 OFFCURVE",
"614 491 OFFCURVE",
"563 417 CURVE",
"519 496 OFFCURVE",
"449 521 OFFCURVE",
"334 521 CURVE SMOOTH",
"220 521 OFFCURVE",
"103 475 OFFCURVE",
"91 358 CURVE",
"195 358 LINE",
"207 417 OFFCURVE",
"246 453 OFFCURVE",
"343 453 CURVE SMOOTH",
"449 453 OFFCURVE",
"511 404 OFFCURVE",
"511 315 CURVE SMOOTH"
);
},
{
closed = 1;
nodes = (
"511 225 LINE",
"505 89 OFFCURVE",
"409 49 OFFCURVE",
"296 49 CURVE SMOOTH",
"218 49 OFFCURVE",
"154 88 OFFCURVE",
"154 136 CURVE SMOOTH",
"154 185 OFFCURVE",
"204 225 OFFCURVE",
"326 225 CURVE SMOOTH"
);
},
{
closed = 1;
nodes = (
"599 293 LINE",
"614 392 OFFCURVE",
"681 453 OFFCURVE",
"772 453 CURVE SMOOTH",
"856 453 OFFCURVE",
"942 409 OFFCURVE",
"944 293 CURVE"
);
}
);
width = 1110;
}
);
leftKerningGroup = a;
note = ae;
rightKerningGroup = a;
unicode = 00E6;
},
{
glyphname = dotlessi;
lastChange = "2023-01-03 16:47:02 +0000";
layers = (
{
hints = (
{
horizontal = 1;
place = "{0, 21}";
target = up;
type = BottomGhost;
},
{
horizontal = 1;
place = "{502, -20}";
target = down;
type = TopGhost;
},
{
place = "{99, 98}";
type = Stem;
}
);
layerId = "6D1AFECB-6C65-4A9F-813E-BAE625DDDD1E";
paths = (
{
closed = 1;
nodes = (
"99 0 LINE",
"197 0 LINE",
"197 502 LINE",
"99 502 LINE"
);
}
);
width = 296;
}
);
leftKerningGroup = d;
note = dotlessi;
rightKerningGroup = d;
unicode = 0131;
},
{
glyphname = lslash;
lastChange = "2023-01-03 16:47:02 +0000";
layers = (
{
hints = (
{
horizontal = 1;
place = "{0, 21}";
target = up;
type = BottomGhost;
},
{
horizontal = 1;
place = "{274, 21}";
target = up;
type = BottomGhost;
},
{
horizontal = 1;
place = "{722, -20}";
target = down;
type = TopGhost;
},
{
place = "{99, 98}";
type = Stem;
}
);
layerId = "6D1AFECB-6C65-4A9F-813E-BAE625DDDD1E";
paths = (
{
closed = 1;
nodes = (
"28 274 LINE",
"99 315 LINE",
"99 0 LINE",
"197 0 LINE",
"197 371 LINE",
"268 412 LINE",
"268 486 LINE",
"197 445 LINE",
"197 722 LINE",
"99 722 LINE",
"99 389 LINE",
"28 348 LINE"
);
}
);
width = 296;
}
);
note = lslash;
unicode = 0142;
},
{
glyphname = oslash;
lastChange = "2023-01-03 16:47:02 +0000";
layers = (
{
hints = (
{
horizontal = 1;
place = "{-19, 68}";
type = Stem;
},
{
horizontal = 1;
place = "{393, 21}";
target = up;
type = BottomGhost;
},
{
horizontal = 1;
place = "{453, 68}";
type = Stem;
},
{
place = "{56, 104}";
type = Stem;
},
{
place = "{580, 104}";
type = Stem;
}
);
layerId = "6D1AFECB-6C65-4A9F-813E-BAE625DDDD1E";
paths = (
{
closed = 1;
nodes = (
"528 393 LINE",
"562 357 OFFCURVE",
"580 307 OFFCURVE",
"580 251 CURVE SMOOTH",
"580 137 OFFCURVE",
"507 49 OFFCURVE",
"370 49 CURVE SMOOTH",
"321 49 OFFCURVE",
"279 61 OFFCURVE",
"246 82 CURVE"
);
},
{
closed = 1;
nodes = (
"213 108 LINE",
"178 144 OFFCURVE",
"160 194 OFFCURVE",
"160 251 CURVE SMOOTH",
"160 365 OFFCURVE",
"233 453 OFFCURVE",
"370 453 CURVE SMOOTH",
"420 453 OFFCURVE",
"462 441 OFFCURVE",
"495 420 CURVE"
);
},
{
closed = 1;
nodes = (
"83 -35 LINE",
"112 -65 LINE",
"188 18 LINE",
"235 -6 OFFCURVE",
"296 -19 OFFCURVE",
"370 -19 CURVE SMOOTH",
"574 -19 OFFCURVE",
"684 79 OFFCURVE",
"684 251 CURVE SMOOTH",
"684 345 OFFCURVE",
"651 417 OFFCURVE",
"590 461 CURVE",
"657 536 LINE",
"627 565 LINE",
"553 484 LINE",
"503 509 OFFCURVE",
"443 521 OFFCURVE",
"370 521 CURVE SMOOTH",
"160 521 OFFCURVE",
"56 414 OFFCURVE",
"56 251 CURVE SMOOTH",
"56 158 OFFCURVE",
"88 87 OFFCURVE",
"151 40 CURVE"
);
}
);
width = 740;
}
);
leftKerningGroup = o;
note = oslash;
rightKerningGroup = o;
unicode = 00F8;
},
{
glyphname = oe;
lastChange = "2023-01-03 16:47:02 +0000";
layers = (
{
hints = (
{
horizontal = 1;
place = "{-19, 68}";
type = Stem;
},
{
horizontal = 1;
place = "{225, 68}";
type = Stem;
},
{
horizontal = 1;
place = "{453, 68}";
type = Stem;
},
{
place = "{53, 104}";
type = Stem;
},
{
place = "{577, 88}";
type = Stem;
},
{
place = "{1021, 110}";
type = Stem;
}
);
layerId = "6D1AFECB-6C65-4A9F-813E-BAE625DDDD1E";
paths = (
{
closed = 1;
nodes = (
"1016 151 LINE",
"994 79 OFFCURVE",
"919 49 OFFCURVE",
"847 49 CURVE SMOOTH",
"739 49 OFFCURVE",
"678 122 OFFCURVE",
"665 225 CURVE",
"1131 225 LINE",
"1129 393 OFFCURVE",
"1045 521 OFFCURVE",
"860 521 CURVE SMOOTH",
"739 521 OFFCURVE",
"660 472 OFFCURVE",
"626 407 CURVE",
"598 465 OFFCURVE",
"491 521 OFFCURVE",
"367 521 CURVE SMOOTH",
"157 521 OFFCURVE",
"53 414 OFFCURVE",
"53 251 CURVE SMOOTH",
"53 79 OFFCURVE",
"163 -19 OFFCURVE",
"367 -19 CURVE SMOOTH",
"472 -19 OFFCURVE",
"565 9 OFFCURVE",
"621 91 CURVE",
"664 18 OFFCURVE",
"747 -19 OFFCURVE",
"854 -19 CURVE SMOOTH",
"964 -19 OFFCURVE",
"1100 17 OFFCURVE",
"1120 151 CURVE"
);
},
{
closed = 1;
nodes = (
"157 365 OFFCURVE",
"230 453 OFFCURVE",
"367 453 CURVE SMOOTH",
"504 453 OFFCURVE",
"577 365 OFFCURVE",
"577 251 CURVE SMOOTH",
"577 137 OFFCURVE",
"504 49 OFFCURVE",
"367 49 CURVE SMOOTH",
"230 49 OFFCURVE",
"157 137 OFFCURVE",
"157 251 CURVE SMOOTH"
);
},
{
closed = 1;
nodes = (
"665 293 LINE",
"683 404 OFFCURVE",
"755 453 OFFCURVE",
"851 453 CURVE SMOOTH",
"933 453 OFFCURVE",
"1019 409 OFFCURVE",
"1021 293 CURVE"
);
}
);
width = 1184;
}
);
leftKerningGroup = o;
note = oe;
rightKerningGroup = o;
unicode = 0153;
},
{
glyphname = germandbls;
lastChange = "2023-01-03 16:47:02 +0000";
layers = (
{
hints = (
{
horizontal = 1;
place = "{-19, 68}";
type = Stem;
},
{
horizontal = 1;
place = "{683, 58}";
type = Stem;
},
{
place = "{99, 98}";
type = Stem;
},
{
place = "{383, 104}";
type = Stem;
},
{
place = "{563, 88}";
type = Stem;
},
{
horizontal = 1;
place = "{0, 21}";
target = up;
type = BottomGhost;
},
{
place = "{674, 98}";
type = Stem;
},
{
horizontal = 1;
place = "{0, 146}";
type = Stem;
}
);
layerId = "6D1AFECB-6C65-4A9F-813E-BAE625DDDD1E";
paths = (
{
closed = 1;
nodes = (
"99 0 LINE",
"197 0 LINE",
"197 429 LINE SMOOTH",
"197 574 OFFCURVE",
"253 683 OFFCURVE",
"414 683 CURVE SMOOTH",
"502 683 OFFCURVE",
"563 645 OFFCURVE",
"563 591 CURVE SMOOTH",
"563 523 OFFCURVE",
"383 486 OFFCURVE",
"383 380 CURVE SMOOTH",
"383 228 OFFCURVE",
"674 264 OFFCURVE",
"674 142 CURVE SMOOTH",
"674 88 OFFCURVE",
"626 49 OFFCURVE",
"547 49 CURVE SMOOTH",
"482 49 OFFCURVE",
"433 74 OFFCURVE",
"430 146 CURVE",
"326 146 LINE",
"331 16 OFFCURVE",
"434 -19 OFFCURVE",
"537 -19 CURVE SMOOTH",
"656 -19 OFFCURVE",
"772 23 OFFCURVE",
"772 147 CURVE SMOOTH",
"772 191 OFFCURVE",
"754 251 OFFCURVE",
"666 284 CURVE SMOOTH",
"564 322 LINE SMOOTH",
"509 343 OFFCURVE",
"487 356 OFFCURVE",
"487 384 CURVE SMOOTH",
"487 449 OFFCURVE",
"651 467 OFFCURVE",
"651 599 CURVE SMOOTH",
"651 676 OFFCURVE",
"565 741 OFFCURVE",
"412 741 CURVE SMOOTH",
"169 741 OFFCURVE",
"99 609 OFFCURVE",
"99 403 CURVE SMOOTH"
);
}
);
width = 814;
}
);
note = germandbls;
rightKerningGroup = s;
unicode = 00DF;
},
{
glyphname = onesuperior;
lastChange = "2023-01-03 16:47:02 +0000";
layers = (
{
hints = (
{
horizontal = 1;
place = "{285, 21}";
target = up;
type = BottomGhost;
},
{
horizontal = 1;
place = "{700, -20}";
target = down;
type = TopGhost;
},
{
place = "{226, 82}";
type = Stem;
}
);
layerId = "6D1AFECB-6C65-4A9F-813E-BAE625DDDD1E";
paths = (
{
closed = 1;
nodes = (
"226 285 LINE",
"308 285 LINE",
"308 700 LINE",
"232 700 LINE",
"197 676 OFFCURVE",
"146 649 OFFCURVE",
"93 632 CURVE",
"93 558 LINE",
"149 575 OFFCURVE",
"191 595 OFFCURVE",
"226 626 CURVE"
);
}
);
width = 481;
}
);
note = onesuperior;
unicode = 00B9;
},
{
glyphname = logicalnot;
lastChange = "2023-01-03 16:47:02 +0000";
layers = (
{
hints = (
{
horizontal = 1;
place = "{314, 88}";
type = Stem;
},
{
place = "{465, 88}";
type = Stem;
}
);
layerId = "6D1AFECB-6C65-4A9F-813E-BAE625DDDD1E";
paths = (
{
closed = 1;
nodes = (
"465 107 LINE",
"553 107 LINE",
"553 402 LINE",
"47 402 LINE",
"47 314 LINE",
"465 314 LINE"
);
}
);
width = 600;
}
);
note = logicalnot;
unicode = 00AC;
},
{
glyphname = mu;
lastChange = "2023-01-03 16:47:02 +0000";
layers = (
{
hints = (
{
horizontal = 1;
place = "{-192, 21}";
target = up;
type = BottomGhost;
},
{
horizontal = 1;
place = "{-19, 68}";
type = Stem;
},
{
horizontal = 1;
place = "{502, -20}";
target = down;
type = TopGhost;
},
{
place = "{92, 98}";
type = Stem;
},
{
place = "{550, 98}";
type = Stem;
},
{
horizontal = 1;
place = "{0, 21}";
target = up;
type = BottomGhost;
}
);
layerId = "6D1AFECB-6C65-4A9F-813E-BAE625DDDD1E";
paths = (
{
closed = 1;
nodes = (
"92 -192 LINE",
"190 -192 LINE",
"190 31 LINE",
"228 -4 OFFCURVE",
"290 -19 OFFCURVE",
"335 -19 CURVE SMOOTH",
"425 -19 OFFCURVE",
"497 12 OFFCURVE",
"554 89 CURVE",
"556 89 LINE",
"556 54 OFFCURVE",
"558 25 OFFCURVE",
"560 0 CURVE",
"652 0 LINE",
"650 40 OFFCURVE",
"648 76 OFFCURVE",
"648 114 CURVE SMOOTH",
"648 502 LINE",
"550 502 LINE",
"550 265 LINE SMOOTH",
"550 106 OFFCURVE",
"444 49 OFFCURVE",
"351 49 CURVE SMOOTH",
"257 49 OFFCURVE",
"190 110 OFFCURVE",
"190 222 CURVE SMOOTH",
"190 502 LINE",
"92 502 LINE"
);
}
);
width = 740;
}
);
note = mu;
unicode = 00B5;
},
{
glyphname = trademark;
lastChange = "2023-01-03 16:47:02 +0000";
layers = (
{
hints = (
{
horizontal = 1;
place = "{654, 68}";
type = Stem;
},
{
place = "{148, 88}";
type = Stem;
},
{
place = "{450, 82}";
type = Stem;
},
{
place = "{832, 82}";
type = Stem;
}
);
layerId = "6D1AFECB-6C65-4A9F-813E-BAE625DDDD1E";
paths = (
{
closed = 1;
nodes = (
"148 310 LINE",
"236 310 LINE",
"236 654 LINE",
"358 654 LINE",
"358 722 LINE",
"26 722 LINE",
"26 654 LINE",
"148 654 LINE"
);
},
{
closed = 1;
nodes = (
"832 310 LINE",
"914 310 LINE",
"914 722 LINE",
"790 722 LINE",
"682 441 LINE",
"574 722 LINE",
"450 722 LINE",
"450 310 LINE",
"532 310 LINE",
"532 622 LINE",
"534 622 LINE",
"651 310 LINE",
"713 310 LINE",
"830 622 LINE",
"832 622 LINE"
);
}
);
width = 990;
}
);
note = trademark;
unicode = 2122;
},
{
glyphname = Eth;
lastChange = "2023-01-03 16:47:02 +0000";
layers = (
{
hints = (
{
horizontal = 1;
place = "{0, 82}";
type = Stem;
},
{
horizontal = 1;
place = "{344, 74}";
type = Stem;
},
{
horizontal = 1;
place = "{640, 82}";
type = Stem;
},
{
place = "{102, 104}";
type = Stem;
},
{
place = "{703, 110}";
type = Stem;
}
);
layerId = "6D1AFECB-6C65-4A9F-813E-BAE625DDDD1E";
paths = (
{
closed = 1;
nodes = (
"102 0 LINE",
"398 0 LINE SMOOTH",
"678 0 OFFCURVE",
"813 130 OFFCURVE",
"813 352 CURVE SMOOTH",
"813 588 OFFCURVE",
"704 722 OFFCURVE",
"383 722 CURVE SMOOTH",
"102 722 LINE",
"102 418 LINE",
"15 418 LINE",
"15 344 LINE",
"102 344 LINE"
);
},
{
closed = 1;
nodes = (
"377 640 LINE SMOOTH",
"619 640 OFFCURVE",
"703 548 OFFCURVE",
"703 361 CURVE SMOOTH",
"703 220 OFFCURVE",
"640 82 OFFCURVE",
"402 82 CURVE SMOOTH",
"206 82 LINE",
"206 344 LINE",
"432 344 LINE",
"432 418 LINE",
"206 418 LINE",
"206 640 LINE"
);
}
);
width = 888;
}
);
note = Eth;
rightKerningGroup = D;
unicode = 00D0;
},
{
glyphname = onehalf;
lastChange = "2023-01-03 16:47:02 +0000";
layers = (
{
hints = (
{
horizontal = 1;
place = "{0, 68}";
type = Stem;
},
{
horizontal = 1;
place = "{285, 21}";
target = up;
type = BottomGhost;
},
{
horizontal = 1;
place = "{358, 68}";
type = Stem;
},
{
horizontal = 1;
place = "{700, -20}";
target = down;
type = TopGhost;
},
{
place = "{266, 82}";
type = Stem;
},
{
place = "{624, 88}";
type = Stem;
},
{
place = "{925, 82}";
type = Stem;
},
{
horizontal = 1;
place = "{274, 21}";
target = up;
type = BottomGhost;
}
);
layerId = "6D1AFECB-6C65-4A9F-813E-BAE625DDDD1E";
paths = (
{
closed = 1;
nodes = (
"266 285 LINE",
"348 285 LINE",
"348 700 LINE",
"272 700 LINE",
"237 676 OFFCURVE",
"186 649 OFFCURVE",
"133 632 CURVE",
"133 558 LINE",
"189 575 OFFCURVE",
"231 595 OFFCURVE",
"266 626 CURVE"
);
},
{
closed = 1;
nodes = (
"619 0 LINE",
"1020 0 LINE",
"1020 68 LINE",
"745 68 LINE",
"745 70 LINE",
"921 149 OFFCURVE",
"1007 230 OFFCURVE",
"1007 298 CURVE SMOOTH",
"1007 367 OFFCURVE",
"952 426 OFFCURVE",
"818 426 CURVE SMOOTH",
"704 426 OFFCURVE",
"627 376 OFFCURVE",
"624 274 CURVE",
"712 274 LINE",
"712 325 OFFCURVE",
"755 358 OFFCURVE",
"821 358 CURVE SMOOTH",
"878 358 OFFCURVE",
"925 327 OFFCURVE",
"925 290 CURVE SMOOTH",
"925 240 OFFCURVE",
"827 169 OFFCURVE",
"619 68 CURVE"
);
},
{
closed = 1;
nodes = (
"150 -61 LINE",
"224 -61 LINE",
"852 753 LINE",
"778 753 LINE"
);
}
);
width = 1110;
}
);
note = onehalf;
unicode = 00BD;
},
{
glyphname = plusminus;
lastChange = "2023-01-03 16:47:02 +0000";
layers = (
{
hints = (
{
horizontal = 1;
place = "{0, 88}";
type = Stem;
},
{
horizontal = 1;
place = "{271, 88}";
type = Stem;
},
{
horizontal = 1;
place = "{506, -20}";
target = down;
type = TopGhost;
},
{
place = "{256, 88}";
type = Stem;
}
);
layerId = "6D1AFECB-6C65-4A9F-813E-BAE625DDDD1E";
paths = (
{
closed = 1;
nodes = (
"256 359 LINE",
"47 359 LINE",
"47 271 LINE",
"256 271 LINE",
"256 124 LINE",
"344 124 LINE",
"344 271 LINE",
"553 271 LINE",
"553 359 LINE",
"344 359 LINE",
"344 506 LINE",
"256 506 LINE"
);
},
{
closed = 1;
nodes = (
"47 0 LINE",
"553 0 LINE",
"553 88 LINE",
"47 88 LINE"
);
}
);
width = 600;
}
);
note = plusminus;
unicode = 00B1;
},
{
glyphname = Thorn;
lastChange = "2023-01-03 16:47:02 +0000";
layers = (
{
hints = (
{
horizontal = 1;
place = "{0, 21}";
target = up;
type = BottomGhost;
},
{
horizontal = 1;
place = "{175, 82}";
type = Stem;
},
{
horizontal = 1;
place = "{498, 82}";
type = Stem;
},
{
horizontal = 1;
place = "{722, -20}";
target = down;
type = TopGhost;
},
{
place = "{121, 104}";
type = Stem;
},
{
place = "{633, 110}";
type = Stem;
}
);
layerId = "6D1AFECB-6C65-4A9F-813E-BAE625DDDD1E";
paths = (
{
closed = 1;
nodes = (
"225 257 LINE",
"225 498 LINE",
"457 498 LINE SMOOTH",
"576 498 OFFCURVE",
"633 463 OFFCURVE",
"633 379 CURVE SMOOTH",
"633 299 OFFCURVE",
"579 257 OFFCURVE",
"459 257 CURVE SMOOTH"
);
},
{
closed = 1;
nodes = (
"121 0 LINE",
"225 0 LINE",
"225 175 LINE",
"485 175 LINE SMOOTH",
"660 175 OFFCURVE",
"743 259 OFFCURVE",
"743 379 CURVE SMOOTH",
"743 509 OFFCURVE",
"652 580 OFFCURVE",
"459 580 CURVE SMOOTH",
"225 580 LINE",
"225 722 LINE",
"121 722 LINE"
);
}
);
width = 814;
}
);
note = Thorn;
unicode = 00DE;
},
{
glyphname = onequarter;
lastChange = "2023-01-03 16:47:02 +0000";
layers = (
{
hints = (
{
horizontal = 1;
place = "{89, 68}";
type = Stem;
},
{
horizontal = 1;
place = "{285, 21}";
target = up;
type = BottomGhost;
},
{
horizontal = 1;
place = "{347, 68}";
type = Stem;
},
{
horizontal = 1;
place = "{700, -20}";
target = down;
type = TopGhost;
},
{
place = "{266, 82}";
type = Stem;
},
{
place = "{822, 82}";
type = Stem;
},
{
horizontal = 1;
place = "{0, 157}";
type = Stem;
}
);
layerId = "6D1AFECB-6C65-4A9F-813E-BAE625DDDD1E";
paths = (
{
closed = 1;
nodes = (
"822 0 LINE",
"904 0 LINE",
"904 89 LINE",
"1004 89 LINE",
"1004 157 LINE",
"904 157 LINE",
"904 415 LINE",
"801 415 LINE",
"542 168 LINE",
"542 89 LINE",
"822 89 LINE"
);
},
{
closed = 1;
nodes = (
"822 157 LINE",
"616 157 LINE",
"822 347 LINE"
);
},
{
closed = 1;
nodes = (
"266 285 LINE",
"348 285 LINE",
"348 700 LINE",
"272 700 LINE",
"237 676 OFFCURVE",
"186 649 OFFCURVE",
"133 632 CURVE",
"133 558 LINE",
"189 575 OFFCURVE",
"231 595 OFFCURVE",
"266 626 CURVE"
);
},
{
closed = 1;
nodes = (
"224 -61 LINE",
"852 753 LINE",
"778 753 LINE",
"150 -61 LINE"
);
}
);
width = 1110;
}
);
note = onequarter;
unicode = 00BC;
},
{
glyphname = divide;
lastChange = "2023-01-03 16:47:02 +0000";
layers = (
{
hints = (
{
place = "{224, 152}";
type = Stem;
}
);
layerId = "6D1AFECB-6C65-4A9F-813E-BAE625DDDD1E";
paths = (
{
closed = 1;
nodes = (
"47 209 LINE",
"553 209 LINE",
"553 297 LINE",
"47 297 LINE"
);
},
{
closed = 1;
nodes = (
"224 1 OFFCURVE",
"258 -33 OFFCURVE",
"300 -33 CURVE SMOOTH",
"342 -33 OFFCURVE",
"376 1 OFFCURVE",
"376 43 CURVE SMOOTH",
"376 85 OFFCURVE",
"342 119 OFFCURVE",
"300 119 CURVE SMOOTH",
"258 119 OFFCURVE",
"224 85 OFFCURVE",
"224 43 CURVE SMOOTH"
);
},
{
closed = 1;
nodes = (
"224 421 OFFCURVE",
"258 387 OFFCURVE",
"300 387 CURVE SMOOTH",
"342 387 OFFCURVE",
"376 421 OFFCURVE",
"376 463 CURVE SMOOTH",
"376 505 OFFCURVE",
"342 539 OFFCURVE",
"300 539 CURVE SMOOTH",
"258 539 OFFCURVE",
"224 505 OFFCURVE",
"224 463 CURVE SMOOTH"
);
}
);
width = 600;
}
);
note = divide;
unicode = 00F7;
},
{
glyphname = brokenbar;
lastChange = "2023-01-03 16:47:02 +0000";
layers = (
{
hints = (
{
horizontal = 1;
place = "{-19, 21}";
target = up;
type = BottomGhost;
},
{
horizontal = 1;
place = "{741, -20}";
target = down;
type = TopGhost;
},
{
place = "{67, 88}";
type = Stem;
}
);
layerId = "6D1AFECB-6C65-4A9F-813E-BAE625DDDD1E";
paths = (
{
closed = 1;
nodes = (
"67 -19 LINE",
"155 -19 LINE",
"155 265 LINE",
"67 265 LINE"
);
},
{
closed = 1;
nodes = (
"67 457 LINE",
"155 457 LINE",
"155 741 LINE",
"67 741 LINE"
);
}
);
width = 222;
}
);
note = brokenbar;
unicode = 00A6;
},
{
glyphname = degree;
lastChange = "2023-01-03 16:47:02 +0000";
layers = (
{
hints = (
{
horizontal = 1;
place = "{425, 52}";
type = Stem;
},
{
horizontal = 1;
place = "{659, 52}";
type = Stem;
},
{
place = "{57, 52}";
type = Stem;
},
{
place = "{291, 52}";
type = Stem;
}
);
layerId = "6D1AFECB-6C65-4A9F-813E-BAE625DDDD1E";
paths = (
{
closed = 1;
nodes = (
"57 489 OFFCURVE",
"121 425 OFFCURVE",
"200 425 CURVE SMOOTH",
"279 425 OFFCURVE",
"343 489 OFFCURVE",
"343 568 CURVE SMOOTH",
"343 647 OFFCURVE",
"279 711 OFFCURVE",
"200 711 CURVE SMOOTH",
"121 711 OFFCURVE",
"57 647 OFFCURVE",
"57 568 CURVE SMOOTH"
);
},
{
closed = 1;
nodes = (
"109 618 OFFCURVE",
"150 659 OFFCURVE",
"200 659 CURVE SMOOTH",
"250 659 OFFCURVE",
"291 618 OFFCURVE",
"291 568 CURVE SMOOTH",
"291 518 OFFCURVE",
"250 477 OFFCURVE",
"200 477 CURVE SMOOTH",
"150 477 OFFCURVE",
"109 518 OFFCURVE",
"109 568 CURVE SMOOTH"
);
}
);
width = 400;
}
);
note = degree;
unicode = 00B0;
},
{
glyphname = thorn;
lastChange = "2023-01-03 16:47:02 +0000";
layers = (
{
hints = (
{
horizontal = 1;
place = "{-192, 21}";
target = up;
type = BottomGhost;
},
{
horizontal = 1;
place = "{-19, 68}";
type = Stem;
},
{
horizontal = 1;
place = "{453, 68}";
type = Stem;
},
{
horizontal = 1;
place = "{722, -20}";
target = down;
type = TopGhost;
},
{
place = "{86, 98}";
type = Stem;
},
{
place = "{580, 104}";
type = Stem;
}
);
layerId = "6D1AFECB-6C65-4A9F-813E-BAE625DDDD1E";
paths = (
{
closed = 1;
nodes = (
"86 -192 LINE",
"184 -192 LINE",
"184 66 LINE",
"246 0 OFFCURVE",
"324 -19 OFFCURVE",
"404 -19 CURVE SMOOTH",
"554 -19 OFFCURVE",
"684 88 OFFCURVE",
"684 251 CURVE SMOOTH",
"684 414 OFFCURVE",
"554 521 OFFCURVE",
"404 521 CURVE SMOOTH",
"315 521 OFFCURVE",
"235 489 OFFCURVE",
"184 431 CURVE",
"184 722 LINE",
"86 722 LINE"
);
},
{
closed = 1;
nodes = (
"184 378 OFFCURVE",
"266 453 OFFCURVE",
"382 453 CURVE SMOOTH",
"499 453 OFFCURVE",
"580 378 OFFCURVE",
"580 251 CURVE SMOOTH",
"580 124 OFFCURVE",
"499 49 OFFCURVE",
"382 49 CURVE SMOOTH",
"266 49 OFFCURVE",
"184 124 OFFCURVE",
"184 251 CURVE SMOOTH"
);
}
);
width = 740;
}
);
leftKerningGroup = b;
note = thorn;
rightKerningGroup = b;
unicode = 00FE;
},
{
glyphname = threequarters;
lastChange = "2023-01-03 16:47:02 +0000";
layers = (
{
hints = (
{
horizontal = 1;
place = "{89, 68}";
type = Stem;
},
{
horizontal = 1;
place = "{274, 68}";
type = Stem;
},
{
horizontal = 1;
place = "{465, 68}";
type = Stem;
},
{
horizontal = 1;
place = "{643, 68}";
type = Stem;
},
{
place = "{99, 82}";
type = Stem;
},
{
place = "{413, 82}";
type = Stem;
},
{
place = "{895, 82}";
type = Stem;
},
{
horizontal = 1;
place = "{0, 157}";
type = Stem;
},
{
horizontal = 1;
place = "{347, 68}";
type = Stem;
},
{
place = "{231, 154}";
type = Stem;
},
{
horizontal = 1;
place = "{502, -20}";
target = down;
type = TopGhost;
},
{
place = "{400, 82}";
type = Stem;
}
);
layerId = "6D1AFECB-6C65-4A9F-813E-BAE625DDDD1E";
paths = (
{
closed = 1;
nodes = (
"895 0 LINE",
"977 0 LINE",
"977 89 LINE",
"1077 89 LINE",
"1077 157 LINE",
"977 157 LINE",
"977 415 LINE",
"874 415 LINE",
"615 168 LINE",
"615 89 LINE",
"895 89 LINE"
);
},
{
closed = 1;
nodes = (
"895 157 LINE",
"689 157 LINE",
"895 347 LINE"
);
},
{
closed = 1;
nodes = (
"231 465 LINE",
"262 465 LINE SMOOTH",
"362 465 OFFCURVE",
"413 440 OFFCURVE",
"413 400 CURVE SMOOTH",
"413 364 OFFCURVE",
"357 342 OFFCURVE",
"282 342 CURVE SMOOTH",
"223 342 OFFCURVE",
"169 365 OFFCURVE",
"168 414 CURVE",
"86 414 LINE",
"87 319 OFFCURVE",
"149 274 OFFCURVE",
"278 274 CURVE SMOOTH",
"420 274 OFFCURVE",
"495 317 OFFCURVE",
"495 397 CURVE SMOOTH",
"495 447 OFFCURVE",
"462 486 OFFCURVE",
"385 502 CURVE",
"385 504 LINE",
"454 510 OFFCURVE",
"482 552 OFFCURVE",
"482 594 CURVE SMOOTH",
"482 664 OFFCURVE",
"419 711 OFFCURVE",
"279 711 CURVE SMOOTH",
"179 711 OFFCURVE",
"100 666 OFFCURVE",
"99 579 CURVE",
"181 579 LINE",
"181 625 OFFCURVE",
"237 643 OFFCURVE",
"293 643 CURVE SMOOTH",
"352 643 OFFCURVE",
"400 615 OFFCURVE",
"400 591 CURVE SMOOTH",
"400 562 OFFCURVE",
"365 533 OFFCURVE",
"261 533 CURVE SMOOTH",
"231 533 LINE"
);
},
{
closed = 1;
nodes = (
"324 -61 LINE",
"952 753 LINE",
"878 753 LINE",
"250 -61 LINE"
);
}
);
width = 1110;
}
);
note = threequarters;
unicode = 00BE;
},
{
glyphname = twosuperior;
lastChange = "2023-01-03 16:47:02 +0000";
layers = (
{
hints = (
{
horizontal = 1;
place = "{285, 68}";
type = Stem;
},
{
horizontal = 1;
place = "{643, 68}";
type = Stem;
},
{
place = "{45, 88}";
type = Stem;
},
{
place = "{346, 82}";
type = Stem;
}
);
layerId = "6D1AFECB-6C65-4A9F-813E-BAE625DDDD1E";
paths = (
{
closed = 1;
nodes = (
"40 285 LINE",
"441 285 LINE",
"441 353 LINE",
"166 353 LINE",
"166 355 LINE",
"342 434 OFFCURVE",
"428 515 OFFCURVE",
"428 583 CURVE SMOOTH",
"428 652 OFFCURVE",
"373 711 OFFCURVE",
"239 711 CURVE SMOOTH",
"125 711 OFFCURVE",
"48 661 OFFCURVE",
"45 559 CURVE",
"133 559 LINE",
"133 610 OFFCURVE",
"176 643 OFFCURVE",
"242 643 CURVE SMOOTH",
"299 643 OFFCURVE",
"346 612 OFFCURVE",
"346 575 CURVE SMOOTH",
"346 525 OFFCURVE",
"248 454 OFFCURVE",
"40 353 CURVE"
);
}
);
width = 481;
}
);
note = twosuperior;
unicode = 00B2;
},
{
glyphname = registered;
lastChange = "2023-01-03 16:47:02 +0000";
layers = (
{
hints = (
{
horizontal = 1;
place = "{-19, 82}";
type = Stem;
},
{
horizontal = 1;
place = "{334, 58}";
type = Stem;
},
{
horizontal = 1;
place = "{515, 58}";
type = Stem;
},
{
horizontal = 1;
place = "{659, 82}";
type = Stem;
},
{
place = "{20, 88}";
type = Stem;
},
{
place = "{251, 82}";
type = Stem;
},
{
place = "{490, 88}";
type = Stem;
},
{
place = "{692, 88}";
type = Stem;
}
);
layerId = "6D1AFECB-6C65-4A9F-813E-BAE625DDDD1E";
paths = (
{
closed = 1;
nodes = (
"251 147 LINE",
"333 147 LINE",
"333 334 LINE",
"379 334 LINE",
"487 147 LINE",
"581 147 LINE",
"467 334 LINE",
"530 341 OFFCURVE",
"578 373 OFFCURVE",
"578 449 CURVE SMOOTH",
"578 538 OFFCURVE",
"522 573 OFFCURVE",
"414 573 CURVE SMOOTH",
"251 573 LINE"
);
},
{
closed = 1;
nodes = (
"333 392 LINE",
"333 515 LINE",
"406 515 LINE SMOOTH",
"441 515 OFFCURVE",
"490 507 OFFCURVE",
"490 457 CURVE SMOOTH",
"490 399 OFFCURVE",
"449 392 OFFCURVE",
"405 392 CURVE SMOOTH"
);
},
{
closed = 1;
nodes = (
"20 151 OFFCURVE",
"190 -19 OFFCURVE",
"400 -19 CURVE SMOOTH",
"610 -19 OFFCURVE",
"780 151 OFFCURVE",
"780 361 CURVE SMOOTH",
"780 571 OFFCURVE",
"610 741 OFFCURVE",
"400 741 CURVE SMOOTH",
"190 741 OFFCURVE",
"20 571 OFFCURVE",
"20 361 CURVE SMOOTH"
);
},
{
closed = 1;
nodes = (
"108 528 OFFCURVE",
"227 659 OFFCURVE",
"400 659 CURVE SMOOTH",
"573 659 OFFCURVE",
"692 528 OFFCURVE",
"692 361 CURVE SMOOTH",
"692 194 OFFCURVE",
"573 63 OFFCURVE",
"400 63 CURVE SMOOTH",
"227 63 OFFCURVE",
"108 194 OFFCURVE",
"108 361 CURVE SMOOTH"
);
}
);
width = 800;
}
);
note = registered;
unicode = 00AE;
},
{
glyphname = minus;
lastChange = "2023-01-03 16:47:02 +0000";
layers = (
{
hints = (
{
horizontal = 1;
place = "{209, 88}";
type = Stem;
},
{
place = "{47, 506}";
type = Stem;
}
);
layerId = "6D1AFECB-6C65-4A9F-813E-BAE625DDDD1E";
paths = (
{
closed = 1;
nodes = (
"47 209 LINE",
"553 209 LINE",
"553 297 LINE",
"47 297 LINE"
);
}
);
width = 600;
}
);
note = minus;
unicode = 2212;
},
{
glyphname = eth;
lastChange = "2023-01-03 16:47:02 +0000";
layers = (
{
hints = (
{
horizontal = 1;
place = "{-19, 68}";
type = Stem;
},
{
horizontal = 1;
place = "{434, 68}";
type = Stem;
},
{
horizontal = 1;
place = "{731, -20}";
target = down;
type = TopGhost;
},
{
place = "{56, 104}";
type = Stem;
},
{
place = "{580, 104}";
type = Stem;
},
{
horizontal = 1;
place = "{711, -20}";
target = down;
type = TopGhost;
}
);
layerId = "6D1AFECB-6C65-4A9F-813E-BAE625DDDD1E";
paths = (
{
closed = 1;
nodes = (
"233 546 LINE",
"336 609 LINE",
"403 574 OFFCURVE",
"488 507 OFFCURVE",
"533 442 CURVE",
"531 440 LINE",
"473 488 OFFCURVE",
"408 502 OFFCURVE",
"330 502 CURVE SMOOTH",
"156 502 OFFCURVE",
"56 388 OFFCURVE",
"56 251 CURVE SMOOTH",
"56 79 OFFCURVE",
"166 -19 OFFCURVE",
"370 -19 CURVE SMOOTH",
"574 -19 OFFCURVE",
"684 79 OFFCURVE",
"684 251 CURVE SMOOTH",
"684 410 OFFCURVE",
"598 551 OFFCURVE",
"412 655 CURVE",
"510 711 LINE",
"468 750 LINE",
"361 685 LINE",
"330 700 OFFCURVE",
"291 716 OFFCURVE",
"252 731 CURVE",
"181 675 LINE",
"213 666 OFFCURVE",
"245 653 OFFCURVE",
"278 637 CURVE",
"191 585 LINE"
);
},
{
closed = 1;
nodes = (
"160 362 OFFCURVE",
"247 434 OFFCURVE",
"362 434 CURVE SMOOTH",
"478 434 OFFCURVE",
"580 378 OFFCURVE",
"580 239 CURVE SMOOTH",
"580 124 OFFCURVE",
"493 49 OFFCURVE",
"370 49 CURVE SMOOTH",
"247 49 OFFCURVE",
"160 124 OFFCURVE",
"160 239 CURVE SMOOTH"
);
}
);
width = 740;
}
);
note = eth;
unicode = 00F0;
},
{
glyphname = multiply;
lastChange = "2023-01-03 16:47:02 +0000";
layers = (
{
hints = (
{
horizontal = 1;
place = "{21, 464}";
type = Stem;
},
{
place = "{68, 464}";
type = Stem;
}
);
layerId = "6D1AFECB-6C65-4A9F-813E-BAE625DDDD1E";
paths = (
{
closed = 1;
nodes = (
"470 21 LINE",
"532 83 LINE",
"362 253 LINE",
"532 423 LINE",
"470 485 LINE",
"300 314 LINE",
"130 485 LINE",
"68 423 LINE",
"238 253 LINE",
"68 83 LINE",
"130 21 LINE",
"300 192 LINE"
);
}
);
width = 600;
}
);
note = multiply;
unicode = 00D7;
},
{
glyphname = threesuperior;
lastChange = "2023-01-03 16:47:02 +0000";
layers = (
{
hints = (
{
horizontal = 1;
place = "{274, 68}";
type = Stem;
},
{
horizontal = 1;
place = "{465, 68}";
type = Stem;
},
{
horizontal = 1;
place = "{643, 68}";
type = Stem;
},
{
place = "{49, 82}";
type = Stem;
},
{
place = "{363, 82}";
type = Stem;
},
{
horizontal = 1;
place = "{502, -20}";
target = down;
type = TopGhost;
},
{
place = "{350, 82}";
type = Stem;
},
{
place = "{181, 154}";
type = Stem;
}
);
layerId = "6D1AFECB-6C65-4A9F-813E-BAE625DDDD1E";
paths = (
{
closed = 1;
nodes = (
"36 414 LINE",
"37 319 OFFCURVE",
"99 274 OFFCURVE",
"228 274 CURVE SMOOTH",
"370 274 OFFCURVE",
"445 317 OFFCURVE",
"445 397 CURVE SMOOTH",
"445 447 OFFCURVE",
"412 486 OFFCURVE",
"335 502 CURVE",
"335 504 LINE",
"404 510 OFFCURVE",
"432 552 OFFCURVE",
"432 594 CURVE SMOOTH",
"432 664 OFFCURVE",
"369 711 OFFCURVE",
"229 711 CURVE SMOOTH",
"129 711 OFFCURVE",
"50 666 OFFCURVE",
"49 579 CURVE",
"131 579 LINE",
"131 625 OFFCURVE",
"187 643 OFFCURVE",
"243 643 CURVE SMOOTH",
"302 643 OFFCURVE",
"350 615 OFFCURVE",
"350 591 CURVE SMOOTH",
"350 562 OFFCURVE",
"315 533 OFFCURVE",
"211 533 CURVE SMOOTH",
"181 533 LINE",
"181 465 LINE",
"212 465 LINE SMOOTH",
"312 465 OFFCURVE",
"363 440 OFFCURVE",
"363 400 CURVE SMOOTH",
"363 364 OFFCURVE",
"307 342 OFFCURVE",
"232 342 CURVE SMOOTH",
"173 342 OFFCURVE",
"119 365 OFFCURVE",
"118 414 CURVE"
);
}
);
width = 481;
}
);
note = threesuperior;
unicode = 00B3;
},
{
glyphname = copyright;
lastChange = "2023-01-03 16:47:02 +0000";
layers = (
{
hints = (
{
horizontal = 1;
place = "{-19, 82}";
type = Stem;
},
{
horizontal = 1;
place = "{134, 74}";
type = Stem;
},
{
horizontal = 1;
place = "{514, 74}";
type = Stem;
},
{
horizontal = 1;
place = "{659, 82}";
type = Stem;
},
{
place = "{20, 88}";
type = Stem;
},
{
place = "{195, 88}";
type = Stem;
},
{
place = "{692, 88}";
type = Stem;
}
);
layerId = "6D1AFECB-6C65-4A9F-813E-BAE625DDDD1E";
paths = (
{
closed = 1;
nodes = (
"522 292 LINE",
"514 239 OFFCURVE",
"472 208 OFFCURVE",
"415 208 CURVE SMOOTH",
"335 208 OFFCURVE",
"283 277 OFFCURVE",
"283 361 CURVE SMOOTH",
"283 448 OFFCURVE",
"330 514 OFFCURVE",
"412 514 CURVE SMOOTH",
"468 514 OFFCURVE",
"511 481 OFFCURVE",
"522 431 CURVE",
"596 431 LINE",
"583 533 OFFCURVE",
"506 588 OFFCURVE",
"411 588 CURVE SMOOTH",
"276 588 OFFCURVE",
"195 491 OFFCURVE",
"195 361 CURVE SMOOTH",
"195 233 OFFCURVE",
"281 134 OFFCURVE",
"415 134 CURVE SMOOTH",
"506 134 OFFCURVE",
"583 193 OFFCURVE",
"596 292 CURVE"
);
},
{
closed = 1;
nodes = (
"20 151 OFFCURVE",
"190 -19 OFFCURVE",
"400 -19 CURVE SMOOTH",
"610 -19 OFFCURVE",
"780 151 OFFCURVE",
"780 361 CURVE SMOOTH",
"780 571 OFFCURVE",
"610 741 OFFCURVE",
"400 741 CURVE SMOOTH",
"190 741 OFFCURVE",
"20 571 OFFCURVE",
"20 361 CURVE SMOOTH"
);
},
{
closed = 1;
nodes = (
"108 528 OFFCURVE",
"227 659 OFFCURVE",
"400 659 CURVE SMOOTH",
"573 659 OFFCURVE",
"692 528 OFFCURVE",
"692 361 CURVE SMOOTH",
"692 194 OFFCURVE",
"573 63 OFFCURVE",
"400 63 CURVE SMOOTH",
"227 63 OFFCURVE",
"108 194 OFFCURVE",
"108 361 CURVE SMOOTH"
);
}
);
width = 800;
}
);
note = copyright;
unicode = 00A9;
},
{
glyphname = Aacute;
lastChange = "2023-01-03 16:47:02 +0000";
layers = (
{
hints = (
{
horizontal = 1;
place = "{0, 21}";
target = up;
type = BottomGhost;
},
{
horizontal = 1;
place = "{188, 82}";
type = Stem;
},
{
horizontal = 1;
place = "{722, -20}";
target = down;
type = TopGhost;
},
{
horizontal = 1;
place = "{769, 140}";
type = Stem;
},
{
place = "{12, 864}";
type = Stem;
},
{
horizontal = 1;
place = "{634, 88}";
type = Stem;
}
);
layerId = "6D1AFECB-6C65-4A9F-813E-BAE625DDDD1E";
paths = (
{
closed = 1;
nodes = (
"757 0 LINE",
"876 0 LINE",
"505 722 LINE",
"383 722 LINE",
"12 0 LINE",
"128 0 LINE",
"221 188 LINE",
"664 188 LINE"
);
},
{
closed = 1;
nodes = (
"263 270 LINE",
"444 634 LINE",
"624 270 LINE"
);
},
{
closed = 1;
nodes = (
"354 769 LINE",
"436 769 LINE",
"590 909 LINE",
"468 909 LINE"
);
}
);
width = 888;
}
);
leftKerningGroup = A;
note = Aacute;
rightKerningGroup = A;
unicode = 00C1;
},
{
glyphname = Acircumflex;
lastChange = "2023-01-03 16:47:02 +0000";
layers = (
{
hints = (
{
horizontal = 1;
place = "{0, 21}";
target = up;
type = BottomGhost;
},
{
horizontal = 1;
place = "{188, 82}";
type = Stem;
},
{
horizontal = 1;
place = "{722, -20}";
target = down;
type = TopGhost;
},
{
horizontal = 1;
place = "{769, 140}";
type = Stem;
},
{
place = "{12, 864}";
type = Stem;
},
{
horizontal = 1;
place = "{634, 88}";
type = Stem;
}
);
layerId = "6D1AFECB-6C65-4A9F-813E-BAE625DDDD1E";
paths = (
{
closed = 1;
nodes = (
"757 0 LINE",
"876 0 LINE",
"505 722 LINE",
"383 722 LINE",
"12 0 LINE",
"128 0 LINE",
"221 188 LINE",
"664 188 LINE"
);
},
{
closed = 1;
nodes = (
"263 270 LINE",
"444 634 LINE",
"624 270 LINE"
);
},
{
closed = 1;
nodes = (
"539 769 LINE",
"621 769 LINE",
"502 909 LINE",
"386 909 LINE",
"267 769 LINE",
"349 769 LINE",
"444 871 LINE"
);
}
);
width = 888;
}
);
leftKerningGroup = A;
note = Acircumflex;
rightKerningGroup = A;
unicode = 00C2;
},
{
glyphname = Adieresis;
lastChange = "2023-01-03 16:47:02 +0000";
layers = (
{
hints = (
{
horizontal = 1;
place = "{0, 21}";
target = up;
type = BottomGhost;
},
{
horizontal = 1;
place = "{188, 82}";
type = Stem;
},
{
horizontal = 1;
place = "{722, -20}";
target = down;
type = TopGhost;
},
{
horizontal = 1;
place = "{809, 100}";
type = Stem;
},
{
place = "{292, 98}";
type = Stem;
},
{
place = "{498, 98}";
type = Stem;
},
{
horizontal = 1;
place = "{634, 88}";
type = Stem;
}
);
layerId = "6D1AFECB-6C65-4A9F-813E-BAE625DDDD1E";
paths = (
{
closed = 1;
nodes = (
"757 0 LINE",
"876 0 LINE",
"505 722 LINE",
"383 722 LINE",
"12 0 LINE",
"128 0 LINE",
"221 188 LINE",
"664 188 LINE"
);
},
{
closed = 1;
nodes = (
"263 270 LINE",
"444 634 LINE",
"624 270 LINE"
);
},
{
closed = 1;
nodes = (
"292 809 LINE",
"390 809 LINE",
"390 909 LINE",
"292 909 LINE"
);
},
{
closed = 1;
nodes = (
"498 809 LINE",
"596 809 LINE",
"596 909 LINE",
"498 909 LINE"
);
}
);
width = 888;
}
);
leftKerningGroup = A;
note = Adieresis;
rightKerningGroup = A;
unicode = 00C4;
},
{
glyphname = Agrave;
lastChange = "2023-01-03 16:47:02 +0000";
layers = (
{
hints = (
{
horizontal = 1;
place = "{0, 21}";
target = up;
type = BottomGhost;
},
{
horizontal = 1;
place = "{188, 82}";
type = Stem;
},
{
horizontal = 1;
place = "{722, -20}";
target = down;
type = TopGhost;
},
{
horizontal = 1;
place = "{769, 140}";
type = Stem;
},
{
place = "{12, 864}";
type = Stem;
},
{
horizontal = 1;
place = "{634, 88}";
type = Stem;
}
);
layerId = "6D1AFECB-6C65-4A9F-813E-BAE625DDDD1E";
paths = (
{
closed = 1;
nodes = (
"757 0 LINE",
"876 0 LINE",
"505 722 LINE",
"383 722 LINE",
"12 0 LINE",
"128 0 LINE",
"221 188 LINE",
"664 188 LINE"
);
},
{
closed = 1;
nodes = (
"263 270 LINE",
"444 634 LINE",
"624 270 LINE"
);
},
{
closed = 1;
nodes = (
"452 769 LINE",
"534 769 LINE",
"420 909 LINE",
"298 909 LINE"
);
}
);
width = 888;
}
);
leftKerningGroup = A;
note = Agrave;
rightKerningGroup = A;
unicode = 00C0;
},
{
glyphname = Aring;
lastChange = "2023-01-03 16:47:02 +0000";
layers = (
{
hints = (
{
horizontal = 1;
place = "{0, 21}";
target = up;
type = BottomGhost;
},
{
horizontal = 1;
place = "{188, 82}";
type = Stem;
},
{
horizontal = 1;
place = "{722, -20}";
target = down;
type = TopGhost;
},
{
horizontal = 1;
place = "{899, 46}";
type = Stem;
},
{
place = "{342, 46}";
type = Stem;
},
{
place = "{500, 46}";
type = Stem;
},
{
horizontal = 1;
place = "{634, 88}";
type = Stem;
},
{
horizontal = 1;
place = "{741, 46}";
type = Stem;
}
);
layerId = "6D1AFECB-6C65-4A9F-813E-BAE625DDDD1E";
paths = (
{
closed = 1;
nodes = (
"757 0 LINE",
"876 0 LINE",
"505 722 LINE",
"383 722 LINE",
"12 0 LINE",
"128 0 LINE",
"221 188 LINE",
"664 188 LINE"
);
},
{
closed = 1;
nodes = (
"263 270 LINE",
"444 634 LINE",
"624 270 LINE"
);
},
{
closed = 1;
nodes = (
"342 787 OFFCURVE",
"388 741 OFFCURVE",
"444 741 CURVE SMOOTH",
"500 741 OFFCURVE",
"546 787 OFFCURVE",
"546 843 CURVE SMOOTH",
"546 899 OFFCURVE",
"500 945 OFFCURVE",
"444 945 CURVE SMOOTH",
"388 945 OFFCURVE",
"342 899 OFFCURVE",
"342 843 CURVE SMOOTH"
);
},
{
closed = 1;
nodes = (
"388 874 OFFCURVE",
"413 899 OFFCURVE",
"444 899 CURVE SMOOTH",
"475 899 OFFCURVE",
"500 874 OFFCURVE",
"500 843 CURVE SMOOTH",
"500 812 OFFCURVE",
"475 787 OFFCURVE",
"444 787 CURVE SMOOTH",
"413 787 OFFCURVE",
"388 812 OFFCURVE",
"388 843 CURVE SMOOTH"
);
}
);
width = 888;
}
);
leftKerningGroup = A;
note = Aring;
rightKerningGroup = A;
unicode = 00C5;
},
{
glyphname = Atilde;
lastChange = "2023-01-03 16:47:02 +0000";
layers = (
{
hints = (
{
horizontal = 1;
place = "{0, 21}";
target = up;
type = BottomGhost;
},
{
horizontal = 1;
place = "{188, 82}";
type = Stem;
},
{
horizontal = 1;
place = "{722, -20}";
target = down;
type = TopGhost;
},
{
horizontal = 1;
place = "{799, 68}";
type = Stem;
},
{
place = "{267, 58}";
type = Stem;
},
{
horizontal = 1;
place = "{634, 88}";
type = Stem;
},
{
horizontal = 1;
place = "{835, 74}";
type = Stem;
}
);
layerId = "6D1AFECB-6C65-4A9F-813E-BAE625DDDD1E";
paths = (
{
closed = 1;
nodes = (
"757 0 LINE",
"876 0 LINE",
"505 722 LINE",
"383 722 LINE",
"12 0 LINE",
"128 0 LINE",
"221 188 LINE",
"664 188 LINE"
);
},
{
closed = 1;
nodes = (
"263 270 LINE",
"444 634 LINE",
"624 270 LINE"
);
},
{
closed = 1;
nodes = (
"563 909 LINE",
"560 881 OFFCURVE",
"540 867 OFFCURVE",
"517 867 CURVE SMOOTH",
"492 867 OFFCURVE",
"402 909 OFFCURVE",
"354 909 CURVE SMOOTH",
"327 909 OFFCURVE",
"306 899 OFFCURVE",
"291 880 CURVE SMOOTH",
"276 861 OFFCURVE",
"268 833 OFFCURVE",
"267 793 CURVE",
"325 793 LINE",
"326 816 OFFCURVE",
"341 835 OFFCURVE",
"362 835 CURVE SMOOTH",
"392 835 OFFCURVE",
"475 799 OFFCURVE",
"528 799 CURVE SMOOTH",
"589 799 OFFCURVE",
"619 835 OFFCURVE",
"621 909 CURVE"
);
}
);
width = 888;
}
);
leftKerningGroup = A;
note = Atilde;
rightKerningGroup = A;
unicode = 00C3;
},
{
glyphname = Ccedilla;
lastChange = "2023-01-03 16:47:02 +0000";
layers = (
{
hints = (
{
horizontal = 1;
place = "{-206, 46}";
type = Stem;
},
{
horizontal = 1;
place = "{-96, 38}";
type = Stem;
},
{
horizontal = 1;
place = "{-18, 81}";
type = Stem;
},
{
horizontal = 1;
place = "{659, 82}";
type = Stem;
},
{
place = "{94, 110}";
type = Stem;
},
{
place = "{502, 88}";
type = Stem;
},
{
horizontal = 1;
place = "{-206, 21}";
target = up;
type = BottomGhost;
}
);
layerId = "6D1AFECB-6C65-4A9F-813E-BAE625DDDD1E";
paths = (
{
closed = 1;
nodes = (
"390 -81 LINE",
"409 -104 LINE",
"431 -98 OFFCURVE",
"442 -96 OFFCURVE",
"451 -96 CURVE SMOOTH",
"485 -96 OFFCURVE",
"502 -109 OFFCURVE",
"502 -127 CURVE SMOOTH",
"502 -149 OFFCURVE",
"473 -160 OFFCURVE",
"438 -160 CURVE SMOOTH",
"411 -160 OFFCURVE",
"379 -152 OFFCURVE",
"357 -144 CURVE",
"342 -185 LINE",
"374 -197 OFFCURVE",
"420 -206 OFFCURVE",
"460 -206 CURVE SMOOTH",
"526 -206 OFFCURVE",
"590 -183 OFFCURVE",
"590 -127 CURVE SMOOTH",
"590 -86 OFFCURVE",
"550 -58 OFFCURVE",
"493 -58 CURVE SMOOTH",
"482 -58 OFFCURVE",
"466 -60 OFFCURVE",
"452 -65 CURVE",
"450 -63 LINE",
"485 -19 LINE",
"656 -16 OFFCURVE",
"799 46 OFFCURVE",
"821 201 CURVE",
"705 201 LINE",
"687 107 OFFCURVE",
"591 63 OFFCURVE",
"492 63 CURVE SMOOTH",
"327 63 OFFCURVE",
"204 158 OFFCURVE",
"204 361 CURVE SMOOTH",
"204 564 OFFCURVE",
"327 659 OFFCURVE",
"492 659 CURVE SMOOTH",
"592 659 OFFCURVE",
"677 626 OFFCURVE",
"695 532 CURVE",
"811 532 LINE",
"802 655 OFFCURVE",
"671 741 OFFCURVE",
"500 741 CURVE SMOOTH",
"197 741 OFFCURVE",
"94 533 OFFCURVE",
"94 361 CURVE SMOOTH",
"94 172 OFFCURVE",
"202 -1 OFFCURVE",
"435 -18 CURVE"
);
}
);
width = 888;
}
);
leftKerningGroup = C;
note = Ccedilla;
unicode = 00C7;
},
{
glyphname = Eacute;
lastChange = "2023-01-03 16:47:02 +0000";
layers = (
{
hints = (
{
horizontal = 1;
place = "{0, 82}";
type = Stem;
},
{
horizontal = 1;
place = "{330, 82}";
type = Stem;
},
{
horizontal = 1;
place = "{640, 82}";
type = Stem;
},
{
horizontal = 1;
place = "{769, 140}";
type = Stem;
},
{
place = "{108, 104}";
type = Stem;
}
);
layerId = "6D1AFECB-6C65-4A9F-813E-BAE625DDDD1E";
paths = (
{
closed = 1;
nodes = (
"108 0 LINE",
"660 0 LINE",
"660 82 LINE",
"212 82 LINE",
"212 330 LINE",
"620 330 LINE",
"620 412 LINE",
"212 412 LINE",
"212 640 LINE",
"648 640 LINE",
"648 722 LINE",
"108 722 LINE"
);
},
{
closed = 1;
nodes = (
"292 769 LINE",
"374 769 LINE",
"528 909 LINE",
"406 909 LINE"
);
}
);
width = 740;
}
);
note = Eacute;
unicode = 00C9;
},
{
glyphname = Ecircumflex;
lastChange = "2023-01-03 16:47:02 +0000";
layers = (
{
hints = (
{
horizontal = 1;
place = "{0, 82}";
type = Stem;
},
{
horizontal = 1;
place = "{330, 82}";
type = Stem;
},
{
horizontal = 1;
place = "{640, 82}";
type = Stem;
},
{
horizontal = 1;
place = "{769, 140}";
type = Stem;
},
{
place = "{108, 104}";
type = Stem;
}
);
layerId = "6D1AFECB-6C65-4A9F-813E-BAE625DDDD1E";
paths = (
{
closed = 1;
nodes = (
"108 0 LINE",
"660 0 LINE",
"660 82 LINE",
"212 82 LINE",
"212 330 LINE",
"620 330 LINE",
"620 412 LINE",
"212 412 LINE",
"212 640 LINE",
"648 640 LINE",
"648 722 LINE",
"108 722 LINE"
);
},
{
closed = 1;
nodes = (
"477 769 LINE",
"559 769 LINE",
"440 909 LINE",
"324 909 LINE",
"205 769 LINE",
"287 769 LINE",
"382 871 LINE"
);
}
);
width = 740;
}
);
note = Ecircumflex;
unicode = 00CA;
},
{
glyphname = Edieresis;
lastChange = "2023-01-03 16:47:02 +0000";
layers = (
{
hints = (
{
horizontal = 1;
place = "{0, 82}";
type = Stem;
},
{
horizontal = 1;
place = "{330, 82}";
type = Stem;
},
{
horizontal = 1;
place = "{640, 82}";
type = Stem;
},
{
horizontal = 1;
place = "{809, 100}";
type = Stem;
},
{
place = "{108, 104}";
type = Stem;
},
{
place = "{436, 98}";
type = Stem;
},
{
place = "{230, 98}";
type = Stem;
}
);
layerId = "6D1AFECB-6C65-4A9F-813E-BAE625DDDD1E";
paths = (
{
closed = 1;
nodes = (
"108 0 LINE",
"660 0 LINE",
"660 82 LINE",
"212 82 LINE",
"212 330 LINE",
"620 330 LINE",
"620 412 LINE",
"212 412 LINE",
"212 640 LINE",
"648 640 LINE",
"648 722 LINE",
"108 722 LINE"
);
},
{
closed = 1;
nodes = (
"230 809 LINE",
"328 809 LINE",
"328 909 LINE",
"230 909 LINE"
);
},
{
closed = 1;
nodes = (
"436 809 LINE",
"534 809 LINE",
"534 909 LINE",
"436 909 LINE"
);
}
);
width = 740;
}
);
note = Edieresis;
unicode = 00CB;
},
{
glyphname = Egrave;
lastChange = "2023-01-03 16:47:02 +0000";
layers = (
{
hints = (
{
horizontal = 1;
place = "{0, 82}";
type = Stem;
},
{
horizontal = 1;
place = "{330, 82}";
type = Stem;
},
{
horizontal = 1;
place = "{640, 82}";
type = Stem;
},
{
horizontal = 1;
place = "{769, 140}";
type = Stem;
},
{
place = "{108, 104}";
type = Stem;
}
);
layerId = "6D1AFECB-6C65-4A9F-813E-BAE625DDDD1E";
paths = (
{
closed = 1;
nodes = (
"108 0 LINE",
"660 0 LINE",
"660 82 LINE",
"212 82 LINE",
"212 330 LINE",
"620 330 LINE",
"620 412 LINE",
"212 412 LINE",
"212 640 LINE",
"648 640 LINE",
"648 722 LINE",
"108 722 LINE"
);
},
{
closed = 1;
nodes = (
"390 769 LINE",
"472 769 LINE",
"358 909 LINE",
"236 909 LINE"
);
}
);
width = 740;
}
);
note = Egrave;
unicode = 00C8;
},
{
glyphname = Iacute;
lastChange = "2023-01-03 16:47:02 +0000";
layers = (
{
hints = (
{
horizontal = 1;
place = "{0, 21}";
target = up;
type = BottomGhost;
},
{
horizontal = 1;
place = "{722, -20}";
target = down;
type = TopGhost;
},
{
horizontal = 1;
place = "{769, 140}";
type = Stem;
},
{
place = "{96, 104}";
type = Stem;
}
);
layerId = "6D1AFECB-6C65-4A9F-813E-BAE625DDDD1E";
paths = (
{
closed = 1;
nodes = (
"96 0 LINE",
"200 0 LINE",
"200 722 LINE",
"96 722 LINE"
);
},
{
closed = 1;
nodes = (
"58 769 LINE",
"140 769 LINE",
"294 909 LINE",
"172 909 LINE"
);
}
);
width = 296;
}
);
note = Iacute;
unicode = 00CD;
},
{
glyphname = Icircumflex;
lastChange = "2023-01-03 16:47:02 +0000";
layers = (
{
hints = (
{
horizontal = 1;
place = "{0, 21}";
target = up;
type = BottomGhost;
},
{
horizontal = 1;
place = "{722, -20}";
target = down;
type = TopGhost;
},
{
horizontal = 1;
place = "{769, 140}";
type = Stem;
},
{
place = "{96, 104}";
type = Stem;
}
);
layerId = "6D1AFECB-6C65-4A9F-813E-BAE625DDDD1E";
paths = (
{
closed = 1;
nodes = (
"96 0 LINE",
"200 0 LINE",
"200 722 LINE",
"96 722 LINE"
);
},
{
closed = 1;
nodes = (
"243 769 LINE",
"325 769 LINE",
"206 909 LINE",
"90 909 LINE",
"-29 769 LINE",
"53 769 LINE",
"148 871 LINE"
);
}
);
width = 296;
}
);
note = Icircumflex;
unicode = 00CE;
},
{
glyphname = Idieresis;
lastChange = "2023-01-03 16:47:02 +0000";
layers = (
{
hints = (
{
horizontal = 1;
place = "{0, 21}";
target = up;
type = BottomGhost;
},
{
horizontal = 1;
place = "{722, -20}";
target = down;
type = TopGhost;
},
{
horizontal = 1;
place = "{809, 100}";
type = Stem;
},
{
place = "{96, 104}";
type = Stem;
},
{
place = "{-4, 98}";
type = Stem;
},
{
place = "{202, 98}";
type = Stem;
}
);
layerId = "6D1AFECB-6C65-4A9F-813E-BAE625DDDD1E";
paths = (
{
closed = 1;
nodes = (
"96 0 LINE",
"200 0 LINE",
"200 722 LINE",
"96 722 LINE"
);
},
{
closed = 1;
nodes = (
"-4 809 LINE",
"94 809 LINE",
"94 909 LINE",
"-4 909 LINE"
);
},
{
closed = 1;
nodes = (
"202 809 LINE",
"300 809 LINE",
"300 909 LINE",
"202 909 LINE"
);
}
);
width = 296;
}
);
note = Idieresis;
unicode = 00CF;
},
{
glyphname = Igrave;
lastChange = "2023-01-03 16:47:02 +0000";
layers = (
{
hints = (
{
horizontal = 1;
place = "{0, 21}";
target = up;
type = BottomGhost;
},
{
horizontal = 1;
place = "{722, -20}";
target = down;
type = TopGhost;
},
{
horizontal = 1;
place = "{769, 140}";
type = Stem;
},
{
place = "{96, 104}";
type = Stem;
}
);
layerId = "6D1AFECB-6C65-4A9F-813E-BAE625DDDD1E";
paths = (
{
closed = 1;
nodes = (
"96 0 LINE",
"200 0 LINE",
"200 722 LINE",
"96 722 LINE"
);
},
{
closed = 1;
nodes = (
"156 769 LINE",
"238 769 LINE",
"124 909 LINE",
"2 909 LINE"
);
}
);
width = 296;
}
);
note = Igrave;
unicode = 00CC;
},
{
glyphname = Ntilde;
lastChange = "2023-01-03 16:47:02 +0000";
layers = (
{
hints = (
{
horizontal = 1;
place = "{0, 21}";
target = up;
type = BottomGhost;
},
{
horizontal = 1;
place = "{722, -20}";
target = down;
type = TopGhost;
},
{
horizontal = 1;
place = "{799, 68}";
type = Stem;
},
{
place = "{99, 104}";
type = Stem;
},
{
place = "{685, 104}";
type = Stem;
},
{
horizontal = 1;
place = "{0, 106}";
type = Stem;
},
{
horizontal = 1;
place = "{616, 106}";
type = Stem;
},
{
horizontal = 1;
place = "{835, 74}";
type = Stem;
},
{
place = "{267, 58}";
type = Stem;
}
);
layerId = "6D1AFECB-6C65-4A9F-813E-BAE625DDDD1E";
paths = (
{
closed = 1;
nodes = (
"685 106 LINE",
"683 106 LINE",
"241 722 LINE",
"99 722 LINE",
"99 0 LINE",
"203 0 LINE",
"203 616 LINE",
"205 616 LINE",
"647 0 LINE",
"789 0 LINE",
"789 722 LINE",
"685 722 LINE"
);
},
{
closed = 1;
nodes = (
"563 909 LINE",
"560 881 OFFCURVE",
"540 867 OFFCURVE",
"517 867 CURVE SMOOTH",
"492 867 OFFCURVE",
"402 909 OFFCURVE",
"354 909 CURVE SMOOTH",
"327 909 OFFCURVE",
"306 899 OFFCURVE",
"291 880 CURVE SMOOTH",
"276 861 OFFCURVE",
"268 833 OFFCURVE",
"267 793 CURVE",
"325 793 LINE",
"326 816 OFFCURVE",
"341 835 OFFCURVE",
"362 835 CURVE SMOOTH",
"392 835 OFFCURVE",
"475 799 OFFCURVE",
"528 799 CURVE SMOOTH",
"589 799 OFFCURVE",
"619 835 OFFCURVE",
"621 909 CURVE"
);
}
);
width = 888;
}
);
note = Ntilde;
rightKerningGroup = N;
unicode = 00D1;
},
{
glyphname = Oacute;
lastChange = "2023-01-03 16:47:02 +0000";
layers = (
{
hints = (
{
horizontal = 1;
place = "{-19, 82}";
type = Stem;
},
{
horizontal = 1;
place = "{659, 82}";
type = Stem;
},
{
place = "{75, 110}";
type = Stem;
},
{
place = "{777, 110}";
type = Stem;
},
{
horizontal = 1;
place = "{769, 140}";
type = Stem;
}
);
layerId = "6D1AFECB-6C65-4A9F-813E-BAE625DDDD1E";
paths = (
{
closed = 1;
nodes = (
"75 189 OFFCURVE",
"178 -19 OFFCURVE",
"481 -19 CURVE SMOOTH",
"784 -19 OFFCURVE",
"887 189 OFFCURVE",
"887 361 CURVE SMOOTH",
"887 533 OFFCURVE",
"784 741 OFFCURVE",
"481 741 CURVE SMOOTH",
"178 741 OFFCURVE",
"75 533 OFFCURVE",
"75 361 CURVE SMOOTH"
);
},
{
closed = 1;
nodes = (
"185 539 OFFCURVE",
"306 659 OFFCURVE",
"481 659 CURVE SMOOTH",
"656 659 OFFCURVE",
"777 539 OFFCURVE",
"777 361 CURVE SMOOTH",
"777 183 OFFCURVE",
"656 63 OFFCURVE",
"481 63 CURVE SMOOTH",
"306 63 OFFCURVE",
"185 183 OFFCURVE",
"185 361 CURVE SMOOTH"
);
},
{
closed = 1;
nodes = (
"391 769 LINE",
"473 769 LINE",
"627 909 LINE",
"505 909 LINE"
);
}
);
width = 962;
}
);
leftKerningGroup = O;
note = Oacute;
rightKerningGroup = O;
unicode = 00D3;
},
{
glyphname = Ocircumflex;
lastChange = "2023-01-03 16:47:02 +0000";
layers = (
{
hints = (
{
horizontal = 1;
place = "{-19, 82}";
type = Stem;
},
{
horizontal = 1;
place = "{659, 82}";
type = Stem;
},
{
place = "{75, 110}";
type = Stem;
},
{
place = "{777, 110}";
type = Stem;
},
{
horizontal = 1;
place = "{769, 140}";
type = Stem;
}
);
layerId = "6D1AFECB-6C65-4A9F-813E-BAE625DDDD1E";
paths = (
{
closed = 1;
nodes = (
"75 189 OFFCURVE",
"178 -19 OFFCURVE",
"481 -19 CURVE SMOOTH",
"784 -19 OFFCURVE",
"887 189 OFFCURVE",
"887 361 CURVE SMOOTH",
"887 533 OFFCURVE",
"784 741 OFFCURVE",
"481 741 CURVE SMOOTH",
"178 741 OFFCURVE",
"75 533 OFFCURVE",
"75 361 CURVE SMOOTH"
);
},
{
closed = 1;
nodes = (
"185 539 OFFCURVE",
"306 659 OFFCURVE",
"481 659 CURVE SMOOTH",
"656 659 OFFCURVE",
"777 539 OFFCURVE",
"777 361 CURVE SMOOTH",
"777 183 OFFCURVE",
"656 63 OFFCURVE",
"481 63 CURVE SMOOTH",
"306 63 OFFCURVE",
"185 183 OFFCURVE",
"185 361 CURVE SMOOTH"
);
},
{
closed = 1;
nodes = (
"576 769 LINE",
"658 769 LINE",
"539 909 LINE",
"423 909 LINE",
"304 769 LINE",
"386 769 LINE",
"481 871 LINE"
);
}
);
width = 962;
}
);
leftKerningGroup = O;
note = Ocircumflex;
rightKerningGroup = O;
unicode = 00D4;
},
{
glyphname = Odieresis;
lastChange = "2023-01-03 16:47:02 +0000";
layers = (
{
hints = (
{
horizontal = 1;
place = "{-19, 82}";
type = Stem;
},
{
horizontal = 1;
place = "{659, 82}";
type = Stem;
},
{
horizontal = 1;
place = "{809, 100}";
type = Stem;
},
{
place = "{75, 110}";
type = Stem;
},
{
place = "{329, 98}";
type = Stem;
},
{
place = "{535, 98}";
type = Stem;
},
{
place = "{777, 110}";
type = Stem;
}
);
layerId = "6D1AFECB-6C65-4A9F-813E-BAE625DDDD1E";
paths = (
{
closed = 1;
nodes = (
"75 189 OFFCURVE",
"178 -19 OFFCURVE",
"481 -19 CURVE SMOOTH",
"784 -19 OFFCURVE",
"887 189 OFFCURVE",
"887 361 CURVE SMOOTH",
"887 533 OFFCURVE",
"784 741 OFFCURVE",
"481 741 CURVE SMOOTH",
"178 741 OFFCURVE",
"75 533 OFFCURVE",
"75 361 CURVE SMOOTH"
);
},
{
closed = 1;
nodes = (
"185 539 OFFCURVE",
"306 659 OFFCURVE",
"481 659 CURVE SMOOTH",
"656 659 OFFCURVE",
"777 539 OFFCURVE",
"777 361 CURVE SMOOTH",
"777 183 OFFCURVE",
"656 63 OFFCURVE",
"481 63 CURVE SMOOTH",
"306 63 OFFCURVE",
"185 183 OFFCURVE",
"185 361 CURVE SMOOTH"
);
},
{
closed = 1;
nodes = (
"329 809 LINE",
"427 809 LINE",
"427 909 LINE",
"329 909 LINE"
);
},
{
closed = 1;
nodes = (
"535 809 LINE",
"633 809 LINE",
"633 909 LINE",
"535 909 LINE"
);
}
);
width = 962;
}
);
leftKerningGroup = O;
note = Odieresis;
rightKerningGroup = O;
unicode = 00D6;
},
{
glyphname = Ograve;
lastChange = "2023-01-03 16:47:02 +0000";
layers = (
{
hints = (
{
horizontal = 1;
place = "{-19, 82}";
type = Stem;
},
{
horizontal = 1;
place = "{659, 82}";
type = Stem;
},
{
place = "{75, 110}";
type = Stem;
},
{
place = "{777, 110}";
type = Stem;
},
{
horizontal = 1;
place = "{769, 140}";
type = Stem;
}
);
layerId = "6D1AFECB-6C65-4A9F-813E-BAE625DDDD1E";
paths = (
{
closed = 1;
nodes = (
"75 189 OFFCURVE",
"178 -19 OFFCURVE",
"481 -19 CURVE SMOOTH",
"784 -19 OFFCURVE",
"887 189 OFFCURVE",
"887 361 CURVE SMOOTH",
"887 533 OFFCURVE",
"784 741 OFFCURVE",
"481 741 CURVE SMOOTH",
"178 741 OFFCURVE",
"75 533 OFFCURVE",
"75 361 CURVE SMOOTH"
);
},
{
closed = 1;
nodes = (
"185 539 OFFCURVE",
"306 659 OFFCURVE",
"481 659 CURVE SMOOTH",
"656 659 OFFCURVE",
"777 539 OFFCURVE",
"777 361 CURVE SMOOTH",
"777 183 OFFCURVE",
"656 63 OFFCURVE",
"481 63 CURVE SMOOTH",
"306 63 OFFCURVE",
"185 183 OFFCURVE",
"185 361 CURVE SMOOTH"
);
},
{
closed = 1;
nodes = (
"489 769 LINE",
"571 769 LINE",
"457 909 LINE",
"335 909 LINE"
);
}
);
width = 962;
}
);
leftKerningGroup = O;
note = Ograve;
rightKerningGroup = O;
unicode = 00D2;
},
{
glyphname = Otilde;
lastChange = "2023-01-03 16:47:02 +0000";
layers = (
{
hints = (
{
horizontal = 1;
place = "{-19, 82}";
type = Stem;
},
{
horizontal = 1;
place = "{659, 82}";
type = Stem;
},
{
horizontal = 1;
place = "{799, 68}";
type = Stem;
},
{
place = "{75, 110}";
type = Stem;
},
{
place = "{777, 110}";
type = Stem;
},
{
horizontal = 1;
place = "{835, 74}";
type = Stem;
},
{
place = "{304, 58}";
type = Stem;
}
);
layerId = "6D1AFECB-6C65-4A9F-813E-BAE625DDDD1E";
paths = (
{
closed = 1;
nodes = (
"75 189 OFFCURVE",
"178 -19 OFFCURVE",
"481 -19 CURVE SMOOTH",
"784 -19 OFFCURVE",
"887 189 OFFCURVE",
"887 361 CURVE SMOOTH",
"887 533 OFFCURVE",
"784 741 OFFCURVE",
"481 741 CURVE SMOOTH",
"178 741 OFFCURVE",
"75 533 OFFCURVE",
"75 361 CURVE SMOOTH"
);
},
{
closed = 1;
nodes = (
"185 539 OFFCURVE",
"306 659 OFFCURVE",
"481 659 CURVE SMOOTH",
"656 659 OFFCURVE",
"777 539 OFFCURVE",
"777 361 CURVE SMOOTH",
"777 183 OFFCURVE",
"656 63 OFFCURVE",
"481 63 CURVE SMOOTH",
"306 63 OFFCURVE",
"185 183 OFFCURVE",
"185 361 CURVE SMOOTH"
);
},
{
closed = 1;
nodes = (
"600 909 LINE",
"597 881 OFFCURVE",
"577 867 OFFCURVE",
"554 867 CURVE SMOOTH",
"529 867 OFFCURVE",
"439 909 OFFCURVE",
"391 909 CURVE SMOOTH",
"364 909 OFFCURVE",
"343 899 OFFCURVE",
"328 880 CURVE SMOOTH",
"313 861 OFFCURVE",
"305 833 OFFCURVE",
"304 793 CURVE",
"362 793 LINE",
"363 816 OFFCURVE",
"378 835 OFFCURVE",
"399 835 CURVE SMOOTH",
"429 835 OFFCURVE",
"512 799 OFFCURVE",
"565 799 CURVE SMOOTH",
"626 799 OFFCURVE",
"656 835 OFFCURVE",
"658 909 CURVE"
);
}
);
width = 962;
}
);
leftKerningGroup = O;
note = Otilde;
rightKerningGroup = O;
unicode = 00D5;
},
{
glyphname = Scaron;
lastChange = "2023-01-03 16:47:02 +0000";
layers = (
{
hints = (
{
horizontal = 1;
place = "{-19, 82}";
type = Stem;
},
{
horizontal = 1;
place = "{659, 82}";
type = Stem;
},
{
place = "{90, 104}";
type = Stem;
},
{
place = "{643, 104}";
type = Stem;
},
{
horizontal = 1;
place = "{769, 140}";
type = Stem;
}
);
layerId = "6D1AFECB-6C65-4A9F-813E-BAE625DDDD1E";
paths = (
{
closed = 1;
nodes = (
"724 530 LINE",
"714 696 OFFCURVE",
"555 741 OFFCURVE",
"405 741 CURVE SMOOTH",
"208 741 OFFCURVE",
"90 661 OFFCURVE",
"90 522 CURVE SMOOTH",
"90 220 OFFCURVE",
"643 401 OFFCURVE",
"643 201 CURVE SMOOTH",
"643 122 OFFCURVE",
"560 63 OFFCURVE",
"410 63 CURVE SMOOTH",
"273 63 OFFCURVE",
"180 119 OFFCURVE",
"177 216 CURVE",
"67 216 LINE",
"80 57 OFFCURVE",
"199 -19 OFFCURVE",
"404 -19 CURVE SMOOTH",
"618 -19 OFFCURVE",
"747 68 OFFCURVE",
"747 212 CURVE SMOOTH",
"747 301 OFFCURVE",
"693 368 OFFCURVE",
"576 388 CURVE SMOOTH",
"307 434 LINE SMOOTH",
"218 449 OFFCURVE",
"194 489 OFFCURVE",
"194 528 CURVE SMOOTH",
"194 608 OFFCURVE",
"281 659 OFFCURVE",
"384 659 CURVE SMOOTH",
"501 659 OFFCURVE",
"604 631 OFFCURVE",
"614 530 CURVE"
);
},
{
closed = 1;
nodes = (
"349 769 LINE",
"465 769 LINE",
"584 909 LINE",
"502 909 LINE",
"407 807 LINE",
"312 909 LINE",
"230 909 LINE"
);
}
);
width = 814;
}
);
note = Scaron;
rightKerningGroup = S;
unicode = 0160;
},
{
glyphname = Uacute;
lastChange = "2023-01-03 16:47:02 +0000";
layers = (
{
hints = (
{
horizontal = 1;
place = "{-19, 82}";
type = Stem;
},
{
horizontal = 1;
place = "{722, -20}";
target = down;
type = TopGhost;
},
{
horizontal = 1;
place = "{769, 140}";
type = Stem;
},
{
place = "{108, 104}";
type = Stem;
},
{
place = "{676, 104}";
type = Stem;
}
);
layerId = "6D1AFECB-6C65-4A9F-813E-BAE625DDDD1E";
paths = (
{
closed = 1;
nodes = (
"676 286 LINE SMOOTH",
"676 148 OFFCURVE",
"593 63 OFFCURVE",
"444 63 CURVE SMOOTH",
"295 63 OFFCURVE",
"212 148 OFFCURVE",
"212 286 CURVE SMOOTH",
"212 722 LINE",
"108 722 LINE",
"108 291 LINE SMOOTH",
"108 85 OFFCURVE",
"248 -19 OFFCURVE",
"444 -19 CURVE SMOOTH",
"640 -19 OFFCURVE",
"780 85 OFFCURVE",
"780 291 CURVE SMOOTH",
"780 722 LINE",
"676 722 LINE"
);
},
{
closed = 1;
nodes = (
"354 769 LINE",
"436 769 LINE",
"590 909 LINE",
"468 909 LINE"
);
}
);
width = 888;
}
);
leftKerningGroup = U;
note = Uacute;
rightKerningGroup = U;
unicode = 00DA;
},
{
glyphname = Ucircumflex;
lastChange = "2023-01-03 16:47:02 +0000";
layers = (
{
hints = (
{
horizontal = 1;
place = "{-19, 82}";
type = Stem;
},
{
horizontal = 1;
place = "{722, -20}";
target = down;
type = TopGhost;
},
{
horizontal = 1;
place = "{769, 140}";
type = Stem;
},
{
place = "{108, 104}";
type = Stem;
},
{
place = "{676, 104}";
type = Stem;
}
);
layerId = "6D1AFECB-6C65-4A9F-813E-BAE625DDDD1E";
paths = (
{
closed = 1;
nodes = (
"676 286 LINE SMOOTH",
"676 148 OFFCURVE",
"593 63 OFFCURVE",
"444 63 CURVE SMOOTH",
"295 63 OFFCURVE",
"212 148 OFFCURVE",
"212 286 CURVE SMOOTH",
"212 722 LINE",
"108 722 LINE",
"108 291 LINE SMOOTH",
"108 85 OFFCURVE",
"248 -19 OFFCURVE",
"444 -19 CURVE SMOOTH",
"640 -19 OFFCURVE",
"780 85 OFFCURVE",
"780 291 CURVE SMOOTH",
"780 722 LINE",
"676 722 LINE"
);
},
{
closed = 1;
nodes = (
"539 769 LINE",
"621 769 LINE",
"502 909 LINE",
"386 909 LINE",
"267 769 LINE",
"349 769 LINE",
"444 871 LINE"
);
}
);
width = 888;
}
);
leftKerningGroup = U;
note = Ucircumflex;
rightKerningGroup = U;
unicode = 00DB;
},
{
glyphname = Udieresis;
lastChange = "2023-01-03 16:47:02 +0000";
layers = (
{
hints = (
{
horizontal = 1;
place = "{-19, 82}";
type = Stem;
},
{
horizontal = 1;
place = "{722, -20}";
target = down;
type = TopGhost;
},
{
horizontal = 1;
place = "{809, 100}";
type = Stem;
},
{
place = "{108, 104}";
type = Stem;
},
{
place = "{292, 98}";
type = Stem;
},
{
place = "{498, 98}";
type = Stem;
},
{
place = "{676, 104}";
type = Stem;
}
);
layerId = "6D1AFECB-6C65-4A9F-813E-BAE625DDDD1E";
paths = (
{
closed = 1;
nodes = (
"676 286 LINE SMOOTH",
"676 148 OFFCURVE",
"593 63 OFFCURVE",
"444 63 CURVE SMOOTH",
"295 63 OFFCURVE",
"212 148 OFFCURVE",
"212 286 CURVE SMOOTH",
"212 722 LINE",
"108 722 LINE",
"108 291 LINE SMOOTH",
"108 85 OFFCURVE",
"248 -19 OFFCURVE",
"444 -19 CURVE SMOOTH",
"640 -19 OFFCURVE",
"780 85 OFFCURVE",
"780 291 CURVE SMOOTH",
"780 722 LINE",
"676 722 LINE"
);
},
{
closed = 1;
nodes = (
"292 809 LINE",
"390 809 LINE",
"390 909 LINE",
"292 909 LINE"
);
},
{
closed = 1;
nodes = (
"498 809 LINE",
"596 809 LINE",
"596 909 LINE",
"498 909 LINE"
);
}
);
width = 888;
}
);
leftKerningGroup = U;
note = Udieresis;
rightKerningGroup = U;
unicode = 00DC;
},
{
glyphname = Ugrave;
lastChange = "2023-01-03 16:47:02 +0000";
layers = (
{
hints = (
{
horizontal = 1;
place = "{-19, 82}";
type = Stem;
},
{
horizontal = 1;
place = "{722, -20}";
target = down;
type = TopGhost;
},
{
horizontal = 1;
place = "{769, 140}";
type = Stem;
},
{
place = "{108, 104}";
type = Stem;
},
{
place = "{676, 104}";
type = Stem;
}
);
layerId = "6D1AFECB-6C65-4A9F-813E-BAE625DDDD1E";
paths = (
{
closed = 1;
nodes = (
"676 286 LINE SMOOTH",
"676 148 OFFCURVE",
"593 63 OFFCURVE",
"444 63 CURVE SMOOTH",
"295 63 OFFCURVE",
"212 148 OFFCURVE",
"212 286 CURVE SMOOTH",
"212 722 LINE",
"108 722 LINE",
"108 291 LINE SMOOTH",
"108 85 OFFCURVE",
"248 -19 OFFCURVE",
"444 -19 CURVE SMOOTH",
"640 -19 OFFCURVE",
"780 85 OFFCURVE",
"780 291 CURVE SMOOTH",
"780 722 LINE",
"676 722 LINE"
);
},
{
closed = 1;
nodes = (
"452 769 LINE",
"534 769 LINE",
"420 909 LINE",
"298 909 LINE"
);
}
);
width = 888;
}
);
leftKerningGroup = U;
note = Ugrave;
rightKerningGroup = U;
unicode = 00D9;
},
{
glyphname = Yacute;
lastChange = "2023-01-03 16:47:02 +0000";
layers = (
{
hints = (
{
horizontal = 1;
place = "{0, 21}";
target = up;
type = BottomGhost;
},
{
horizontal = 1;
place = "{722, -20}";
target = down;
type = TopGhost;
},
{
horizontal = 1;
place = "{769, 140}";
type = Stem;
},
{
place = "{355, 104}";
type = Stem;
}
);
layerId = "6D1AFECB-6C65-4A9F-813E-BAE625DDDD1E";
paths = (
{
closed = 1;
nodes = (
"459 0 LINE",
"459 301 LINE",
"802 722 LINE",
"668 722 LINE",
"407 387 LINE",
"146 722 LINE",
"12 722 LINE",
"355 301 LINE",
"355 0 LINE"
);
},
{
closed = 1;
nodes = (
"350 769 LINE",
"432 769 LINE",
"586 909 LINE",
"464 909 LINE"
);
}
);
width = 814;
}
);
leftKerningGroup = Y;
note = Yacute;
rightKerningGroup = Y;
unicode = 00DD;
},
{
glyphname = Ydieresis;
lastChange = "2023-01-03 16:47:02 +0000";
layers = (
{
hints = (
{
horizontal = 1;
place = "{0, 21}";
target = up;
type = BottomGhost;
},
{
horizontal = 1;
place = "{722, -20}";
target = down;
type = TopGhost;
},
{
horizontal = 1;
place = "{809, 100}";
type = Stem;
},
{
place = "{355, 104}";
type = Stem;
},
{
place = "{255, 98}";
type = Stem;
},
{
place = "{461, 98}";
type = Stem;
}
);
layerId = "6D1AFECB-6C65-4A9F-813E-BAE625DDDD1E";
paths = (
{
closed = 1;
nodes = (
"459 0 LINE",
"459 301 LINE",
"802 722 LINE",
"668 722 LINE",
"407 387 LINE",
"146 722 LINE",
"12 722 LINE",
"355 301 LINE",
"355 0 LINE"
);
},
{
closed = 1;
nodes = (
"255 809 LINE",
"353 809 LINE",
"353 909 LINE",
"255 909 LINE"
);
},
{
closed = 1;
nodes = (
"461 809 LINE",
"559 809 LINE",
"559 909 LINE",
"461 909 LINE"
);
}
);
width = 814;
}
);
leftKerningGroup = Y;
note = Ydieresis;
rightKerningGroup = Y;
unicode = 0178;
},
{
glyphname = Zcaron;
lastChange = "2023-01-03 16:47:02 +0000";
layers = (
{
hints = (
{
horizontal = 1;
place = "{0, 82}";
type = Stem;
},
{
horizontal = 1;
place = "{640, 82}";
type = Stem;
},
{
horizontal = 1;
place = "{769, 140}";
type = Stem;
},
{
place = "{36, 668}";
type = Stem;
}
);
layerId = "6D1AFECB-6C65-4A9F-813E-BAE625DDDD1E";
paths = (
{
closed = 1;
nodes = (
"36 0 LINE",
"704 0 LINE",
"704 82 LINE",
"164 82 LINE",
"688 612 LINE",
"688 722 LINE",
"58 722 LINE",
"58 640 LINE",
"578 640 LINE",
"36 94 LINE"
);
},
{
closed = 1;
nodes = (
"312 769 LINE",
"428 769 LINE",
"547 909 LINE",
"465 909 LINE",
"370 807 LINE",
"275 909 LINE",
"193 909 LINE"
);
}
);
width = 740;
}
);
note = Zcaron;
unicode = 017D;
},
{
glyphname = aacute;
lastChange = "2023-01-03 16:47:02 +0000";
layers = (
{
hints = (
{
horizontal = 1;
place = "{-19, 68}";
type = Stem;
},
{
horizontal = 1;
place = "{245, 68}";
type = Stem;
},
{
horizontal = 1;
place = "{453, 68}";
type = Stem;
},
{
horizontal = 1;
place = "{582, 140}";
type = Stem;
},
{
place = "{56, 104}";
type = Stem;
},
{
place = "{485, 98}";
type = Stem;
},
{
horizontal = 1;
place = "{0, 21}";
target = up;
type = BottomGhost;
}
);
layerId = "6D1AFECB-6C65-4A9F-813E-BAE625DDDD1E";
paths = (
{
closed = 1;
nodes = (
"196 371 LINE",
"201 426 OFFCURVE",
"259 453 OFFCURVE",
"328 453 CURVE SMOOTH",
"425 453 OFFCURVE",
"485 423 OFFCURVE",
"485 327 CURVE SMOOTH",
"485 313 LINE",
"439 313 OFFCURVE",
"388 313 OFFCURVE",
"314 311 CURVE SMOOTH",
"136 306 OFFCURVE",
"56 251 OFFCURVE",
"56 145 CURVE SMOOTH",
"56 51 OFFCURVE",
"143 -19 OFFCURVE",
"270 -19 CURVE SMOOTH",
"368 -19 OFFCURVE",
"432 -5 OFFCURVE",
"489 70 CURVE",
"491 70 LINE",
"491 47 OFFCURVE",
"492 23 OFFCURVE",
"495 0 CURVE",
"587 0 LINE",
"584 27 OFFCURVE",
"583 58 OFFCURVE",
"583 96 CURVE SMOOTH",
"583 343 LINE SMOOTH",
"583 468 OFFCURVE",
"481 521 OFFCURVE",
"342 521 CURVE SMOOTH",
"233 521 OFFCURVE",
"104 490 OFFCURVE",
"92 371 CURVE"
);
},
{
closed = 1;
nodes = (
"485 222 LINE SMOOTH",
"485 101 OFFCURVE",
"417 49 OFFCURVE",
"296 49 CURVE SMOOTH",
"201 49 OFFCURVE",
"160 98 OFFCURVE",
"160 148 CURVE SMOOTH",
"160 221 OFFCURVE",
"227 238 OFFCURVE",
"329 242 CURVE SMOOTH",
"404 245 OFFCURVE",
"452 245 OFFCURVE",
"485 245 CURVE"
);
},
{
closed = 1;
nodes = (
"249 582 LINE",
"331 582 LINE",
"485 722 LINE",
"363 722 LINE"
);
}
);
width = 666;
}
);
leftKerningGroup = a;
note = aacute;
rightKerningGroup = a;
unicode = 00E1;
},
{
glyphname = acircumflex;
lastChange = "2023-01-03 16:47:02 +0000";
layers = (
{
hints = (
{
horizontal = 1;
place = "{-19, 68}";
type = Stem;
},
{
horizontal = 1;
place = "{245, 68}";
type = Stem;
},
{
horizontal = 1;
place = "{453, 68}";
type = Stem;
},
{
horizontal = 1;
place = "{582, 140}";
type = Stem;
},
{
place = "{56, 104}";
type = Stem;
},
{
place = "{485, 98}";
type = Stem;
},
{
horizontal = 1;
place = "{0, 21}";
target = up;
type = BottomGhost;
},
{
horizontal = 1;
place = "{684, 38}";
type = Stem;
}
);
layerId = "6D1AFECB-6C65-4A9F-813E-BAE625DDDD1E";
paths = (
{
closed = 1;
nodes = (
"196 371 LINE",
"201 426 OFFCURVE",
"259 453 OFFCURVE",
"328 453 CURVE SMOOTH",
"425 453 OFFCURVE",
"485 423 OFFCURVE",
"485 327 CURVE SMOOTH",
"485 313 LINE",
"439 313 OFFCURVE",
"388 313 OFFCURVE",
"314 311 CURVE SMOOTH",
"136 306 OFFCURVE",
"56 251 OFFCURVE",
"56 145 CURVE SMOOTH",
"56 51 OFFCURVE",
"143 -19 OFFCURVE",
"270 -19 CURVE SMOOTH",
"368 -19 OFFCURVE",
"432 -5 OFFCURVE",
"489 70 CURVE",
"491 70 LINE",
"491 47 OFFCURVE",
"492 23 OFFCURVE",
"495 0 CURVE",
"587 0 LINE",
"584 27 OFFCURVE",
"583 58 OFFCURVE",
"583 96 CURVE SMOOTH",
"583 343 LINE SMOOTH",
"583 468 OFFCURVE",
"481 521 OFFCURVE",
"342 521 CURVE SMOOTH",
"233 521 OFFCURVE",
"104 490 OFFCURVE",
"92 371 CURVE"
);
},
{
closed = 1;
nodes = (
"485 222 LINE SMOOTH",
"485 101 OFFCURVE",
"417 49 OFFCURVE",
"296 49 CURVE SMOOTH",
"201 49 OFFCURVE",
"160 98 OFFCURVE",
"160 148 CURVE SMOOTH",
"160 221 OFFCURVE",
"227 238 OFFCURVE",
"329 242 CURVE SMOOTH",
"404 245 OFFCURVE",
"452 245 OFFCURVE",
"485 245 CURVE"
);
},
{
closed = 1;
nodes = (
"434 582 LINE",
"516 582 LINE",
"397 722 LINE",
"281 722 LINE",
"162 582 LINE",
"244 582 LINE",
"339 684 LINE"
);
}
);
width = 666;
}
);
leftKerningGroup = a;
note = acircumflex;
rightKerningGroup = a;
unicode = 00E2;
},
{
glyphname = adieresis;
lastChange = "2023-01-03 16:47:02 +0000";
layers = (
{
hints = (
{
horizontal = 1;
place = "{-19, 68}";
type = Stem;
},
{
horizontal = 1;
place = "{245, 68}";
type = Stem;
},
{
horizontal = 1;
place = "{453, 68}";
type = Stem;
},
{
horizontal = 1;
place = "{622, 100}";
type = Stem;
},
{
place = "{187, 98}";
type = Stem;
},
{
place = "{485, 98}";
type = Stem;
},
{
place = "{56, 104}";
type = Stem;
},
{
horizontal = 1;
place = "{0, 21}";
target = up;
type = BottomGhost;
},
{
place = "{393, 98}";
type = Stem;
}
);
layerId = "6D1AFECB-6C65-4A9F-813E-BAE625DDDD1E";
paths = (
{
closed = 1;
nodes = (
"196 371 LINE",
"201 426 OFFCURVE",
"259 453 OFFCURVE",
"328 453 CURVE SMOOTH",
"425 453 OFFCURVE",
"485 423 OFFCURVE",
"485 327 CURVE SMOOTH",
"485 313 LINE",
"439 313 OFFCURVE",
"388 313 OFFCURVE",
"314 311 CURVE SMOOTH",
"136 306 OFFCURVE",
"56 251 OFFCURVE",
"56 145 CURVE SMOOTH",
"56 51 OFFCURVE",
"143 -19 OFFCURVE",
"270 -19 CURVE SMOOTH",
"368 -19 OFFCURVE",
"432 -5 OFFCURVE",
"489 70 CURVE",
"491 70 LINE",
"491 47 OFFCURVE",
"492 23 OFFCURVE",
"495 0 CURVE",
"587 0 LINE",
"584 27 OFFCURVE",
"583 58 OFFCURVE",
"583 96 CURVE SMOOTH",
"583 343 LINE SMOOTH",
"583 468 OFFCURVE",
"481 521 OFFCURVE",
"342 521 CURVE SMOOTH",
"233 521 OFFCURVE",
"104 490 OFFCURVE",
"92 371 CURVE"
);
},
{
closed = 1;
nodes = (
"485 222 LINE SMOOTH",
"485 101 OFFCURVE",
"417 49 OFFCURVE",
"296 49 CURVE SMOOTH",
"201 49 OFFCURVE",
"160 98 OFFCURVE",
"160 148 CURVE SMOOTH",
"160 221 OFFCURVE",
"227 238 OFFCURVE",
"329 242 CURVE SMOOTH",
"404 245 OFFCURVE",
"452 245 OFFCURVE",
"485 245 CURVE"
);
},
{
closed = 1;
nodes = (
"187 622 LINE",
"285 622 LINE",
"285 722 LINE",
"187 722 LINE"
);
},
{
closed = 1;
nodes = (
"393 622 LINE",
"491 622 LINE",
"491 722 LINE",
"393 722 LINE"
);
}
);
width = 666;
}
);
leftKerningGroup = a;
note = adieresis;
rightKerningGroup = a;
unicode = 00E4;
},
{
glyphname = agrave;
lastChange = "2023-01-03 16:47:02 +0000";
layers = (
{
hints = (
{
horizontal = 1;
place = "{-19, 68}";
type = Stem;
},
{
horizontal = 1;
place = "{245, 68}";
type = Stem;
},
{
horizontal = 1;
place = "{453, 68}";
type = Stem;
},
{
horizontal = 1;
place = "{582, 140}";
type = Stem;
},
{
place = "{56, 104}";
type = Stem;
},
{
place = "{485, 98}";
type = Stem;
},
{
horizontal = 1;
place = "{0, 21}";
target = up;
type = BottomGhost;
}
);
layerId = "6D1AFECB-6C65-4A9F-813E-BAE625DDDD1E";
paths = (
{
closed = 1;
nodes = (
"196 371 LINE",
"201 426 OFFCURVE",
"259 453 OFFCURVE",
"328 453 CURVE SMOOTH",
"425 453 OFFCURVE",
"485 423 OFFCURVE",
"485 327 CURVE SMOOTH",
"485 313 LINE",
"439 313 OFFCURVE",
"388 313 OFFCURVE",
"314 311 CURVE SMOOTH",
"136 306 OFFCURVE",
"56 251 OFFCURVE",
"56 145 CURVE SMOOTH",
"56 51 OFFCURVE",
"143 -19 OFFCURVE",
"270 -19 CURVE SMOOTH",
"368 -19 OFFCURVE",
"432 -5 OFFCURVE",
"489 70 CURVE",
"491 70 LINE",
"491 47 OFFCURVE",
"492 23 OFFCURVE",
"495 0 CURVE",
"587 0 LINE",
"584 27 OFFCURVE",
"583 58 OFFCURVE",
"583 96 CURVE SMOOTH",
"583 343 LINE SMOOTH",
"583 468 OFFCURVE",
"481 521 OFFCURVE",
"342 521 CURVE SMOOTH",
"233 521 OFFCURVE",
"104 490 OFFCURVE",
"92 371 CURVE"
);
},
{
closed = 1;
nodes = (
"485 222 LINE SMOOTH",
"485 101 OFFCURVE",
"417 49 OFFCURVE",
"296 49 CURVE SMOOTH",
"201 49 OFFCURVE",
"160 98 OFFCURVE",
"160 148 CURVE SMOOTH",
"160 221 OFFCURVE",
"227 238 OFFCURVE",
"329 242 CURVE SMOOTH",
"404 245 OFFCURVE",
"452 245 OFFCURVE",
"485 245 CURVE"
);
},
{
closed = 1;
nodes = (
"347 582 LINE",
"429 582 LINE",
"315 722 LINE",
"193 722 LINE"
);
}
);
width = 666;
}
);
leftKerningGroup = a;
note = agrave;
rightKerningGroup = a;
unicode = 00E0;
},
{
glyphname = aring;
lastChange = "2023-01-03 16:47:02 +0000";
layers = (
{
hints = (
{
horizontal = 1;
place = "{-19, 68}";
type = Stem;
},
{
horizontal = 1;
place = "{245, 68}";
type = Stem;
},
{
horizontal = 1;
place = "{453, 68}";
type = Stem;
},
{
horizontal = 1;
place = "{565, 46}";
type = Stem;
},
{
horizontal = 1;
place = "{723, 46}";
type = Stem;
},
{
place = "{56, 104}";
type = Stem;
},
{
place = "{237, 46}";
type = Stem;
},
{
place = "{395, 46}";
type = Stem;
},
{
place = "{485, 98}";
type = Stem;
},
{
horizontal = 1;
place = "{0, 21}";
target = up;
type = BottomGhost;
}
);
layerId = "6D1AFECB-6C65-4A9F-813E-BAE625DDDD1E";
paths = (
{
closed = 1;
nodes = (
"196 371 LINE",
"201 426 OFFCURVE",
"259 453 OFFCURVE",
"328 453 CURVE SMOOTH",
"425 453 OFFCURVE",
"485 423 OFFCURVE",
"485 327 CURVE SMOOTH",
"485 313 LINE",
"439 313 OFFCURVE",
"388 313 OFFCURVE",
"314 311 CURVE SMOOTH",
"136 306 OFFCURVE",
"56 251 OFFCURVE",
"56 145 CURVE SMOOTH",
"56 51 OFFCURVE",
"143 -19 OFFCURVE",
"270 -19 CURVE SMOOTH",
"368 -19 OFFCURVE",
"432 -5 OFFCURVE",
"489 70 CURVE",
"491 70 LINE",
"491 47 OFFCURVE",
"492 23 OFFCURVE",
"495 0 CURVE",
"587 0 LINE",
"584 27 OFFCURVE",
"583 58 OFFCURVE",
"583 96 CURVE SMOOTH",
"583 343 LINE SMOOTH",
"583 468 OFFCURVE",
"481 521 OFFCURVE",
"342 521 CURVE SMOOTH",
"233 521 OFFCURVE",
"104 490 OFFCURVE",
"92 371 CURVE"
);
},
{
closed = 1;
nodes = (
"485 222 LINE SMOOTH",
"485 101 OFFCURVE",
"417 49 OFFCURVE",
"296 49 CURVE SMOOTH",
"201 49 OFFCURVE",
"160 98 OFFCURVE",
"160 148 CURVE SMOOTH",
"160 221 OFFCURVE",
"227 238 OFFCURVE",
"329 242 CURVE SMOOTH",
"404 245 OFFCURVE",
"452 245 OFFCURVE",
"485 245 CURVE"
);
},
{
closed = 1;
nodes = (
"237 611 OFFCURVE",
"283 565 OFFCURVE",
"339 565 CURVE SMOOTH",
"395 565 OFFCURVE",
"441 611 OFFCURVE",
"441 667 CURVE SMOOTH",
"441 723 OFFCURVE",
"395 769 OFFCURVE",
"339 769 CURVE SMOOTH",
"283 769 OFFCURVE",
"237 723 OFFCURVE",
"237 667 CURVE SMOOTH"
);
},
{
closed = 1;
nodes = (
"283 698 OFFCURVE",
"308 723 OFFCURVE",
"339 723 CURVE SMOOTH",
"370 723 OFFCURVE",
"395 698 OFFCURVE",
"395 667 CURVE SMOOTH",
"395 636 OFFCURVE",
"370 611 OFFCURVE",
"339 611 CURVE SMOOTH",
"308 611 OFFCURVE",
"283 636 OFFCURVE",
"283 667 CURVE SMOOTH"
);
}
);
width = 666;
}
);
leftKerningGroup = a;
note = aring;
rightKerningGroup = a;
unicode = 00E5;
},
{
glyphname = atilde;
lastChange = "2023-01-03 16:47:02 +0000";
layers = (
{
hints = (
{
horizontal = 1;
place = "{-19, 68}";
type = Stem;
},
{
horizontal = 1;
place = "{245, 68}";
type = Stem;
},
{
horizontal = 1;
place = "{453, 68}";
type = Stem;
},
{
horizontal = 1;
place = "{612, 68}";
type = Stem;
},
{
place = "{56, 104}";
type = Stem;
},
{
place = "{485, 98}";
type = Stem;
},
{
horizontal = 1;
place = "{0, 21}";
target = up;
type = BottomGhost;
},
{
horizontal = 1;
place = "{648, 74}";
type = Stem;
},
{
place = "{162, 58}";
type = Stem;
},
{
horizontal = 1;
place = "{606, 116}";
type = Stem;
}
);
layerId = "6D1AFECB-6C65-4A9F-813E-BAE625DDDD1E";
paths = (
{
closed = 1;
nodes = (
"196 371 LINE",
"201 426 OFFCURVE",
"259 453 OFFCURVE",
"328 453 CURVE SMOOTH",
"425 453 OFFCURVE",
"485 423 OFFCURVE",
"485 327 CURVE SMOOTH",
"485 313 LINE",
"439 313 OFFCURVE",
"388 313 OFFCURVE",
"314 311 CURVE SMOOTH",
"136 306 OFFCURVE",
"56 251 OFFCURVE",
"56 145 CURVE SMOOTH",
"56 51 OFFCURVE",
"143 -19 OFFCURVE",
"270 -19 CURVE SMOOTH",
"368 -19 OFFCURVE",
"432 -5 OFFCURVE",
"489 70 CURVE",
"491 70 LINE",
"491 47 OFFCURVE",
"492 23 OFFCURVE",
"495 0 CURVE",
"587 0 LINE",
"584 27 OFFCURVE",
"583 58 OFFCURVE",
"583 96 CURVE SMOOTH",
"583 343 LINE SMOOTH",
"583 468 OFFCURVE",
"481 521 OFFCURVE",
"342 521 CURVE SMOOTH",
"233 521 OFFCURVE",
"104 490 OFFCURVE",
"92 371 CURVE"
);
},
{
closed = 1;
nodes = (
"485 222 LINE SMOOTH",
"485 101 OFFCURVE",
"417 49 OFFCURVE",
"296 49 CURVE SMOOTH",
"201 49 OFFCURVE",
"160 98 OFFCURVE",
"160 148 CURVE SMOOTH",
"160 221 OFFCURVE",
"227 238 OFFCURVE",
"329 242 CURVE SMOOTH",
"404 245 OFFCURVE",
"452 245 OFFCURVE",
"485 245 CURVE"
);
},
{
closed = 1;
nodes = (
"458 722 LINE",
"455 694 OFFCURVE",
"435 680 OFFCURVE",
"412 680 CURVE SMOOTH",
"387 680 OFFCURVE",
"297 722 OFFCURVE",
"249 722 CURVE SMOOTH",
"222 722 OFFCURVE",
"201 712 OFFCURVE",
"186 693 CURVE SMOOTH",
"171 674 OFFCURVE",
"163 646 OFFCURVE",
"162 606 CURVE",
"220 606 LINE",
"221 629 OFFCURVE",
"236 648 OFFCURVE",
"257 648 CURVE SMOOTH",
"287 648 OFFCURVE",
"370 612 OFFCURVE",
"423 612 CURVE SMOOTH",
"484 612 OFFCURVE",
"514 648 OFFCURVE",
"516 722 CURVE"
);
}
);
width = 666;
}
);
leftKerningGroup = a;
note = atilde;
rightKerningGroup = a;
unicode = 00E3;
},
{
glyphname = ccedilla;
lastChange = "2023-01-03 16:47:02 +0000";
layers = (
{
hints = (
{
horizontal = 1;
place = "{-206, 46}";
type = Stem;
},
{
horizontal = 1;
place = "{-96, 38}";
type = Stem;
},
{
horizontal = 1;
place = "{-18, 67}";
type = Stem;
},
{
horizontal = 1;
place = "{453, 68}";
type = Stem;
},
{
place = "{56, 104}";
type = Stem;
},
{
place = "{380, 88}";
type = Stem;
},
{
horizontal = 1;
place = "{-206, 21}";
target = up;
type = BottomGhost;
}
);
layerId = "6D1AFECB-6C65-4A9F-813E-BAE625DDDD1E";
paths = (
{
closed = 1;
nodes = (
"268 -81 LINE",
"287 -104 LINE",
"309 -98 OFFCURVE",
"320 -96 OFFCURVE",
"329 -96 CURVE SMOOTH",
"363 -96 OFFCURVE",
"380 -109 OFFCURVE",
"380 -127 CURVE SMOOTH",
"380 -149 OFFCURVE",
"351 -160 OFFCURVE",
"316 -160 CURVE SMOOTH",
"289 -160 OFFCURVE",
"257 -152 OFFCURVE",
"235 -144 CURVE",
"220 -185 LINE",
"252 -197 OFFCURVE",
"298 -206 OFFCURVE",
"338 -206 CURVE SMOOTH",
"404 -206 OFFCURVE",
"468 -183 OFFCURVE",
"468 -127 CURVE SMOOTH",
"468 -86 OFFCURVE",
"428 -58 OFFCURVE",
"371 -58 CURVE SMOOTH",
"360 -58 OFFCURVE",
"344 -60 OFFCURVE",
"330 -65 CURVE",
"328 -63 LINE",
"363 -19 LINE",
"483 -13 OFFCURVE",
"601 42 OFFCURVE",
"610 162 CURVE",
"506 162 LINE",
"501 92 OFFCURVE",
"439 49 OFFCURVE",
"347 49 CURVE SMOOTH",
"223 49 OFFCURVE",
"160 143 OFFCURVE",
"160 250 CURVE SMOOTH",
"160 384 OFFCURVE",
"246 453 OFFCURVE",
"352 453 CURVE SMOOTH",
"434 453 OFFCURVE",
"493 415 OFFCURVE",
"502 342 CURVE",
"606 342 LINE",
"589 473 OFFCURVE",
"472 521 OFFCURVE",
"351 521 CURVE SMOOTH",
"170 521 OFFCURVE",
"56 419 OFFCURVE",
"56 250 CURVE SMOOTH",
"56 97 OFFCURVE",
"145 -7 OFFCURVE",
"314 -18 CURVE"
);
}
);
width = 666;
}
);
leftKerningGroup = c;
note = ccedilla;
rightKerningGroup = c;
unicode = 00E7;
},
{
glyphname = eacute;
lastChange = "2023-01-03 16:47:02 +0000";
layers = (
{
hints = (
{
horizontal = 1;
place = "{-19, 68}";
type = Stem;
},
{
horizontal = 1;
place = "{225, 68}";
type = Stem;
},
{
horizontal = 1;
place = "{453, 68}";
type = Stem;
},
{
horizontal = 1;
place = "{582, 140}";
type = Stem;
},
{
place = "{49, 98}";
type = Stem;
},
{
place = "{513, 104}";
type = Stem;
}
);
layerId = "6D1AFECB-6C65-4A9F-813E-BAE625DDDD1E";
paths = (
{
closed = 1;
nodes = (
"151 293 LINE",
"166 404 OFFCURVE",
"238 453 OFFCURVE",
"339 453 CURVE SMOOTH",
"425 453 OFFCURVE",
"511 409 OFFCURVE",
"513 293 CURVE"
);
},
{
closed = 1;
nodes = (
"617 255 LINE SMOOTH",
"617 425 OFFCURVE",
"519 521 OFFCURVE",
"341 521 CURVE SMOOTH",
"159 521 OFFCURVE",
"49 424 OFFCURVE",
"49 241 CURVE SMOOTH",
"49 82 OFFCURVE",
"154 -19 OFFCURVE",
"338 -19 CURVE SMOOTH",
"449 -19 OFFCURVE",
"585 17 OFFCURVE",
"605 151 CURVE",
"501 151 LINE",
"479 79 OFFCURVE",
"404 49 OFFCURVE",
"333 49 CURVE SMOOTH",
"223 49 OFFCURVE",
"157 122 OFFCURVE",
"147 225 CURVE",
"617 225 LINE"
);
},
{
closed = 1;
nodes = (
"255 582 LINE",
"337 582 LINE",
"491 722 LINE",
"369 722 LINE"
);
}
);
width = 666;
}
);
leftKerningGroup = e;
note = eacute;
rightKerningGroup = e;
unicode = 00E9;
},
{
glyphname = ecircumflex;
lastChange = "2023-01-03 16:47:02 +0000";
layers = (
{
hints = (
{
horizontal = 1;
place = "{-19, 68}";
type = Stem;
},
{
horizontal = 1;
place = "{225, 68}";
type = Stem;
},
{
horizontal = 1;
place = "{453, 68}";
type = Stem;
},
{
horizontal = 1;
place = "{582, 140}";
type = Stem;
},
{
place = "{49, 98}";
type = Stem;
},
{
place = "{513, 104}";
type = Stem;
},
{
horizontal = 1;
place = "{684, 38}";
type = Stem;
}
);
layerId = "6D1AFECB-6C65-4A9F-813E-BAE625DDDD1E";
paths = (
{
closed = 1;
nodes = (
"151 293 LINE",
"166 404 OFFCURVE",
"238 453 OFFCURVE",
"339 453 CURVE SMOOTH",
"425 453 OFFCURVE",
"511 409 OFFCURVE",
"513 293 CURVE"
);
},
{
closed = 1;
nodes = (
"617 255 LINE SMOOTH",
"617 425 OFFCURVE",
"519 521 OFFCURVE",
"341 521 CURVE SMOOTH",
"159 521 OFFCURVE",
"49 424 OFFCURVE",
"49 241 CURVE SMOOTH",
"49 82 OFFCURVE",
"154 -19 OFFCURVE",
"338 -19 CURVE SMOOTH",
"449 -19 OFFCURVE",
"585 17 OFFCURVE",
"605 151 CURVE",
"501 151 LINE",
"479 79 OFFCURVE",
"404 49 OFFCURVE",
"333 49 CURVE SMOOTH",
"223 49 OFFCURVE",
"157 122 OFFCURVE",
"147 225 CURVE",
"617 225 LINE"
);
},
{
closed = 1;
nodes = (
"440 582 LINE",
"522 582 LINE",
"403 722 LINE",
"287 722 LINE",
"168 582 LINE",
"250 582 LINE",
"345 684 LINE"
);
}
);
width = 666;
}
);
leftKerningGroup = e;
note = ecircumflex;
rightKerningGroup = e;
unicode = 00EA;
},
